<?xml version="1.0" standalone="no"?>
<svg xmlns="http://www.w3.org/2000/svg" width="1024" height="1024" xmlns:xlink="http://www.w3.org/1999/xlink" viewBox="0 0 1024 1024"><defs><clipPath id="clip-path-background-color-0"><rect x="0" y="0" width="1024" height="1024"/></clipPath><clipPath id="clip-path-dot-color-0"><path d="M 341 0v 31h 15.5a 15.5 15.5, 0, 0, 0, 0 -31" transform="rotate(180,356.5,15.5)"/><path d="M 372 0v 31h 31v -15.5a 15.5 15.5, 0, 0, 0, -15.5 -15.5" transform="rotate(0,387.5,15.5)"/><circle cx="480.5" cy="15.5" r="15.5" transform="rotate(0,480.5,15.5)"/><path d="M 558 0v 31h 31v -15.5a 15.5 15.5, 0, 0, 0, -15.5 -15.5" transform="rotate(-90,573.5,15.5)"/><rect x="589" y="0" width="31" height="31" transform="rotate(0,604.5,15.5)"/><path d="M 620 0v 31h 15.5a 15.5 15.5, 0, 0, 0, 0 -31" transform="rotate(0,635.5,15.5)"/><path d="M 682 0v 31h 15.5a 15.5 15.5, 0, 0, 0, 0 -31" transform="rotate(-90,697.5,15.5)"/><circle cx="759.5" cy="15.5" r="15.5" transform="rotate(0,759.5,15.5)"/><path d="M 248 31v 31h 31v -15.5a 15.5 15.5, 0, 0, 0, -15.5 -15.5" transform="rotate(-90,263.5,46.5)"/><path d="M 279 31v 31h 31v -15.5a 15.5 15.5, 0, 0, 0, -15.5 -15.5" transform="rotate(0,294.5,46.5)"/><path d="M 372 31v 31h 15.5a 15.5 15.5, 0, 0, 0, 0 -31" transform="rotate(90,387.5,46.5)"/><path d="M 527 31v 31h 31v -15.5a 15.5 15.5, 0, 0, 0, -15.5 -15.5" transform="rotate(-90,542.5,46.5)"/><rect x="558" y="31" width="31" height="31" transform="rotate(0,573.5,46.5)"/><path d="M 651 31v 31h 31v -15.5a 15.5 15.5, 0, 0, 0, -15.5 -15.5" transform="rotate(-90,666.5,46.5)"/><rect x="682" y="31" width="31" height="31" transform="rotate(0,697.5,46.5)"/><rect x="248" y="62" width="31" height="31" transform="rotate(0,263.5,77.5)"/><path d="M 279 62v 31h 31v -15.5a 15.5 15.5, 0, 0, 0, -15.5 -15.5" transform="rotate(90,294.5,77.5)"/><circle cx="356.5" cy="77.5" r="15.5" transform="rotate(0,356.5,77.5)"/><circle cx="418.5" cy="77.5" r="15.5" transform="rotate(0,418.5,77.5)"/><path d="M 465 62v 31h 15.5a 15.5 15.5, 0, 0, 0, 0 -31" transform="rotate(180,480.5,77.5)"/><rect x="496" y="62" width="31" height="31" transform="rotate(0,511.5,77.5)"/><rect x="527" y="62" width="31" height="31" transform="rotate(0,542.5,77.5)"/><rect x="558" y="62" width="31" height="31" transform="rotate(0,573.5,77.5)"/><path d="M 589 62v 31h 15.5a 15.5 15.5, 0, 0, 0, 0 -31" transform="rotate(0,604.5,77.5)"/><rect x="651" y="62" width="31" height="31" transform="rotate(0,666.5,77.5)"/><rect x="682" y="62" width="31" height="31" transform="rotate(0,697.5,77.5)"/><path d="M 744 62v 31h 15.5a 15.5 15.5, 0, 0, 0, 0 -31" transform="rotate(-90,759.5,77.5)"/><rect x="248" y="93" width="31" height="31" transform="rotate(0,263.5,108.5)"/><circle cx="387.5" cy="108.5" r="15.5" transform="rotate(0,387.5,108.5)"/><circle cx="449.5" cy="108.5" r="15.5" transform="rotate(0,449.5,108.5)"/><path d="M 496 93v 31h 31v -15.5a 15.5 15.5, 0, 0, 0, -15.5 -15.5" transform="rotate(180,511.5,108.5)"/><rect x="527" y="93" width="31" height="31" transform="rotate(0,542.5,108.5)"/><rect x="558" y="93" width="31" height="31" transform="rotate(0,573.5,108.5)"/><path d="M 651 93v 31h 31v -15.5a 15.5 15.5, 0, 0, 0, -15.5 -15.5" transform="rotate(180,666.5,108.5)"/><rect x="682" y="93" width="31" height="31" transform="rotate(0,697.5,108.5)"/><rect x="713" y="93" width="31" height="31" transform="rotate(0,728.5,108.5)"/><rect x="744" y="93" width="31" height="31" transform="rotate(0,759.5,108.5)"/><rect x="248" y="124" width="31" height="31" transform="rotate(0,263.5,139.5)"/><path d="M 279 124v 31h 15.5a 15.5 15.5, 0, 0, 0, 0 -31" transform="rotate(0,294.5,139.5)"/><rect x="527" y="124" width="31" height="31" transform="rotate(0,542.5,139.5)"/><path d="M 558 124v 31h 31v -15.5a 15.5 15.5, 0, 0, 0, -15.5 -15.5" transform="rotate(90,573.5,139.5)"/><rect x="682" y="124" width="31" height="31" transform="rotate(0,697.5,139.5)"/><rect x="713" y="124" width="31" height="31" transform="rotate(0,728.5,139.5)"/><rect x="744" y="124" width="31" height="31" transform="rotate(0,759.5,139.5)"/><rect x="248" y="155" width="31" height="31" transform="rotate(0,263.5,170.5)"/><path d="M 310 155v 31h 31v -15.5a 15.5 15.5, 0, 0, 0, -15.5 -15.5" transform="rotate(-90,325.5,170.5)"/><path d="M 341 155v 31h 15.5a 15.5 15.5, 0, 0, 0, 0 -31" transform="rotate(0,356.5,170.5)"/><circle cx="418.5" cy="170.5" r="15.5" transform="rotate(0,418.5,170.5)"/><circle cx="480.5" cy="170.5" r="15.5" transform="rotate(0,480.5,170.5)"/><path d="M 527 155v 31h 15.5a 15.5 15.5, 0, 0, 0, 0 -31" transform="rotate(90,542.5,170.5)"/><path d="M 589 155v 31h 15.5a 15.5 15.5, 0, 0, 0, 0 -31" transform="rotate(180,604.5,170.5)"/><rect x="620" y="155" width="31" height="31" transform="rotate(0,635.5,170.5)"/><rect x="651" y="155" width="31" height="31" transform="rotate(0,666.5,170.5)"/><rect x="682" y="155" width="31" height="31" transform="rotate(0,697.5,170.5)"/><rect x="744" y="155" width="31" height="31" transform="rotate(0,759.5,170.5)"/><path d="M 248 186v 31h 15.5a 15.5 15.5, 0, 0, 0, 0 -31" transform="rotate(90,263.5,201.5)"/><rect x="310" y="186" width="31" height="31" transform="rotate(0,325.5,201.5)"/><path d="M 372 186v 31h 15.5a 15.5 15.5, 0, 0, 0, 0 -31" transform="rotate(-90,387.5,201.5)"/><circle cx="449.5" cy="201.5" r="15.5" transform="rotate(0,449.5,201.5)"/><circle cx="511.5" cy="201.5" r="15.5" transform="rotate(0,511.5,201.5)"/><path d="M 558 186v 31h 15.5a 15.5 15.5, 0, 0, 0, 0 -31" transform="rotate(-90,573.5,201.5)"/><rect x="620" y="186" width="31" height="31" transform="rotate(0,635.5,201.5)"/><path d="M 682 186v 31h 15.5a 15.5 15.5, 0, 0, 0, 0 -31" transform="rotate(90,697.5,201.5)"/><path d="M 744 186v 31h 15.5a 15.5 15.5, 0, 0, 0, 0 -31" transform="rotate(90,759.5,201.5)"/><path d="M 310 217v 31h 15.5a 15.5 15.5, 0, 0, 0, 0 -31" transform="rotate(90,325.5,232.5)"/><rect x="372" y="217" width="31" height="31" transform="rotate(0,387.5,232.5)"/><path d="M 403 217v 31h 31v -15.5a 15.5 15.5, 0, 0, 0, -15.5 -15.5" transform="rotate(0,418.5,232.5)"/><rect x="558" y="217" width="31" height="31" transform="rotate(0,573.5,232.5)"/><rect x="620" y="217" width="31" height="31" transform="rotate(0,635.5,232.5)"/><circle cx="77.5" cy="263.5" r="15.5" transform="rotate(0,77.5,263.5)"/><path d="M 155 248v 31h 31v -15.5a 15.5 15.5, 0, 0, 0, -15.5 -15.5" transform="rotate(-90,170.5,263.5)"/><rect x="186" y="248" width="31" height="31" transform="rotate(0,201.5,263.5)"/><rect x="217" y="248" width="31" height="31" transform="rotate(0,232.5,263.5)"/><rect x="248" y="248" width="31" height="31" transform="rotate(0,263.5,263.5)"/><path d="M 279 248v 31h 15.5a 15.5 15.5, 0, 0, 0, 0 -31" transform="rotate(0,294.5,263.5)"/><path d="M 372 248v 31h 31v -15.5a 15.5 15.5, 0, 0, 0, -15.5 -15.5" transform="rotate(180,387.5,263.5)"/><path d="M 403 248v 31h 31v -15.5a 15.5 15.5, 0, 0, 0, -15.5 -15.5" transform="rotate(90,418.5,263.5)"/><rect x="558" y="248" width="31" height="31" transform="rotate(0,573.5,263.5)"/><rect x="589" y="248" width="31" height="31" transform="rotate(0,604.5,263.5)"/><rect x="620" y="248" width="31" height="31" transform="rotate(0,635.5,263.5)"/><path d="M 713 248v 31h 31v -15.5a 15.5 15.5, 0, 0, 0, -15.5 -15.5" transform="rotate(-90,728.5,263.5)"/><rect x="744" y="248" width="31" height="31" transform="rotate(0,759.5,263.5)"/><path d="M 775 248v 31h 31v -15.5a 15.5 15.5, 0, 0, 0, -15.5 -15.5" transform="rotate(0,790.5,263.5)"/><path d="M 837 248v 31h 31v -15.5a 15.5 15.5, 0, 0, 0, -15.5 -15.5" transform="rotate(-90,852.5,263.5)"/><rect x="868" y="248" width="31" height="31" transform="rotate(0,883.5,263.5)"/><rect x="899" y="248" width="31" height="31" transform="rotate(0,914.5,263.5)"/><rect x="930" y="248" width="31" height="31" transform="rotate(0,945.5,263.5)"/><path d="M 961 248v 31h 15.5a 15.5 15.5, 0, 0, 0, 0 -31" transform="rotate(0,976.5,263.5)"/><path d="M 0 279v 31h 15.5a 15.5 15.5, 0, 0, 0, 0 -31" transform="rotate(180,15.5,294.5)"/><path d="M 31 279v 31h 15.5a 15.5 15.5, 0, 0, 0, 0 -31" transform="rotate(0,46.5,294.5)"/><path d="M 124 279v 31h 31v -15.5a 15.5 15.5, 0, 0, 0, -15.5 -15.5" transform="rotate(-90,139.5,294.5)"/><path d="M 155 279v 31h 31v -15.5a 15.5 15.5, 0, 0, 0, -15.5 -15.5" transform="rotate(90,170.5,294.5)"/><circle cx="325.5" cy="294.5" r="15.5" transform="rotate(0,325.5,294.5)"/><circle cx="480.5" cy="294.5" r="15.5" transform="rotate(0,480.5,294.5)"/><path d="M 558 279v 31h 15.5a 15.5 15.5, 0, 0, 0, 0 -31" transform="rotate(90,573.5,294.5)"/><rect x="620" y="279" width="31" height="31" transform="rotate(0,635.5,294.5)"/><path d="M 651 279v 31h 15.5a 15.5 15.5, 0, 0, 0, 0 -31" transform="rotate(0,666.5,294.5)"/><rect x="713" y="279" width="31" height="31" transform="rotate(0,728.5,294.5)"/><rect x="744" y="279" width="31" height="31" transform="rotate(0,759.5,294.5)"/><rect x="775" y="279" width="31" height="31" transform="rotate(0,790.5,294.5)"/><rect x="806" y="279" width="31" height="31" transform="rotate(0,821.5,294.5)"/><rect x="837" y="279" width="31" height="31" transform="rotate(0,852.5,294.5)"/><path d="M 899 279v 31h 31v -15.5a 15.5 15.5, 0, 0, 0, -15.5 -15.5" transform="rotate(180,914.5,294.5)"/><rect x="930" y="279" width="31" height="31" transform="rotate(0,945.5,294.5)"/><path d="M 992 279v 31h 15.5a 15.5 15.5, 0, 0, 0, 0 -31" transform="rotate(-90,1007.5,294.5)"/><circle cx="77.5" cy="325.5" r="15.5" transform="rotate(0,77.5,325.5)"/><rect x="124" y="310" width="31" height="31" transform="rotate(0,139.5,325.5)"/><circle cx="201.5" cy="325.5" r="15.5" transform="rotate(0,201.5,325.5)"/><path d="M 279 310v 31h 15.5a 15.5 15.5, 0, 0, 0, 0 -31" transform="rotate(-90,294.5,325.5)"/><path d="M 341 310v 31h 31v -15.5a 15.5 15.5, 0, 0, 0, -15.5 -15.5" transform="rotate(-90,356.5,325.5)"/><rect x="372" y="310" width="31" height="31" transform="rotate(0,387.5,325.5)"/><rect x="403" y="310" width="31" height="31" transform="rotate(0,418.5,325.5)"/><path d="M 434 310v 31h 31v -15.5a 15.5 15.5, 0, 0, 0, -15.5 -15.5" transform="rotate(0,449.5,325.5)"/><path d="M 496 310v 31h 15.5a 15.5 15.5, 0, 0, 0, 0 -31" transform="rotate(180,511.5,325.5)"/><path d="M 527 310v 31h 15.5a 15.5 15.5, 0, 0, 0, 0 -31" transform="rotate(0,542.5,325.5)"/><path d="M 589 310v 31h 15.5a 15.5 15.5, 0, 0, 0, 0 -31" transform="rotate(180,604.5,325.5)"/><path d="M 620 310v 31h 31v -15.5a 15.5 15.5, 0, 0, 0, -15.5 -15.5" transform="rotate(90,635.5,325.5)"/><path d="M 713 310v 31h 15.5a 15.5 15.5, 0, 0, 0, 0 -31" transform="rotate(90,728.5,325.5)"/><path d="M 775 310v 31h 15.5a 15.5 15.5, 0, 0, 0, 0 -31" transform="rotate(90,790.5,325.5)"/><rect x="837" y="310" width="31" height="31" transform="rotate(0,852.5,325.5)"/><path d="M 868 310v 31h 15.5a 15.5 15.5, 0, 0, 0, 0 -31" transform="rotate(0,883.5,325.5)"/><path d="M 930 310v 31h 15.5a 15.5 15.5, 0, 0, 0, 0 -31" transform="rotate(90,945.5,325.5)"/><rect x="992" y="310" width="31" height="31" transform="rotate(0,1007.5,325.5)"/><circle cx="46.5" cy="356.5" r="15.5" transform="rotate(0,46.5,356.5)"/><rect x="124" y="341" width="31" height="31" transform="rotate(0,139.5,356.5)"/><path d="M 155 341v 31h 15.5a 15.5 15.5, 0, 0, 0, 0 -31" transform="rotate(0,170.5,356.5)"/><path d="M 248 341v 31h 15.5a 15.5 15.5, 0, 0, 0, 0 -31" transform="rotate(180,263.5,356.5)"/><path d="M 279 341v 31h 31v -15.5a 15.5 15.5, 0, 0, 0, -15.5 -15.5" transform="rotate(90,294.5,356.5)"/><path d="M 341 341v 31h 31v -15.5a 15.5 15.5, 0, 0, 0, -15.5 -15.5" transform="rotate(180,356.5,356.5)"/><path d="M 372 341v 31h 31v -15.5a 15.5 15.5, 0, 0, 0, -15.5 -15.5" transform="rotate(90,387.5,356.5)"/><rect x="434" y="341" width="31" height="31" transform="rotate(0,449.5,356.5)"/><circle cx="573.5" cy="356.5" r="15.5" transform="rotate(0,573.5,356.5)"/><path d="M 651 341v 31h 15.5a 15.5 15.5, 0, 0, 0, 0 -31" transform="rotate(-90,666.5,356.5)"/><path d="M 837 341v 31h 15.5a 15.5 15.5, 0, 0, 0, 0 -31" transform="rotate(90,852.5,356.5)"/><path d="M 961 341v 31h 15.5a 15.5 15.5, 0, 0, 0, 0 -31" transform="rotate(180,976.5,356.5)"/><rect x="992" y="341" width="31" height="31" transform="rotate(0,1007.5,356.5)"/><path d="M 0 372v 31h 15.5a 15.5 15.5, 0, 0, 0, 0 -31" transform="rotate(-90,15.5,387.5)"/><path d="M 93 372v 31h 15.5a 15.5 15.5, 0, 0, 0, 0 -31" transform="rotate(180,108.5,387.5)"/><path d="M 124 372v 31h 31v -15.5a 15.5 15.5, 0, 0, 0, -15.5 -15.5" transform="rotate(90,139.5,387.5)"/><path d="M 186 372v 31h 15.5a 15.5 15.5, 0, 0, 0, 0 -31" transform="rotate(180,201.5,387.5)"/><path d="M 217 372v 31h 31v -15.5a 15.5 15.5, 0, 0, 0, -15.5 -15.5" transform="rotate(0,232.5,387.5)"/><path d="M 310 372v 31h 15.5a 15.5 15.5, 0, 0, 0, 0 -31" transform="rotate(-90,325.5,387.5)"/><path d="M 403 372v 31h 31v -15.5a 15.5 15.5, 0, 0, 0, -15.5 -15.5" transform="rotate(-90,418.5,387.5)"/><rect x="434" y="372" width="31" height="31" transform="rotate(0,449.5,387.5)"/><path d="M 465 372v 31h 31v -15.5a 15.5 15.5, 0, 0, 0, -15.5 -15.5" transform="rotate(0,480.5,387.5)"/><circle cx="604.5" cy="387.5" r="15.5" transform="rotate(0,604.5,387.5)"/><rect x="651" y="372" width="31" height="31" transform="rotate(0,666.5,387.5)"/><circle cx="759.5" cy="387.5" r="15.5" transform="rotate(0,759.5,387.5)"/><path d="M 806 372v 31h 15.5a 15.5 15.5, 0, 0, 0, 0 -31" transform="rotate(-90,821.5,387.5)"/><circle cx="914.5" cy="387.5" r="15.5" transform="rotate(0,914.5,387.5)"/><rect x="992" y="372" width="31" height="31" transform="rotate(0,1007.5,387.5)"/><rect x="0" y="403" width="31" height="31" transform="rotate(0,15.5,418.5)"/><path d="M 62 403v 31h 15.5a 15.5 15.5, 0, 0, 0, 0 -31" transform="rotate(-90,77.5,418.5)"/><rect x="217" y="403" width="31" height="31" transform="rotate(0,232.5,418.5)"/><rect x="248" y="403" width="31" height="31" transform="rotate(0,263.5,418.5)"/><rect x="279" y="403" width="31" height="31" transform="rotate(0,294.5,418.5)"/><rect x="310" y="403" width="31" height="31" transform="rotate(0,325.5,418.5)"/><rect x="341" y="403" width="31" height="31" transform="rotate(0,356.5,418.5)"/><rect x="372" y="403" width="31" height="31" transform="rotate(0,387.5,418.5)"/><rect x="403" y="403" width="31" height="31" transform="rotate(0,418.5,418.5)"/><path d="M 465 403v 31h 31v -15.5a 15.5 15.5, 0, 0, 0, -15.5 -15.5" transform="rotate(180,480.5,418.5)"/><rect x="496" y="403" width="31" height="31" transform="rotate(0,511.5,418.5)"/><rect x="527" y="403" width="31" height="31" transform="rotate(0,542.5,418.5)"/><path d="M 558 403v 31h 15.5a 15.5 15.5, 0, 0, 0, 0 -31" transform="rotate(0,573.5,418.5)"/><path d="M 620 403v 31h 31v -15.5a 15.5 15.5, 0, 0, 0, -15.5 -15.5" transform="rotate(-90,635.5,418.5)"/><path d="M 651 403v 31h 31v -15.5a 15.5 15.5, 0, 0, 0, -15.5 -15.5" transform="rotate(90,666.5,418.5)"/><path d="M 713 403v 31h 15.5a 15.5 15.5, 0, 0, 0, 0 -31" transform="rotate(-90,728.5,418.5)"/><path d="M 775 403v 31h 15.5a 15.5 15.5, 0, 0, 0, 0 -31" transform="rotate(180,790.5,418.5)"/><rect x="806" y="403" width="31" height="31" transform="rotate(0,821.5,418.5)"/><path d="M 837 403v 31h 31v -15.5a 15.5 15.5, 0, 0, 0, -15.5 -15.5" transform="rotate(0,852.5,418.5)"/><rect x="992" y="403" width="31" height="31" transform="rotate(0,1007.5,418.5)"/><path d="M 0 434v 31h 31v -15.5a 15.5 15.5, 0, 0, 0, -15.5 -15.5" transform="rotate(180,15.5,449.5)"/><rect x="31" y="434" width="31" height="31" transform="rotate(0,46.5,449.5)"/><rect x="62" y="434" width="31" height="31" transform="rotate(0,77.5,449.5)"/><path d="M 93 434v 31h 31v -15.5a 15.5 15.5, 0, 0, 0, -15.5 -15.5" transform="rotate(0,108.5,449.5)"/><path d="M 155 434v 31h 31v -15.5a 15.5 15.5, 0, 0, 0, -15.5 -15.5" transform="rotate(-90,170.5,449.5)"/><rect x="186" y="434" width="31" height="31" transform="rotate(0,201.5,449.5)"/><path d="M 217 434v 31h 31v -15.5a 15.5 15.5, 0, 0, 0, -15.5 -15.5" transform="rotate(90,232.5,449.5)"/><rect x="279" y="434" width="31" height="31" transform="rotate(0,294.5,449.5)"/><rect x="310" y="434" width="31" height="31" transform="rotate(0,325.5,449.5)"/><path d="M 403 434v 31h 15.5a 15.5 15.5, 0, 0, 0, 0 -31" transform="rotate(90,418.5,449.5)"/><path d="M 527 434v 31h 15.5a 15.5 15.5, 0, 0, 0, 0 -31" transform="rotate(90,542.5,449.5)"/><rect x="620" y="434" width="31" height="31" transform="rotate(0,635.5,449.5)"/><rect x="713" y="434" width="31" height="31" transform="rotate(0,728.5,449.5)"/><path d="M 744 434v 31h 15.5a 15.5 15.5, 0, 0, 0, 0 -31" transform="rotate(0,759.5,449.5)"/><path d="M 806 434v 31h 31v -15.5a 15.5 15.5, 0, 0, 0, -15.5 -15.5" transform="rotate(180,821.5,449.5)"/><rect x="837" y="434" width="31" height="31" transform="rotate(0,852.5,449.5)"/><path d="M 868 434v 31h 15.5a 15.5 15.5, 0, 0, 0, 0 -31" transform="rotate(0,883.5,449.5)"/><circle cx="945.5" cy="449.5" r="15.5" transform="rotate(0,945.5,449.5)"/><rect x="992" y="434" width="31" height="31" transform="rotate(0,1007.5,449.5)"/><path d="M 62 465v 31h 31v -15.5a 15.5 15.5, 0, 0, 0, -15.5 -15.5" transform="rotate(180,77.5,480.5)"/><rect x="93" y="465" width="31" height="31" transform="rotate(0,108.5,480.5)"/><rect x="124" y="465" width="31" height="31" transform="rotate(0,139.5,480.5)"/><path d="M 155 465v 31h 31v -15.5a 15.5 15.5, 0, 0, 0, -15.5 -15.5" transform="rotate(90,170.5,480.5)"/><path d="M 279 465v 31h 31v -15.5a 15.5 15.5, 0, 0, 0, -15.5 -15.5" transform="rotate(180,294.5,480.5)"/><rect x="310" y="465" width="31" height="31" transform="rotate(0,325.5,480.5)"/><rect x="341" y="465" width="31" height="31" transform="rotate(0,356.5,480.5)"/><path d="M 372 465v 31h 31v -15.5a 15.5 15.5, 0, 0, 0, -15.5 -15.5" transform="rotate(0,387.5,480.5)"/><path d="M 434 465v 31h 15.5a 15.5 15.5, 0, 0, 0, 0 -31" transform="rotate(-90,449.5,480.5)"/><path d="M 558 465v 31h 31v -15.5a 15.5 15.5, 0, 0, 0, -15.5 -15.5" transform="rotate(-90,573.5,480.5)"/><rect x="589" y="465" width="31" height="31" transform="rotate(0,604.5,480.5)"/><path d="M 620 465v 31h 31v -15.5a 15.5 15.5, 0, 0, 0, -15.5 -15.5" transform="rotate(90,635.5,480.5)"/><path d="M 682 465v 31h 31v -15.5a 15.5 15.5, 0, 0, 0, -15.5 -15.5" transform="rotate(-90,697.5,480.5)"/><rect x="713" y="465" width="31" height="31" transform="rotate(0,728.5,480.5)"/><circle cx="790.5" cy="480.5" r="15.5" transform="rotate(0,790.5,480.5)"/><path d="M 837 465v 31h 15.5a 15.5 15.5, 0, 0, 0, 0 -31" transform="rotate(90,852.5,480.5)"/><circle cx="914.5" cy="480.5" r="15.5" transform="rotate(0,914.5,480.5)"/><path d="M 992 465v 31h 15.5a 15.5 15.5, 0, 0, 0, 0 -31" transform="rotate(90,1007.5,480.5)"/><path d="M 0 496v 31h 15.5a 15.5 15.5, 0, 0, 0, 0 -31" transform="rotate(180,15.5,511.5)"/><path d="M 31 496v 31h 31v -15.5a 15.5 15.5, 0, 0, 0, -15.5 -15.5" transform="rotate(0,46.5,511.5)"/><rect x="93" y="496" width="31" height="31" transform="rotate(0,108.5,511.5)"/><path d="M 186 496v 31h 15.5a 15.5 15.5, 0, 0, 0, 0 -31" transform="rotate(180,201.5,511.5)"/><rect x="217" y="496" width="31" height="31" transform="rotate(0,232.5,511.5)"/><path d="M 248 496v 31h 15.5a 15.5 15.5, 0, 0, 0, 0 -31" transform="rotate(0,263.5,511.5)"/><rect x="341" y="496" width="31" height="31" transform="rotate(0,356.5,511.5)"/><path d="M 372 496v 31h 31v -15.5a 15.5 15.5, 0, 0, 0, -15.5 -15.5" transform="rotate(90,387.5,511.5)"/><path d="M 434 496v 31h 31v -15.5a 15.5 15.5, 0, 0, 0, -15.5 -15.5" transform="rotate(180,449.5,511.5)"/><path d="M 465 496v 31h 15.5a 15.5 15.5, 0, 0, 0, 0 -31" transform="rotate(0,480.5,511.5)"/><path d="M 527 496v 31h 31v -15.5a 15.5 15.5, 0, 0, 0, -15.5 -15.5" transform="rotate(-90,542.5,511.5)"/><path d="M 558 496v 31h 31v -15.5a 15.5 15.5, 0, 0, 0, -15.5 -15.5" transform="rotate(90,573.5,511.5)"/><path d="M 682 496v 31h 31v -15.5a 15.5 15.5, 0, 0, 0, -15.5 -15.5" transform="rotate(180,697.5,511.5)"/><rect x="713" y="496" width="31" height="31" transform="rotate(0,728.5,511.5)"/><path d="M 806 496v 31h 15.5a 15.5 15.5, 0, 0, 0, 0 -31" transform="rotate(-90,821.5,511.5)"/><path d="M 31 527v 31h 15.5a 15.5 15.5, 0, 0, 0, 0 -31" transform="rotate(90,46.5,542.5)"/><rect x="93" y="527" width="31" height="31" transform="rotate(0,108.5,542.5)"/><rect x="217" y="527" width="31" height="31" transform="rotate(0,232.5,542.5)"/><path d="M 310 527v 31h 15.5a 15.5 15.5, 0, 0, 0, 0 -31" transform="rotate(180,325.5,542.5)"/><path d="M 341 527v 31h 31v -15.5a 15.5 15.5, 0, 0, 0, -15.5 -15.5" transform="rotate(90,356.5,542.5)"/><path d="M 403 527v 31h 15.5a 15.5 15.5, 0, 0, 0, 0 -31" transform="rotate(-90,418.5,542.5)"/><rect x="527" y="527" width="31" height="31" transform="rotate(0,542.5,542.5)"/><path d="M 620 527v 31h 15.5a 15.5 15.5, 0, 0, 0, 0 -31" transform="rotate(-90,635.5,542.5)"/><rect x="713" y="527" width="31" height="31" transform="rotate(0,728.5,542.5)"/><path d="M 775 527v 31h 31v -15.5a 15.5 15.5, 0, 0, 0, -15.5 -15.5" transform="rotate(-90,790.5,542.5)"/><rect x="806" y="527" width="31" height="31" transform="rotate(0,821.5,542.5)"/><path d="M 837 527v 31h 31v -15.5a 15.5 15.5, 0, 0, 0, -15.5 -15.5" transform="rotate(0,852.5,542.5)"/><path d="M 930 527v 31h 31v -15.5a 15.5 15.5, 0, 0, 0, -15.5 -15.5" transform="rotate(-90,945.5,542.5)"/><rect x="961" y="527" width="31" height="31" transform="rotate(0,976.5,542.5)"/><path d="M 992 527v 31h 31v -15.5a 15.5 15.5, 0, 0, 0, -15.5 -15.5" transform="rotate(0,1007.5,542.5)"/><path d="M 0 558v 31h 15.5a 15.5 15.5, 0, 0, 0, 0 -31" transform="rotate(-90,15.5,573.5)"/><rect x="93" y="558" width="31" height="31" transform="rotate(0,108.5,573.5)"/><path d="M 124 558v 31h 31v -15.5a 15.5 15.5, 0, 0, 0, -15.5 -15.5" transform="rotate(0,139.5,573.5)"/><path d="M 186 558v 31h 15.5a 15.5 15.5, 0, 0, 0, 0 -31" transform="rotate(180,201.5,573.5)"/><rect x="217" y="558" width="31" height="31" transform="rotate(0,232.5,573.5)"/><rect x="248" y="558" width="31" height="31" transform="rotate(0,263.5,573.5)"/><path d="M 279 558v 31h 15.5a 15.5 15.5, 0, 0, 0, 0 -31" transform="rotate(0,294.5,573.5)"/><path d="M 372 558v 31h 15.5a 15.5 15.5, 0, 0, 0, 0 -31" transform="rotate(180,387.5,573.5)"/><rect x="403" y="558" width="31" height="31" transform="rotate(0,418.5,573.5)"/><path d="M 434 558v 31h 15.5a 15.5 15.5, 0, 0, 0, 0 -31" transform="rotate(0,449.5,573.5)"/><path d="M 496 558v 31h 15.5a 15.5 15.5, 0, 0, 0, 0 -31" transform="rotate(180,511.5,573.5)"/><rect x="527" y="558" width="31" height="31" transform="rotate(0,542.5,573.5)"/><rect x="558" y="558" width="31" height="31" transform="rotate(0,573.5,573.5)"/><rect x="589" y="558" width="31" height="31" transform="rotate(0,604.5,573.5)"/><path d="M 620 558v 31h 31v -15.5a 15.5 15.5, 0, 0, 0, -15.5 -15.5" transform="rotate(90,635.5,573.5)"/><path d="M 682 558v 31h 31v -15.5a 15.5 15.5, 0, 0, 0, -15.5 -15.5" transform="rotate(-90,697.5,573.5)"/><rect x="713" y="558" width="31" height="31" transform="rotate(0,728.5,573.5)"/><rect x="775" y="558" width="31" height="31" transform="rotate(0,790.5,573.5)"/><rect x="837" y="558" width="31" height="31" transform="rotate(0,852.5,573.5)"/><rect x="868" y="558" width="31" height="31" transform="rotate(0,883.5,573.5)"/><rect x="899" y="558" width="31" height="31" transform="rotate(0,914.5,573.5)"/><path d="M 930 558v 31h 31v -15.5a 15.5 15.5, 0, 0, 0, -15.5 -15.5" transform="rotate(90,945.5,573.5)"/><rect x="992" y="558" width="31" height="31" transform="rotate(0,1007.5,573.5)"/><rect x="0" y="589" width="31" height="31" transform="rotate(0,15.5,604.5)"/><rect x="31" y="589" width="31" height="31" transform="rotate(0,46.5,604.5)"/><rect x="62" y="589" width="31" height="31" transform="rotate(0,77.5,604.5)"/><rect x="93" y="589" width="31" height="31" transform="rotate(0,108.5,604.5)"/><rect x="124" y="589" width="31" height="31" transform="rotate(0,139.5,604.5)"/><circle cx="356.5" cy="604.5" r="15.5" transform="rotate(0,356.5,604.5)"/><path d="M 527 589v 31h 31v -15.5a 15.5 15.5, 0, 0, 0, -15.5 -15.5" transform="rotate(180,542.5,604.5)"/><rect x="558" y="589" width="31" height="31" transform="rotate(0,573.5,604.5)"/><rect x="589" y="589" width="31" height="31" transform="rotate(0,604.5,604.5)"/><path d="M 682 589v 31h 31v -15.5a 15.5 15.5, 0, 0, 0, -15.5 -15.5" transform="rotate(180,697.5,604.5)"/><rect x="713" y="589" width="31" height="31" transform="rotate(0,728.5,604.5)"/><rect x="775" y="589" width="31" height="31" transform="rotate(0,790.5,604.5)"/><rect x="837" y="589" width="31" height="31" transform="rotate(0,852.5,604.5)"/><path d="M 899 589v 31h 15.5a 15.5 15.5, 0, 0, 0, 0 -31" transform="rotate(90,914.5,604.5)"/><path d="M 961 589v 31h 15.5a 15.5 15.5, 0, 0, 0, 0 -31" transform="rotate(180,976.5,604.5)"/><path d="M 992 589v 31h 31v -15.5a 15.5 15.5, 0, 0, 0, -15.5 -15.5" transform="rotate(90,1007.5,604.5)"/><path d="M 0 620v 31h 15.5a 15.5 15.5, 0, 0, 0, 0 -31" transform="rotate(90,15.5,635.5)"/><rect x="124" y="620" width="31" height="31" transform="rotate(0,139.5,635.5)"/><circle cx="201.5" cy="635.5" r="15.5" transform="rotate(0,201.5,635.5)"/><path d="M 248 620v 31h 15.5a 15.5 15.5, 0, 0, 0, 0 -31" transform="rotate(-90,263.5,635.5)"/><circle cx="325.5" cy="635.5" r="15.5" transform="rotate(0,325.5,635.5)"/><path d="M 434 620v 31h 15.5a 15.5 15.5, 0, 0, 0, 0 -31" transform="rotate(-90,449.5,635.5)"/><path d="M 496 620v 31h 15.5a 15.5 15.5, 0, 0, 0, 0 -31" transform="rotate(-90,511.5,635.5)"/><rect x="558" y="620" width="31" height="31" transform="rotate(0,573.5,635.5)"/><rect x="589" y="620" width="31" height="31" transform="rotate(0,604.5,635.5)"/><path d="M 620 620v 31h 15.5a 15.5 15.5, 0, 0, 0, 0 -31" transform="rotate(0,635.5,635.5)"/><path d="M 713 620v 31h 31v -15.5a 15.5 15.5, 0, 0, 0, -15.5 -15.5" transform="rotate(180,728.5,635.5)"/><rect x="744" y="620" width="31" height="31" transform="rotate(0,759.5,635.5)"/><rect x="775" y="620" width="31" height="31" transform="rotate(0,790.5,635.5)"/><rect x="806" y="620" width="31" height="31" transform="rotate(0,821.5,635.5)"/><rect x="837" y="620" width="31" height="31" transform="rotate(0,852.5,635.5)"/><path d="M 31 651v 31h 31v -15.5a 15.5 15.5, 0, 0, 0, -15.5 -15.5" transform="rotate(-90,46.5,666.5)"/><rect x="62" y="651" width="31" height="31" transform="rotate(0,77.5,666.5)"/><rect x="93" y="651" width="31" height="31" transform="rotate(0,108.5,666.5)"/><rect x="124" y="651" width="31" height="31" transform="rotate(0,139.5,666.5)"/><path d="M 155 651v 31h 15.5a 15.5 15.5, 0, 0, 0, 0 -31" transform="rotate(0,170.5,666.5)"/><rect x="248" y="651" width="31" height="31" transform="rotate(0,263.5,666.5)"/><path d="M 279 651v 31h 15.5a 15.5 15.5, 0, 0, 0, 0 -31" transform="rotate(0,294.5,666.5)"/><path d="M 403 651v 31h 31v -15.5a 15.5 15.5, 0, 0, 0, -15.5 -15.5" transform="rotate(-90,418.5,666.5)"/><path d="M 434 651v 31h 31v -15.5a 15.5 15.5, 0, 0, 0, -15.5 -15.5" transform="rotate(90,449.5,666.5)"/><path d="M 496 651v 31h 15.5a 15.5 15.5, 0, 0, 0, 0 -31" transform="rotate(90,511.5,666.5)"/><path d="M 558 651v 31h 31v -15.5a 15.5 15.5, 0, 0, 0, -15.5 -15.5" transform="rotate(180,573.5,666.5)"/><rect x="589" y="651" width="31" height="31" transform="rotate(0,604.5,666.5)"/><rect x="744" y="651" width="31" height="31" transform="rotate(0,759.5,666.5)"/><rect x="837" y="651" width="31" height="31" transform="rotate(0,852.5,666.5)"/><path d="M 930 651v 31h 15.5a 15.5 15.5, 0, 0, 0, 0 -31" transform="rotate(-90,945.5,666.5)"/><path d="M 992 651v 31h 15.5a 15.5 15.5, 0, 0, 0, 0 -31" transform="rotate(-90,1007.5,666.5)"/><path d="M 0 682v 31h 15.5a 15.5 15.5, 0, 0, 0, 0 -31" transform="rotate(180,15.5,697.5)"/><path d="M 31 682v 31h 31v -15.5a 15.5 15.5, 0, 0, 0, -15.5 -15.5" transform="rotate(90,46.5,697.5)"/><path d="M 186 682v 31h 15.5a 15.5 15.5, 0, 0, 0, 0 -31" transform="rotate(180,201.5,697.5)"/><rect x="217" y="682" width="31" height="31" transform="rotate(0,232.5,697.5)"/><rect x="248" y="682" width="31" height="31" transform="rotate(0,263.5,697.5)"/><path d="M 310 682v 31h 15.5a 15.5 15.5, 0, 0, 0, 0 -31" transform="rotate(-90,325.5,697.5)"/><path d="M 403 682v 31h 15.5a 15.5 15.5, 0, 0, 0, 0 -31" transform="rotate(90,418.5,697.5)"/><path d="M 589 682v 31h 31v -15.5a 15.5 15.5, 0, 0, 0, -15.5 -15.5" transform="rotate(180,604.5,697.5)"/><path d="M 620 682v 31h 31v -15.5a 15.5 15.5, 0, 0, 0, -15.5 -15.5" transform="rotate(0,635.5,697.5)"/><rect x="744" y="682" width="31" height="31" transform="rotate(0,759.5,697.5)"/><rect x="775" y="682" width="31" height="31" transform="rotate(0,790.5,697.5)"/><rect x="806" y="682" width="31" height="31" transform="rotate(0,821.5,697.5)"/><rect x="837" y="682" width="31" height="31" transform="rotate(0,852.5,697.5)"/><path d="M 868 682v 31h 15.5a 15.5 15.5, 0, 0, 0, 0 -31" transform="rotate(0,883.5,697.5)"/><path d="M 930 682v 31h 15.5a 15.5 15.5, 0, 0, 0, 0 -31" transform="rotate(90,945.5,697.5)"/><rect x="992" y="682" width="31" height="31" transform="rotate(0,1007.5,697.5)"/><path d="M 62 713v 31h 15.5a 15.5 15.5, 0, 0, 0, 0 -31" transform="rotate(-90,77.5,728.5)"/><path d="M 248 713v 31h 15.5a 15.5 15.5, 0, 0, 0, 0 -31" transform="rotate(90,263.5,728.5)"/><rect x="310" y="713" width="31" height="31" transform="rotate(0,325.5,728.5)"/><rect x="341" y="713" width="31" height="31" transform="rotate(0,356.5,728.5)"/><path d="M 372 713v 31h 31v -15.5a 15.5 15.5, 0, 0, 0, -15.5 -15.5" transform="rotate(0,387.5,728.5)"/><circle cx="480.5" cy="728.5" r="15.5" transform="rotate(0,480.5,728.5)"/><path d="M 558 713v 31h 15.5a 15.5 15.5, 0, 0, 0, 0 -31" transform="rotate(-90,573.5,728.5)"/><rect x="620" y="713" width="31" height="31" transform="rotate(0,635.5,728.5)"/><path d="M 682 713v 31h 31v -15.5a 15.5 15.5, 0, 0, 0, -15.5 -15.5" transform="rotate(-90,697.5,728.5)"/><rect x="713" y="713" width="31" height="31" transform="rotate(0,728.5,728.5)"/><rect x="744" y="713" width="31" height="31" transform="rotate(0,759.5,728.5)"/><rect x="837" y="713" width="31" height="31" transform="rotate(0,852.5,728.5)"/><circle cx="914.5" cy="728.5" r="15.5" transform="rotate(0,914.5,728.5)"/><path d="M 961 713v 31h 15.5a 15.5 15.5, 0, 0, 0, 0 -31" transform="rotate(180,976.5,728.5)"/><path d="M 992 713v 31h 31v -15.5a 15.5 15.5, 0, 0, 0, -15.5 -15.5" transform="rotate(90,1007.5,728.5)"/><path d="M 0 744v 31h 15.5a 15.5 15.5, 0, 0, 0, 0 -31" transform="rotate(180,15.5,759.5)"/><rect x="31" y="744" width="31" height="31" transform="rotate(0,46.5,759.5)"/><path d="M 62 744v 31h 31v -15.5a 15.5 15.5, 0, 0, 0, -15.5 -15.5" transform="rotate(90,77.5,759.5)"/><circle cx="139.5" cy="759.5" r="15.5" transform="rotate(0,139.5,759.5)"/><circle cx="201.5" cy="759.5" r="15.5" transform="rotate(0,201.5,759.5)"/><path d="M 279 744v 31h 15.5a 15.5 15.5, 0, 0, 0, 0 -31" transform="rotate(180,294.5,759.5)"/><rect x="310" y="744" width="31" height="31" transform="rotate(0,325.5,759.5)"/><rect x="341" y="744" width="31" height="31" transform="rotate(0,356.5,759.5)"/><rect x="372" y="744" width="31" height="31" transform="rotate(0,387.5,759.5)"/><path d="M 403 744v 31h 31v -15.5a 15.5 15.5, 0, 0, 0, -15.5 -15.5" transform="rotate(0,418.5,759.5)"/><path d="M 496 744v 31h 15.5a 15.5 15.5, 0, 0, 0, 0 -31" transform="rotate(180,511.5,759.5)"/><rect x="527" y="744" width="31" height="31" transform="rotate(0,542.5,759.5)"/><rect x="558" y="744" width="31" height="31" transform="rotate(0,573.5,759.5)"/><rect x="589" y="744" width="31" height="31" transform="rotate(0,604.5,759.5)"/><rect x="620" y="744" width="31" height="31" transform="rotate(0,635.5,759.5)"/><path d="M 682 744v 31h 15.5a 15.5 15.5, 0, 0, 0, 0 -31" transform="rotate(90,697.5,759.5)"/><rect x="744" y="744" width="31" height="31" transform="rotate(0,759.5,759.5)"/><rect x="775" y="744" width="31" height="31" transform="rotate(0,790.5,759.5)"/><rect x="806" y="744" width="31" height="31" transform="rotate(0,821.5,759.5)"/><rect x="837" y="744" width="31" height="31" transform="rotate(0,852.5,759.5)"/><path d="M 868 744v 31h 31v -15.5a 15.5 15.5, 0, 0, 0, -15.5 -15.5" transform="rotate(0,883.5,759.5)"/><path d="M 248 775v 31h 15.5a 15.5 15.5, 0, 0, 0, 0 -31" transform="rotate(-90,263.5,790.5)"/><path d="M 310 775v 31h 15.5a 15.5 15.5, 0, 0, 0, 0 -31" transform="rotate(90,325.5,790.5)"/><path d="M 403 775v 31h 15.5a 15.5 15.5, 0, 0, 0, 0 -31" transform="rotate(90,418.5,790.5)"/><path d="M 527 775v 31h 15.5a 15.5 15.5, 0, 0, 0, 0 -31" transform="rotate(90,542.5,790.5)"/><path d="M 589 775v 31h 31v -15.5a 15.5 15.5, 0, 0, 0, -15.5 -15.5" transform="rotate(180,604.5,790.5)"/><path d="M 620 775v 31h 31v -15.5a 15.5 15.5, 0, 0, 0, -15.5 -15.5" transform="rotate(90,635.5,790.5)"/><rect x="744" y="775" width="31" height="31" transform="rotate(0,759.5,790.5)"/><rect x="868" y="775" width="31" height="31" transform="rotate(0,883.5,790.5)"/><rect x="899" y="775" width="31" height="31" transform="rotate(0,914.5,790.5)"/><path d="M 930 775v 31h 15.5a 15.5 15.5, 0, 0, 0, 0 -31" transform="rotate(0,945.5,790.5)"/><path d="M 992 775v 31h 15.5a 15.5 15.5, 0, 0, 0, 0 -31" transform="rotate(-90,1007.5,790.5)"/><rect x="248" y="806" width="31" height="31" transform="rotate(0,263.5,821.5)"/><circle cx="356.5" cy="821.5" r="15.5" transform="rotate(0,356.5,821.5)"/><circle cx="449.5" cy="821.5" r="15.5" transform="rotate(0,449.5,821.5)"/><circle cx="573.5" cy="821.5" r="15.5" transform="rotate(0,573.5,821.5)"/><path d="M 651 806v 31h 15.5a 15.5 15.5, 0, 0, 0, 0 -31" transform="rotate(180,666.5,821.5)"/><path d="M 682 806v 31h 31v -15.5a 15.5 15.5, 0, 0, 0, -15.5 -15.5" transform="rotate(0,697.5,821.5)"/><rect x="744" y="806" width="31" height="31" transform="rotate(0,759.5,821.5)"/><circle cx="821.5" cy="821.5" r="15.5" transform="rotate(0,821.5,821.5)"/><rect x="868" y="806" width="31" height="31" transform="rotate(0,883.5,821.5)"/><rect x="992" y="806" width="31" height="31" transform="rotate(0,1007.5,821.5)"/><path d="M 248 837v 31h 15.5a 15.5 15.5, 0, 0, 0, 0 -31" transform="rotate(90,263.5,852.5)"/><circle cx="511.5" cy="852.5" r="15.5" transform="rotate(0,511.5,852.5)"/><path d="M 620 837v 31h 15.5a 15.5 15.5, 0, 0, 0, 0 -31" transform="rotate(-90,635.5,852.5)"/><rect x="682" y="837" width="31" height="31" transform="rotate(0,697.5,852.5)"/><rect x="713" y="837" width="31" height="31" transform="rotate(0,728.5,852.5)"/><rect x="744" y="837" width="31" height="31" transform="rotate(0,759.5,852.5)"/><rect x="868" y="837" width="31" height="31" transform="rotate(0,883.5,852.5)"/><path d="M 899 837v 31h 15.5a 15.5 15.5, 0, 0, 0, 0 -31" transform="rotate(0,914.5,852.5)"/><path d="M 961 837v 31h 15.5a 15.5 15.5, 0, 0, 0, 0 -31" transform="rotate(180,976.5,852.5)"/><path d="M 992 837v 31h 31v -15.5a 15.5 15.5, 0, 0, 0, -15.5 -15.5" transform="rotate(90,1007.5,852.5)"/><circle cx="294.5" cy="883.5" r="15.5" transform="rotate(0,294.5,883.5)"/><path d="M 403 868v 31h 15.5a 15.5 15.5, 0, 0, 0, 0 -31" transform="rotate(-90,418.5,883.5)"/><circle cx="480.5" cy="883.5" r="15.5" transform="rotate(0,480.5,883.5)"/><path d="M 527 868v 31h 31v -15.5a 15.5 15.5, 0, 0, 0, -15.5 -15.5" transform="rotate(-90,542.5,883.5)"/><path d="M 558 868v 31h 15.5a 15.5 15.5, 0, 0, 0, 0 -31" transform="rotate(0,573.5,883.5)"/><path d="M 620 868v 31h 31v -15.5a 15.5 15.5, 0, 0, 0, -15.5 -15.5" transform="rotate(180,635.5,883.5)"/><rect x="651" y="868" width="31" height="31" transform="rotate(0,666.5,883.5)"/><rect x="682" y="868" width="31" height="31" transform="rotate(0,697.5,883.5)"/><rect x="713" y="868" width="31" height="31" transform="rotate(0,728.5,883.5)"/><rect x="744" y="868" width="31" height="31" transform="rotate(0,759.5,883.5)"/><rect x="775" y="868" width="31" height="31" transform="rotate(0,790.5,883.5)"/><rect x="806" y="868" width="31" height="31" transform="rotate(0,821.5,883.5)"/><rect x="837" y="868" width="31" height="31" transform="rotate(0,852.5,883.5)"/><rect x="868" y="868" width="31" height="31" transform="rotate(0,883.5,883.5)"/><path d="M 341 899v 31h 15.5a 15.5 15.5, 0, 0, 0, 0 -31" transform="rotate(-90,356.5,914.5)"/><path d="M 403 899v 31h 15.5a 15.5 15.5, 0, 0, 0, 0 -31" transform="rotate(90,418.5,914.5)"/><path d="M 496 899v 31h 15.5a 15.5 15.5, 0, 0, 0, 0 -31" transform="rotate(180,511.5,914.5)"/><path d="M 527 899v 31h 31v -15.5a 15.5 15.5, 0, 0, 0, -15.5 -15.5" transform="rotate(90,542.5,914.5)"/><path d="M 589 899v 31h 15.5a 15.5 15.5, 0, 0, 0, 0 -31" transform="rotate(-90,604.5,914.5)"/><rect x="651" y="899" width="31" height="31" transform="rotate(0,666.5,914.5)"/><rect x="682" y="899" width="31" height="31" transform="rotate(0,697.5,914.5)"/><rect x="744" y="899" width="31" height="31" transform="rotate(0,759.5,914.5)"/><path d="M 775 899v 31h 31v -15.5a 15.5 15.5, 0, 0, 0, -15.5 -15.5" transform="rotate(90,790.5,914.5)"/><path d="M 837 899v 31h 31v -15.5a 15.5 15.5, 0, 0, 0, -15.5 -15.5" transform="rotate(180,852.5,914.5)"/><rect x="868" y="899" width="31" height="31" transform="rotate(0,883.5,914.5)"/><path d="M 961 899v 31h 15.5a 15.5 15.5, 0, 0, 0, 0 -31" transform="rotate(-90,976.5,914.5)"/><circle cx="263.5" cy="945.5" r="15.5" transform="rotate(0,263.5,945.5)"/><path d="M 341 930v 31h 15.5a 15.5 15.5, 0, 0, 0, 0 -31" transform="rotate(90,356.5,945.5)"/><circle cx="480.5" cy="945.5" r="15.5" transform="rotate(0,480.5,945.5)"/><rect x="589" y="930" width="31" height="31" transform="rotate(0,604.5,945.5)"/><path d="M 651 930v 31h 31v -15.5a 15.5 15.5, 0, 0, 0, -15.5 -15.5" transform="rotate(180,666.5,945.5)"/><rect x="682" y="930" width="31" height="31" transform="rotate(0,697.5,945.5)"/><rect x="713" y="930" width="31" height="31" transform="rotate(0,728.5,945.5)"/><rect x="744" y="930" width="31" height="31" transform="rotate(0,759.5,945.5)"/><path d="M 868 930v 31h 31v -15.5a 15.5 15.5, 0, 0, 0, -15.5 -15.5" transform="rotate(180,883.5,945.5)"/><path d="M 899 930v 31h 31v -15.5a 15.5 15.5, 0, 0, 0, -15.5 -15.5" transform="rotate(0,914.5,945.5)"/><path d="M 961 930v 31h 31v -15.5a 15.5 15.5, 0, 0, 0, -15.5 -15.5" transform="rotate(180,976.5,945.5)"/><path d="M 992 930v 31h 15.5a 15.5 15.5, 0, 0, 0, 0 -31" transform="rotate(0,1007.5,945.5)"/><path d="M 279 961v 31h 15.5a 15.5 15.5, 0, 0, 0, 0 -31" transform="rotate(180,294.5,976.5)"/><path d="M 310 961v 31h 31v -15.5a 15.5 15.5, 0, 0, 0, -15.5 -15.5" transform="rotate(0,325.5,976.5)"/><path d="M 372 961v 31h 15.5a 15.5 15.5, 0, 0, 0, 0 -31" transform="rotate(-90,387.5,976.5)"/><path d="M 527 961v 31h 15.5a 15.5 15.5, 0, 0, 0, 0 -31" transform="rotate(180,542.5,976.5)"/><rect x="558" y="961" width="31" height="31" transform="rotate(0,573.5,976.5)"/><rect x="589" y="961" width="31" height="31" transform="rotate(0,604.5,976.5)"/><path d="M 620 961v 31h 31v -15.5a 15.5 15.5, 0, 0, 0, -15.5 -15.5" transform="rotate(0,635.5,976.5)"/><rect x="744" y="961" width="31" height="31" transform="rotate(0,759.5,976.5)"/><path d="M 775 961v 31h 15.5a 15.5 15.5, 0, 0, 0, 0 -31" transform="rotate(0,790.5,976.5)"/><path d="M 899 961v 31h 15.5a 15.5 15.5, 0, 0, 0, 0 -31" transform="rotate(90,914.5,976.5)"/><path d="M 310 992v 31h 15.5a 15.5 15.5, 0, 0, 0, 0 -31" transform="rotate(90,325.5,1007.5)"/><path d="M 372 992v 31h 15.5a 15.5 15.5, 0, 0, 0, 0 -31" transform="rotate(90,387.5,1007.5)"/><path d="M 434 992v 31h 15.5a 15.5 15.5, 0, 0, 0, 0 -31" transform="rotate(180,449.5,1007.5)"/><path d="M 465 992v 31h 15.5a 15.5 15.5, 0, 0, 0, 0 -31" transform="rotate(0,480.5,1007.5)"/><path d="M 589 992v 31h 31v -15.5a 15.5 15.5, 0, 0, 0, -15.5 -15.5" transform="rotate(180,604.5,1007.5)"/><rect x="620" y="992" width="31" height="31" transform="rotate(0,635.5,1007.5)"/><rect x="651" y="992" width="31" height="31" transform="rotate(0,666.5,1007.5)"/><path d="M 682 992v 31h 15.5a 15.5 15.5, 0, 0, 0, 0 -31" transform="rotate(0,697.5,1007.5)"/><path d="M 744 992v 31h 15.5a 15.5 15.5, 0, 0, 0, 0 -31" transform="rotate(90,759.5,1007.5)"/><circle cx="821.5" cy="1007.5" r="15.5" transform="rotate(0,821.5,1007.5)"/><circle cx="883.5" cy="1007.5" r="15.5" transform="rotate(0,883.5,1007.5)"/><circle cx="1007.5" cy="1007.5" r="15.5" transform="rotate(0,1007.5,1007.5)"/></clipPath><clipPath id="clip-path-corners-square-color-0-0-0"><path clip-rule="evenodd" d="M 0 77.5v 62a 77.5 77.5, 0, 0, 0, 77.5 77.5h 62a 77.5 77.5, 0, 0, 0, 77.5 -77.5v -62a 77.5 77.5, 0, 0, 0, -77.5 -77.5h -62a 77.5 77.5, 0, 0, 0, -77.5 77.5M 77.5 31h 62a 46.5 46.5, 0, 0, 1, 46.5 46.5v 62a 46.5 46.5, 0, 0, 1, -46.5 46.5h -62a 46.5 46.5, 0, 0, 1, -46.5 -46.5v -62a 46.5 46.5, 0, 0, 1, 46.5 -46.5" transform="rotate(0,108.5,108.5)"/></clipPath><clipPath id="clip-path-corners-dot-color-0-0-0"><circle cx="108.5" cy="108.5" r="46.5" transform="rotate(0,108.5,108.5)"/></clipPath><clipPath id="clip-path-corners-square-color-1-0-0"><path clip-rule="evenodd" d="M 806 77.5v 62a 77.5 77.5, 0, 0, 0, 77.5 77.5h 62a 77.5 77.5, 0, 0, 0, 77.5 -77.5v -62a 77.5 77.5, 0, 0, 0, -77.5 -77.5h -62a 77.5 77.5, 0, 0, 0, -77.5 77.5M 883.5 31h 62a 46.5 46.5, 0, 0, 1, 46.5 46.5v 62a 46.5 46.5, 0, 0, 1, -46.5 46.5h -62a 46.5 46.5, 0, 0, 1, -46.5 -46.5v -62a 46.5 46.5, 0, 0, 1, 46.5 -46.5" transform="rotate(90,914.5,108.5)"/></clipPath><clipPath id="clip-path-corners-dot-color-1-0-0"><circle cx="914.5" cy="108.5" r="46.5" transform="rotate(90,914.5,108.5)"/></clipPath><clipPath id="clip-path-corners-square-color-0-1-0"><path clip-rule="evenodd" d="M 0 883.5v 62a 77.5 77.5, 0, 0, 0, 77.5 77.5h 62a 77.5 77.5, 0, 0, 0, 77.5 -77.5v -62a 77.5 77.5, 0, 0, 0, -77.5 -77.5h -62a 77.5 77.5, 0, 0, 0, -77.5 77.5M 77.5 837h 62a 46.5 46.5, 0, 0, 1, 46.5 46.5v 62a 46.5 46.5, 0, 0, 1, -46.5 46.5h -62a 46.5 46.5, 0, 0, 1, -46.5 -46.5v -62a 46.5 46.5, 0, 0, 1, 46.5 -46.5" transform="rotate(-90,108.5,914.5)"/></clipPath><clipPath id="clip-path-corners-dot-color-0-1-0"><circle cx="108.5" cy="914.5" r="46.5" transform="rotate(-90,108.5,914.5)"/></clipPath></defs><rect x="0" y="0" height="1024" width="1024" clip-path="url('#clip-path-background-color-0')" fill="#000000"/><rect x="0" y="0" height="1024" width="1024" clip-path="url('#clip-path-dot-color-0')" fill="#FFFFFF"/><rect x="0" y="0" height="217" width="217" clip-path="url('#clip-path-corners-square-color-0-0-0')" fill="#FFFFFF"/><rect x="62" y="62" height="93" width="93" clip-path="url('#clip-path-corners-dot-color-0-0-0')" fill="#FFFFFF"/><rect x="806" y="0" height="217" width="217" clip-path="url('#clip-path-corners-square-color-1-0-0')" fill="#FFFFFF"/><rect x="868" y="62" height="93" width="93" clip-path="url('#clip-path-corners-dot-color-1-0-0')" fill="#FFFFFF"/><rect x="0" y="806" height="217" width="217" clip-path="url('#clip-path-corners-square-color-0-1-0')" fill="#FFFFFF"/><rect x="62" y="868" height="93" width="93" clip-path="url('#clip-path-corners-dot-color-0-1-0')" fill="#FFFFFF"/></svg>