<?xml version="1.0" standalone="no"?>
<svg xmlns="http://www.w3.org/2000/svg" width="1024" height="1024" xmlns:xlink="http://www.w3.org/1999/xlink" viewBox="0 0 1024 1024"><defs><clipPath id="clip-path-background-color-0"><rect x="0" y="0" width="1024" height="1024"/></clipPath><clipPath id="clip-path-dot-color-0"><path d="M 408 178v 23h 23v -11.5a 11.5 11.5, 0, 0, 0, -11.5 -11.5" transform="rotate(-90,419.5,189.5)"/><rect x="431" y="178" width="23" height="23" transform="rotate(0,442.5,189.5)"/><path d="M 454 178v 23h 11.5a 11.5 11.5, 0, 0, 0, 0 -23" transform="rotate(0,465.5,189.5)"/><path d="M 500 178v 23h 23v -11.5a 11.5 11.5, 0, 0, 0, -11.5 -11.5" transform="rotate(-90,511.5,189.5)"/><path d="M 523 178v 23h 23v -11.5a 11.5 11.5, 0, 0, 0, -11.5 -11.5" transform="rotate(0,534.5,189.5)"/><path d="M 615 178v 23h 11.5a 11.5 11.5, 0, 0, 0, 0 -23" transform="rotate(180,626.5,189.5)"/><path d="M 638 178v 23h 11.5a 11.5 11.5, 0, 0, 0, 0 -23" transform="rotate(0,649.5,189.5)"/><path d="M 362 201v 23h 23v -11.5a 11.5 11.5, 0, 0, 0, -11.5 -11.5" transform="rotate(-90,373.5,212.5)"/><rect x="385" y="201" width="23" height="23" transform="rotate(0,396.5,212.5)"/><rect x="408" y="201" width="23" height="23" transform="rotate(0,419.5,212.5)"/><rect x="431" y="201" width="23" height="23" transform="rotate(0,442.5,212.5)"/><rect x="500" y="201" width="23" height="23" transform="rotate(0,511.5,212.5)"/><rect x="523" y="201" width="23" height="23" transform="rotate(0,534.5,212.5)"/><path d="M 569 201v 23h 11.5a 11.5 11.5, 0, 0, 0, 0 -23" transform="rotate(180,580.5,212.5)"/><path d="M 592 201v 23h 11.5a 11.5 11.5, 0, 0, 0, 0 -23" transform="rotate(0,603.5,212.5)"/><path d="M 362 224v 23h 23v -11.5a 11.5 11.5, 0, 0, 0, -11.5 -11.5" transform="rotate(180,373.5,235.5)"/><rect x="385" y="224" width="23" height="23" transform="rotate(0,396.5,235.5)"/><rect x="408" y="224" width="23" height="23" transform="rotate(0,419.5,235.5)"/><rect x="431" y="224" width="23" height="23" transform="rotate(0,442.5,235.5)"/><path d="M 477 224v 23h 11.5a 11.5 11.5, 0, 0, 0, 0 -23" transform="rotate(180,488.5,235.5)"/><rect x="500" y="224" width="23" height="23" transform="rotate(0,511.5,235.5)"/><path d="M 523 224v 23h 23v -11.5a 11.5 11.5, 0, 0, 0, -11.5 -11.5" transform="rotate(90,534.5,235.5)"/><circle cx="626.5" cy="235.5" r="11.5" transform="rotate(0,626.5,235.5)"/><rect x="385" y="247" width="23" height="23" transform="rotate(0,396.5,258.5)"/><path d="M 431 247v 23h 23v -11.5a 11.5 11.5, 0, 0, 0, -11.5 -11.5" transform="rotate(180,442.5,258.5)"/><path d="M 454 247v 23h 23v -11.5a 11.5 11.5, 0, 0, 0, -11.5 -11.5" transform="rotate(0,465.5,258.5)"/><path d="M 546 247v 23h 11.5a 11.5 11.5, 0, 0, 0, 0 -23" transform="rotate(180,557.5,258.5)"/><path d="M 569 247v 23h 23v -11.5a 11.5 11.5, 0, 0, 0, -11.5 -11.5" transform="rotate(0,580.5,258.5)"/><circle cx="649.5" cy="258.5" r="11.5" transform="rotate(0,649.5,258.5)"/><path d="M 385 270v 23h 23v -11.5a 11.5 11.5, 0, 0, 0, -11.5 -11.5" transform="rotate(180,396.5,281.5)"/><path d="M 408 270v 23h 11.5a 11.5 11.5, 0, 0, 0, 0 -23" transform="rotate(0,419.5,281.5)"/><path d="M 454 270v 23h 23v -11.5a 11.5 11.5, 0, 0, 0, -11.5 -11.5" transform="rotate(180,465.5,281.5)"/><path d="M 477 270v 23h 23v -11.5a 11.5 11.5, 0, 0, 0, -11.5 -11.5" transform="rotate(0,488.5,281.5)"/><circle cx="534.5" cy="281.5" r="11.5" transform="rotate(0,534.5,281.5)"/><rect x="569" y="270" width="23" height="23" transform="rotate(0,580.5,281.5)"/><path d="M 615 270v 23h 11.5a 11.5 11.5, 0, 0, 0, 0 -23" transform="rotate(-90,626.5,281.5)"/><circle cx="442.5" cy="304.5" r="11.5" transform="rotate(0,442.5,304.5)"/><path d="M 477 293v 23h 23v -11.5a 11.5 11.5, 0, 0, 0, -11.5 -11.5" transform="rotate(180,488.5,304.5)"/><path d="M 500 293v 23h 23v -11.5a 11.5 11.5, 0, 0, 0, -11.5 -11.5" transform="rotate(0,511.5,304.5)"/><path d="M 569 293v 23h 11.5a 11.5 11.5, 0, 0, 0, 0 -23" transform="rotate(90,580.5,304.5)"/><path d="M 615 293v 23h 23v -11.5a 11.5 11.5, 0, 0, 0, -11.5 -11.5" transform="rotate(180,626.5,304.5)"/><path d="M 638 293v 23h 23v -11.5a 11.5 11.5, 0, 0, 0, -11.5 -11.5" transform="rotate(0,649.5,304.5)"/><circle cx="373.5" cy="327.5" r="11.5" transform="rotate(0,373.5,327.5)"/><circle cx="419.5" cy="327.5" r="11.5" transform="rotate(0,419.5,327.5)"/><circle cx="465.5" cy="327.5" r="11.5" transform="rotate(0,465.5,327.5)"/><path d="M 500 316v 23h 11.5a 11.5 11.5, 0, 0, 0, 0 -23" transform="rotate(90,511.5,327.5)"/><circle cx="557.5" cy="327.5" r="11.5" transform="rotate(0,557.5,327.5)"/><circle cx="603.5" cy="327.5" r="11.5" transform="rotate(0,603.5,327.5)"/><rect x="638" y="316" width="23" height="23" transform="rotate(0,649.5,327.5)"/><circle cx="396.5" cy="350.5" r="11.5" transform="rotate(0,396.5,350.5)"/><circle cx="534.5" cy="350.5" r="11.5" transform="rotate(0,534.5,350.5)"/><path d="M 569 339v 23h 11.5a 11.5 11.5, 0, 0, 0, 0 -23" transform="rotate(-90,580.5,350.5)"/><rect x="638" y="339" width="23" height="23" transform="rotate(0,649.5,350.5)"/><path d="M 201 362v 23h 11.5a 11.5 11.5, 0, 0, 0, 0 -23" transform="rotate(180,212.5,373.5)"/><rect x="224" y="362" width="23" height="23" transform="rotate(0,235.5,373.5)"/><path d="M 247 362v 23h 23v -11.5a 11.5 11.5, 0, 0, 0, -11.5 -11.5" transform="rotate(0,258.5,373.5)"/><path d="M 293 362v 23h 23v -11.5a 11.5 11.5, 0, 0, 0, -11.5 -11.5" transform="rotate(-90,304.5,373.5)"/><path d="M 316 362v 23h 11.5a 11.5 11.5, 0, 0, 0, 0 -23" transform="rotate(0,327.5,373.5)"/><path d="M 408 362v 23h 11.5a 11.5 11.5, 0, 0, 0, 0 -23" transform="rotate(180,419.5,373.5)"/><path d="M 431 362v 23h 11.5a 11.5 11.5, 0, 0, 0, 0 -23" transform="rotate(0,442.5,373.5)"/><circle cx="511.5" cy="373.5" r="11.5" transform="rotate(0,511.5,373.5)"/><path d="M 546 362v 23h 23v -11.5a 11.5 11.5, 0, 0, 0, -11.5 -11.5" transform="rotate(-90,557.5,373.5)"/><rect x="569" y="362" width="23" height="23" transform="rotate(0,580.5,373.5)"/><path d="M 592 362v 23h 11.5a 11.5 11.5, 0, 0, 0, 0 -23" transform="rotate(0,603.5,373.5)"/><rect x="638" y="362" width="23" height="23" transform="rotate(0,649.5,373.5)"/><path d="M 776 362v 23h 23v -11.5a 11.5 11.5, 0, 0, 0, -11.5 -11.5" transform="rotate(-90,787.5,373.5)"/><path d="M 799 362v 23h 11.5a 11.5 11.5, 0, 0, 0, 0 -23" transform="rotate(0,810.5,373.5)"/><rect x="247" y="385" width="23" height="23" transform="rotate(0,258.5,396.5)"/><rect x="270" y="385" width="23" height="23" transform="rotate(0,281.5,396.5)"/><rect x="293" y="385" width="23" height="23" transform="rotate(0,304.5,396.5)"/><path d="M 339 385v 23h 11.5a 11.5 11.5, 0, 0, 0, 0 -23" transform="rotate(-90,350.5,396.5)"/><circle cx="396.5" cy="396.5" r="11.5" transform="rotate(0,396.5,396.5)"/><path d="M 454 385v 23h 23v -11.5a 11.5 11.5, 0, 0, 0, -11.5 -11.5" transform="rotate(-90,465.5,396.5)"/><path d="M 477 385v 23h 23v -11.5a 11.5 11.5, 0, 0, 0, -11.5 -11.5" transform="rotate(0,488.5,396.5)"/><rect x="546" y="385" width="23" height="23" transform="rotate(0,557.5,396.5)"/><rect x="569" y="385" width="23" height="23" transform="rotate(0,580.5,396.5)"/><path d="M 615 385v 23h 11.5a 11.5 11.5, 0, 0, 0, 0 -23" transform="rotate(180,626.5,396.5)"/><rect x="638" y="385" width="23" height="23" transform="rotate(0,649.5,396.5)"/><rect x="661" y="385" width="23" height="23" transform="rotate(0,672.5,396.5)"/><rect x="684" y="385" width="23" height="23" transform="rotate(0,695.5,396.5)"/><rect x="707" y="385" width="23" height="23" transform="rotate(0,718.5,396.5)"/><rect x="730" y="385" width="23" height="23" transform="rotate(0,741.5,396.5)"/><rect x="753" y="385" width="23" height="23" transform="rotate(0,764.5,396.5)"/><rect x="776" y="385" width="23" height="23" transform="rotate(0,787.5,396.5)"/><circle cx="833.5" cy="396.5" r="11.5" transform="rotate(0,833.5,396.5)"/><path d="M 201 408v 23h 11.5a 11.5 11.5, 0, 0, 0, 0 -23" transform="rotate(-90,212.5,419.5)"/><rect x="247" y="408" width="23" height="23" transform="rotate(0,258.5,419.5)"/><path d="M 293 408v 23h 23v -11.5a 11.5 11.5, 0, 0, 0, -11.5 -11.5" transform="rotate(180,304.5,419.5)"/><rect x="316" y="408" width="23" height="23" transform="rotate(0,327.5,419.5)"/><rect x="339" y="408" width="23" height="23" transform="rotate(0,350.5,419.5)"/><rect x="454" y="408" width="23" height="23" transform="rotate(0,465.5,419.5)"/><rect x="477" y="408" width="23" height="23" transform="rotate(0,488.5,419.5)"/><rect x="500" y="408" width="23" height="23" transform="rotate(0,511.5,419.5)"/><rect x="523" y="408" width="23" height="23" transform="rotate(0,534.5,419.5)"/><rect x="546" y="408" width="23" height="23" transform="rotate(0,557.5,419.5)"/><path d="M 569 408v 23h 23v -11.5a 11.5 11.5, 0, 0, 0, -11.5 -11.5" transform="rotate(90,580.5,419.5)"/><path d="M 684 408v 23h 23v -11.5a 11.5 11.5, 0, 0, 0, -11.5 -11.5" transform="rotate(180,695.5,419.5)"/><rect x="707" y="408" width="23" height="23" transform="rotate(0,718.5,419.5)"/><rect x="730" y="408" width="23" height="23" transform="rotate(0,741.5,419.5)"/><rect x="753" y="408" width="23" height="23" transform="rotate(0,764.5,419.5)"/><rect x="776" y="408" width="23" height="23" transform="rotate(0,787.5,419.5)"/><path d="M 799 408v 23h 11.5a 11.5 11.5, 0, 0, 0, 0 -23" transform="rotate(0,810.5,419.5)"/><path d="M 178 431v 23h 11.5a 11.5 11.5, 0, 0, 0, 0 -23" transform="rotate(180,189.5,442.5)"/><path d="M 201 431v 23h 23v -11.5a 11.5 11.5, 0, 0, 0, -11.5 -11.5" transform="rotate(90,212.5,442.5)"/><rect x="247" y="431" width="23" height="23" transform="rotate(0,258.5,442.5)"/><path d="M 270 431v 23h 23v -11.5a 11.5 11.5, 0, 0, 0, -11.5 -11.5" transform="rotate(0,281.5,442.5)"/><path d="M 339 431v 23h 11.5a 11.5 11.5, 0, 0, 0, 0 -23" transform="rotate(90,350.5,442.5)"/><circle cx="396.5" cy="442.5" r="11.5" transform="rotate(0,396.5,442.5)"/><path d="M 431 431v 23h 11.5a 11.5 11.5, 0, 0, 0, 0 -23" transform="rotate(180,442.5,442.5)"/><rect x="454" y="431" width="23" height="23" transform="rotate(0,465.5,442.5)"/><rect x="546" y="431" width="23" height="23" transform="rotate(0,557.5,442.5)"/><circle cx="649.5" cy="442.5" r="11.5" transform="rotate(0,649.5,442.5)"/><path d="M 753 431v 23h 11.5a 11.5 11.5, 0, 0, 0, 0 -23" transform="rotate(90,764.5,442.5)"/><path d="M 822 431v 23h 11.5a 11.5 11.5, 0, 0, 0, 0 -23" transform="rotate(-90,833.5,442.5)"/><path d="M 247 454v 23h 23v -11.5a 11.5 11.5, 0, 0, 0, -11.5 -11.5" transform="rotate(180,258.5,465.5)"/><path d="M 270 454v 23h 23v -11.5a 11.5 11.5, 0, 0, 0, -11.5 -11.5" transform="rotate(90,281.5,465.5)"/><circle cx="327.5" cy="465.5" r="11.5" transform="rotate(0,327.5,465.5)"/><path d="M 362 454v 23h 11.5a 11.5 11.5, 0, 0, 0, 0 -23" transform="rotate(-90,373.5,465.5)"/><rect x="454" y="454" width="23" height="23" transform="rotate(0,465.5,465.5)"/><rect x="546" y="454" width="23" height="23" transform="rotate(0,557.5,465.5)"/><path d="M 569 454v 23h 23v -11.5a 11.5 11.5, 0, 0, 0, -11.5 -11.5" transform="rotate(0,580.5,465.5)"/><path d="M 615 454v 23h 11.5a 11.5 11.5, 0, 0, 0, 0 -23" transform="rotate(-90,626.5,465.5)"/><circle cx="672.5" cy="465.5" r="11.5" transform="rotate(0,672.5,465.5)"/><path d="M 707 454v 23h 11.5a 11.5 11.5, 0, 0, 0, 0 -23" transform="rotate(-90,718.5,465.5)"/><path d="M 776 454v 23h 23v -11.5a 11.5 11.5, 0, 0, 0, -11.5 -11.5" transform="rotate(-90,787.5,465.5)"/><rect x="799" y="454" width="23" height="23" transform="rotate(0,810.5,465.5)"/><rect x="822" y="454" width="23" height="23" transform="rotate(0,833.5,465.5)"/><path d="M 339 477v 23h 23v -11.5a 11.5 11.5, 0, 0, 0, -11.5 -11.5" transform="rotate(-90,350.5,488.5)"/><path d="M 362 477v 23h 23v -11.5a 11.5 11.5, 0, 0, 0, -11.5 -11.5" transform="rotate(90,373.5,488.5)"/><path d="M 408 477v 23h 23v -11.5a 11.5 11.5, 0, 0, 0, -11.5 -11.5" transform="rotate(-90,419.5,488.5)"/><rect x="431" y="477" width="23" height="23" transform="rotate(0,442.5,488.5)"/><rect x="454" y="477" width="23" height="23" transform="rotate(0,465.5,488.5)"/><rect x="477" y="477" width="23" height="23" transform="rotate(0,488.5,488.5)"/><path d="M 500 477v 23h 11.5a 11.5 11.5, 0, 0, 0, 0 -23" transform="rotate(0,511.5,488.5)"/><path d="M 546 477v 23h 23v -11.5a 11.5 11.5, 0, 0, 0, -11.5 -11.5" transform="rotate(180,557.5,488.5)"/><rect x="569" y="477" width="23" height="23" transform="rotate(0,580.5,488.5)"/><rect x="592" y="477" width="23" height="23" transform="rotate(0,603.5,488.5)"/><rect x="615" y="477" width="23" height="23" transform="rotate(0,626.5,488.5)"/><path d="M 684 477v 23h 11.5a 11.5 11.5, 0, 0, 0, 0 -23" transform="rotate(180,695.5,488.5)"/><rect x="707" y="477" width="23" height="23" transform="rotate(0,718.5,488.5)"/><path d="M 753 477v 23h 23v -11.5a 11.5 11.5, 0, 0, 0, -11.5 -11.5" transform="rotate(-90,764.5,488.5)"/><path d="M 776 477v 23h 23v -11.5a 11.5 11.5, 0, 0, 0, -11.5 -11.5" transform="rotate(90,787.5,488.5)"/><rect x="822" y="477" width="23" height="23" transform="rotate(0,833.5,488.5)"/><circle cx="212.5" cy="511.5" r="11.5" transform="rotate(0,212.5,511.5)"/><circle cx="258.5" cy="511.5" r="11.5" transform="rotate(0,258.5,511.5)"/><path d="M 293 500v 23h 23v -11.5a 11.5 11.5, 0, 0, 0, -11.5 -11.5" transform="rotate(-90,304.5,511.5)"/><rect x="316" y="500" width="23" height="23" transform="rotate(0,327.5,511.5)"/><rect x="339" y="500" width="23" height="23" transform="rotate(0,350.5,511.5)"/><path d="M 385 500v 23h 11.5a 11.5 11.5, 0, 0, 0, 0 -23" transform="rotate(180,396.5,511.5)"/><rect x="408" y="500" width="23" height="23" transform="rotate(0,419.5,511.5)"/><path d="M 431 500v 23h 23v -11.5a 11.5 11.5, 0, 0, 0, -11.5 -11.5" transform="rotate(90,442.5,511.5)"/><rect x="477" y="500" width="23" height="23" transform="rotate(0,488.5,511.5)"/><circle cx="534.5" cy="511.5" r="11.5" transform="rotate(0,534.5,511.5)"/><rect x="592" y="500" width="23" height="23" transform="rotate(0,603.5,511.5)"/><rect x="615" y="500" width="23" height="23" transform="rotate(0,626.5,511.5)"/><path d="M 638 500v 23h 23v -11.5a 11.5 11.5, 0, 0, 0, -11.5 -11.5" transform="rotate(0,649.5,511.5)"/><path d="M 707 500v 23h 23v -11.5a 11.5 11.5, 0, 0, 0, -11.5 -11.5" transform="rotate(180,718.5,511.5)"/><rect x="730" y="500" width="23" height="23" transform="rotate(0,741.5,511.5)"/><rect x="753" y="500" width="23" height="23" transform="rotate(0,764.5,511.5)"/><path d="M 799 500v 23h 11.5a 11.5 11.5, 0, 0, 0, 0 -23" transform="rotate(180,810.5,511.5)"/><rect x="822" y="500" width="23" height="23" transform="rotate(0,833.5,511.5)"/><path d="M 178 523v 23h 11.5a 11.5 11.5, 0, 0, 0, 0 -23" transform="rotate(-90,189.5,534.5)"/><circle cx="235.5" cy="534.5" r="11.5" transform="rotate(0,235.5,534.5)"/><path d="M 270 523v 23h 11.5a 11.5 11.5, 0, 0, 0, 0 -23" transform="rotate(180,281.5,534.5)"/><rect x="293" y="523" width="23" height="23" transform="rotate(0,304.5,534.5)"/><path d="M 339 523v 23h 11.5a 11.5 11.5, 0, 0, 0, 0 -23" transform="rotate(90,350.5,534.5)"/><rect x="408" y="523" width="23" height="23" transform="rotate(0,419.5,534.5)"/><rect x="477" y="523" width="23" height="23" transform="rotate(0,488.5,534.5)"/><path d="M 500 523v 23h 23v -11.5a 11.5 11.5, 0, 0, 0, -11.5 -11.5" transform="rotate(0,511.5,534.5)"/><path d="M 546 523v 23h 11.5a 11.5 11.5, 0, 0, 0, 0 -23" transform="rotate(-90,557.5,534.5)"/><rect x="592" y="523" width="23" height="23" transform="rotate(0,603.5,534.5)"/><rect x="615" y="523" width="23" height="23" transform="rotate(0,626.5,534.5)"/><rect x="638" y="523" width="23" height="23" transform="rotate(0,649.5,534.5)"/><rect x="730" y="523" width="23" height="23" transform="rotate(0,741.5,534.5)"/><rect x="753" y="523" width="23" height="23" transform="rotate(0,764.5,534.5)"/><rect x="822" y="523" width="23" height="23" transform="rotate(0,833.5,534.5)"/><path d="M 178 546v 23h 11.5a 11.5 11.5, 0, 0, 0, 0 -23" transform="rotate(90,189.5,557.5)"/><path d="M 293 546v 23h 23v -11.5a 11.5 11.5, 0, 0, 0, -11.5 -11.5" transform="rotate(180,304.5,557.5)"/><path d="M 316 546v 23h 11.5a 11.5 11.5, 0, 0, 0, 0 -23" transform="rotate(0,327.5,557.5)"/><path d="M 362 546v 23h 23v -11.5a 11.5 11.5, 0, 0, 0, -11.5 -11.5" transform="rotate(-90,373.5,557.5)"/><rect x="385" y="546" width="23" height="23" transform="rotate(0,396.5,557.5)"/><path d="M 408 546v 23h 23v -11.5a 11.5 11.5, 0, 0, 0, -11.5 -11.5" transform="rotate(90,419.5,557.5)"/><rect x="477" y="546" width="23" height="23" transform="rotate(0,488.5,557.5)"/><rect x="500" y="546" width="23" height="23" transform="rotate(0,511.5,557.5)"/><rect x="523" y="546" width="23" height="23" transform="rotate(0,534.5,557.5)"/><rect x="546" y="546" width="23" height="23" transform="rotate(0,557.5,557.5)"/><rect x="592" y="546" width="23" height="23" transform="rotate(0,603.5,557.5)"/><path d="M 638 546v 23h 23v -11.5a 11.5 11.5, 0, 0, 0, -11.5 -11.5" transform="rotate(180,649.5,557.5)"/><path d="M 661 546v 23h 11.5a 11.5 11.5, 0, 0, 0, 0 -23" transform="rotate(0,672.5,557.5)"/><path d="M 730 546v 23h 23v -11.5a 11.5 11.5, 0, 0, 0, -11.5 -11.5" transform="rotate(180,741.5,557.5)"/><path d="M 753 546v 23h 23v -11.5a 11.5 11.5, 0, 0, 0, -11.5 -11.5" transform="rotate(90,764.5,557.5)"/><path d="M 799 546v 23h 11.5a 11.5 11.5, 0, 0, 0, 0 -23" transform="rotate(180,810.5,557.5)"/><path d="M 822 546v 23h 23v -11.5a 11.5 11.5, 0, 0, 0, -11.5 -11.5" transform="rotate(90,833.5,557.5)"/><path d="M 201 569v 23h 11.5a 11.5 11.5, 0, 0, 0, 0 -23" transform="rotate(180,212.5,580.5)"/><rect x="224" y="569" width="23" height="23" transform="rotate(0,235.5,580.5)"/><rect x="247" y="569" width="23" height="23" transform="rotate(0,258.5,580.5)"/><path d="M 270 569v 23h 11.5a 11.5 11.5, 0, 0, 0, 0 -23" transform="rotate(0,281.5,580.5)"/><path d="M 362 569v 23h 23v -11.5a 11.5 11.5, 0, 0, 0, -11.5 -11.5" transform="rotate(180,373.5,580.5)"/><rect x="385" y="569" width="23" height="23" transform="rotate(0,396.5,580.5)"/><rect x="477" y="569" width="23" height="23" transform="rotate(0,488.5,580.5)"/><path d="M 500 569v 23h 23v -11.5a 11.5 11.5, 0, 0, 0, -11.5 -11.5" transform="rotate(90,511.5,580.5)"/><rect x="546" y="569" width="23" height="23" transform="rotate(0,557.5,580.5)"/><path d="M 592 569v 23h 11.5a 11.5 11.5, 0, 0, 0, 0 -23" transform="rotate(90,603.5,580.5)"/><path d="M 707 569v 23h 11.5a 11.5 11.5, 0, 0, 0, 0 -23" transform="rotate(-90,718.5,580.5)"/><path d="M 776 569v 23h 11.5a 11.5 11.5, 0, 0, 0, 0 -23" transform="rotate(-90,787.5,580.5)"/><circle cx="189.5" cy="603.5" r="11.5" transform="rotate(0,189.5,603.5)"/><path d="M 247 592v 23h 11.5a 11.5 11.5, 0, 0, 0, 0 -23" transform="rotate(90,258.5,603.5)"/><path d="M 316 592v 23h 11.5a 11.5 11.5, 0, 0, 0, 0 -23" transform="rotate(180,327.5,603.5)"/><path d="M 339 592v 23h 23v -11.5a 11.5 11.5, 0, 0, 0, -11.5 -11.5" transform="rotate(0,350.5,603.5)"/><path d="M 385 592v 23h 23v -11.5a 11.5 11.5, 0, 0, 0, -11.5 -11.5" transform="rotate(180,396.5,603.5)"/><rect x="408" y="592" width="23" height="23" transform="rotate(0,419.5,603.5)"/><path d="M 431 592v 23h 11.5a 11.5 11.5, 0, 0, 0, 0 -23" transform="rotate(0,442.5,603.5)"/><path d="M 477 592v 23h 11.5a 11.5 11.5, 0, 0, 0, 0 -23" transform="rotate(90,488.5,603.5)"/><path d="M 523 592v 23h 11.5a 11.5 11.5, 0, 0, 0, 0 -23" transform="rotate(180,534.5,603.5)"/><path d="M 546 592v 23h 23v -11.5a 11.5 11.5, 0, 0, 0, -11.5 -11.5" transform="rotate(90,557.5,603.5)"/><circle cx="649.5" cy="603.5" r="11.5" transform="rotate(0,649.5,603.5)"/><path d="M 684 592v 23h 23v -11.5a 11.5 11.5, 0, 0, 0, -11.5 -11.5" transform="rotate(-90,695.5,603.5)"/><rect x="707" y="592" width="23" height="23" transform="rotate(0,718.5,603.5)"/><rect x="730" y="592" width="23" height="23" transform="rotate(0,741.5,603.5)"/><rect x="753" y="592" width="23" height="23" transform="rotate(0,764.5,603.5)"/><rect x="776" y="592" width="23" height="23" transform="rotate(0,787.5,603.5)"/><circle cx="235.5" cy="626.5" r="11.5" transform="rotate(0,235.5,626.5)"/><circle cx="304.5" cy="626.5" r="11.5" transform="rotate(0,304.5,626.5)"/><path d="M 339 615v 23h 23v -11.5a 11.5 11.5, 0, 0, 0, -11.5 -11.5" transform="rotate(180,350.5,626.5)"/><path d="M 362 615v 23h 11.5a 11.5 11.5, 0, 0, 0, 0 -23" transform="rotate(0,373.5,626.5)"/><path d="M 454 615v 23h 11.5a 11.5 11.5, 0, 0, 0, 0 -23" transform="rotate(-90,465.5,626.5)"/><path d="M 569 615v 23h 23v -11.5a 11.5 11.5, 0, 0, 0, -11.5 -11.5" transform="rotate(-90,580.5,626.5)"/><rect x="592" y="615" width="23" height="23" transform="rotate(0,603.5,626.5)"/><path d="M 615 615v 23h 23v -11.5a 11.5 11.5, 0, 0, 0, -11.5 -11.5" transform="rotate(0,626.5,626.5)"/><path d="M 661 615v 23h 23v -11.5a 11.5 11.5, 0, 0, 0, -11.5 -11.5" transform="rotate(-90,672.5,626.5)"/><rect x="684" y="615" width="23" height="23" transform="rotate(0,695.5,626.5)"/><path d="M 753 615v 23h 23v -11.5a 11.5 11.5, 0, 0, 0, -11.5 -11.5" transform="rotate(180,764.5,626.5)"/><rect x="776" y="615" width="23" height="23" transform="rotate(0,787.5,626.5)"/><circle cx="833.5" cy="626.5" r="11.5" transform="rotate(0,833.5,626.5)"/><circle cx="212.5" cy="649.5" r="11.5" transform="rotate(0,212.5,649.5)"/><circle cx="281.5" cy="649.5" r="11.5" transform="rotate(0,281.5,649.5)"/><circle cx="327.5" cy="649.5" r="11.5" transform="rotate(0,327.5,649.5)"/><circle cx="396.5" cy="649.5" r="11.5" transform="rotate(0,396.5,649.5)"/><path d="M 454 638v 23h 11.5a 11.5 11.5, 0, 0, 0, 0 -23" transform="rotate(90,465.5,649.5)"/><circle cx="511.5" cy="649.5" r="11.5" transform="rotate(0,511.5,649.5)"/><path d="M 546 638v 23h 23v -11.5a 11.5 11.5, 0, 0, 0, -11.5 -11.5" transform="rotate(-90,557.5,649.5)"/><rect x="569" y="638" width="23" height="23" transform="rotate(0,580.5,649.5)"/><rect x="592" y="638" width="23" height="23" transform="rotate(0,603.5,649.5)"/><rect x="615" y="638" width="23" height="23" transform="rotate(0,626.5,649.5)"/><rect x="638" y="638" width="23" height="23" transform="rotate(0,649.5,649.5)"/><rect x="661" y="638" width="23" height="23" transform="rotate(0,672.5,649.5)"/><rect x="684" y="638" width="23" height="23" transform="rotate(0,695.5,649.5)"/><rect x="707" y="638" width="23" height="23" transform="rotate(0,718.5,649.5)"/><path d="M 730 638v 23h 23v -11.5a 11.5 11.5, 0, 0, 0, -11.5 -11.5" transform="rotate(0,741.5,649.5)"/><path d="M 776 638v 23h 23v -11.5a 11.5 11.5, 0, 0, 0, -11.5 -11.5" transform="rotate(180,787.5,649.5)"/><path d="M 799 638v 23h 23v -11.5a 11.5 11.5, 0, 0, 0, -11.5 -11.5" transform="rotate(0,810.5,649.5)"/><circle cx="373.5" cy="672.5" r="11.5" transform="rotate(0,373.5,672.5)"/><path d="M 477 661v 23h 11.5a 11.5 11.5, 0, 0, 0, 0 -23" transform="rotate(-90,488.5,672.5)"/><path d="M 546 661v 23h 23v -11.5a 11.5 11.5, 0, 0, 0, -11.5 -11.5" transform="rotate(180,557.5,672.5)"/><rect x="569" y="661" width="23" height="23" transform="rotate(0,580.5,672.5)"/><path d="M 592 661v 23h 23v -11.5a 11.5 11.5, 0, 0, 0, -11.5 -11.5" transform="rotate(90,603.5,672.5)"/><rect x="638" y="661" width="23" height="23" transform="rotate(0,649.5,672.5)"/><rect x="730" y="661" width="23" height="23" transform="rotate(0,741.5,672.5)"/><path d="M 753 661v 23h 11.5a 11.5 11.5, 0, 0, 0, 0 -23" transform="rotate(0,764.5,672.5)"/><rect x="799" y="661" width="23" height="23" transform="rotate(0,810.5,672.5)"/><path d="M 822 661v 23h 11.5a 11.5 11.5, 0, 0, 0, 0 -23" transform="rotate(0,833.5,672.5)"/><path d="M 408 684v 23h 23v -11.5a 11.5 11.5, 0, 0, 0, -11.5 -11.5" transform="rotate(-90,419.5,695.5)"/><rect x="431" y="684" width="23" height="23" transform="rotate(0,442.5,695.5)"/><rect x="454" y="684" width="23" height="23" transform="rotate(0,465.5,695.5)"/><rect x="477" y="684" width="23" height="23" transform="rotate(0,488.5,695.5)"/><path d="M 500 684v 23h 11.5a 11.5 11.5, 0, 0, 0, 0 -23" transform="rotate(0,511.5,695.5)"/><path d="M 569 684v 23h 11.5a 11.5 11.5, 0, 0, 0, 0 -23" transform="rotate(90,580.5,695.5)"/><path d="M 615 684v 23h 11.5a 11.5 11.5, 0, 0, 0, 0 -23" transform="rotate(180,626.5,695.5)"/><rect x="638" y="684" width="23" height="23" transform="rotate(0,649.5,695.5)"/><circle cx="695.5" cy="695.5" r="11.5" transform="rotate(0,695.5,695.5)"/><rect x="730" y="684" width="23" height="23" transform="rotate(0,741.5,695.5)"/><path d="M 776 684v 23h 11.5a 11.5 11.5, 0, 0, 0, 0 -23" transform="rotate(180,787.5,695.5)"/><rect x="799" y="684" width="23" height="23" transform="rotate(0,810.5,695.5)"/><circle cx="373.5" cy="718.5" r="11.5" transform="rotate(0,373.5,718.5)"/><rect x="408" y="707" width="23" height="23" transform="rotate(0,419.5,718.5)"/><rect x="431" y="707" width="23" height="23" transform="rotate(0,442.5,718.5)"/><rect x="454" y="707" width="23" height="23" transform="rotate(0,465.5,718.5)"/><rect x="477" y="707" width="23" height="23" transform="rotate(0,488.5,718.5)"/><circle cx="534.5" cy="718.5" r="11.5" transform="rotate(0,534.5,718.5)"/><path d="M 592 707v 23h 11.5a 11.5 11.5, 0, 0, 0, 0 -23" transform="rotate(-90,603.5,718.5)"/><rect x="638" y="707" width="23" height="23" transform="rotate(0,649.5,718.5)"/><rect x="730" y="707" width="23" height="23" transform="rotate(0,741.5,718.5)"/><rect x="799" y="707" width="23" height="23" transform="rotate(0,810.5,718.5)"/><path d="M 385 730v 23h 11.5a 11.5 11.5, 0, 0, 0, 0 -23" transform="rotate(180,396.5,741.5)"/><rect x="408" y="730" width="23" height="23" transform="rotate(0,419.5,741.5)"/><rect x="431" y="730" width="23" height="23" transform="rotate(0,442.5,741.5)"/><path d="M 477 730v 23h 23v -11.5a 11.5 11.5, 0, 0, 0, -11.5 -11.5" transform="rotate(180,488.5,741.5)"/><path d="M 500 730v 23h 11.5a 11.5 11.5, 0, 0, 0, 0 -23" transform="rotate(0,511.5,741.5)"/><path d="M 592 730v 23h 11.5a 11.5 11.5, 0, 0, 0, 0 -23" transform="rotate(90,603.5,741.5)"/><path d="M 638 730v 23h 23v -11.5a 11.5 11.5, 0, 0, 0, -11.5 -11.5" transform="rotate(180,649.5,741.5)"/><rect x="661" y="730" width="23" height="23" transform="rotate(0,672.5,741.5)"/><rect x="684" y="730" width="23" height="23" transform="rotate(0,695.5,741.5)"/><rect x="707" y="730" width="23" height="23" transform="rotate(0,718.5,741.5)"/><rect x="730" y="730" width="23" height="23" transform="rotate(0,741.5,741.5)"/><rect x="753" y="730" width="23" height="23" transform="rotate(0,764.5,741.5)"/><rect x="776" y="730" width="23" height="23" transform="rotate(0,787.5,741.5)"/><rect x="799" y="730" width="23" height="23" transform="rotate(0,810.5,741.5)"/><path d="M 362 753v 23h 11.5a 11.5 11.5, 0, 0, 0, 0 -23" transform="rotate(-90,373.5,764.5)"/><path d="M 408 753v 23h 23v -11.5a 11.5 11.5, 0, 0, 0, -11.5 -11.5" transform="rotate(180,419.5,764.5)"/><path d="M 431 753v 23h 23v -11.5a 11.5 11.5, 0, 0, 0, -11.5 -11.5" transform="rotate(90,442.5,764.5)"/><path d="M 546 753v 23h 23v -11.5a 11.5 11.5, 0, 0, 0, -11.5 -11.5" transform="rotate(-90,557.5,764.5)"/><path d="M 569 753v 23h 23v -11.5a 11.5 11.5, 0, 0, 0, -11.5 -11.5" transform="rotate(0,580.5,764.5)"/><circle cx="626.5" cy="764.5" r="11.5" transform="rotate(0,626.5,764.5)"/><path d="M 730 753v 23h 23v -11.5a 11.5 11.5, 0, 0, 0, -11.5 -11.5" transform="rotate(180,741.5,764.5)"/><rect x="753" y="753" width="23" height="23" transform="rotate(0,764.5,764.5)"/><rect x="776" y="753" width="23" height="23" transform="rotate(0,787.5,764.5)"/><path d="M 799 753v 23h 23v -11.5a 11.5 11.5, 0, 0, 0, -11.5 -11.5" transform="rotate(90,810.5,764.5)"/><rect x="362" y="776" width="23" height="23" transform="rotate(0,373.5,787.5)"/><path d="M 523 776v 23h 11.5a 11.5 11.5, 0, 0, 0, 0 -23" transform="rotate(180,534.5,787.5)"/><rect x="546" y="776" width="23" height="23" transform="rotate(0,557.5,787.5)"/><path d="M 569 776v 23h 23v -11.5a 11.5 11.5, 0, 0, 0, -11.5 -11.5" transform="rotate(90,580.5,787.5)"/><path d="M 638 776v 23h 11.5a 11.5 11.5, 0, 0, 0, 0 -23" transform="rotate(-90,649.5,787.5)"/><circle cx="718.5" cy="787.5" r="11.5" transform="rotate(0,718.5,787.5)"/><rect x="753" y="776" width="23" height="23" transform="rotate(0,764.5,787.5)"/><circle cx="833.5" cy="787.5" r="11.5" transform="rotate(0,833.5,787.5)"/><path d="M 362 799v 23h 23v -11.5a 11.5 11.5, 0, 0, 0, -11.5 -11.5" transform="rotate(180,373.5,810.5)"/><rect x="385" y="799" width="23" height="23" transform="rotate(0,396.5,810.5)"/><rect x="408" y="799" width="23" height="23" transform="rotate(0,419.5,810.5)"/><rect x="431" y="799" width="23" height="23" transform="rotate(0,442.5,810.5)"/><rect x="454" y="799" width="23" height="23" transform="rotate(0,465.5,810.5)"/><path d="M 477 799v 23h 23v -11.5a 11.5 11.5, 0, 0, 0, -11.5 -11.5" transform="rotate(0,488.5,810.5)"/><path d="M 546 799v 23h 11.5a 11.5 11.5, 0, 0, 0, 0 -23" transform="rotate(90,557.5,810.5)"/><circle cx="603.5" cy="810.5" r="11.5" transform="rotate(0,603.5,810.5)"/><rect x="638" y="799" width="23" height="23" transform="rotate(0,649.5,810.5)"/><path d="M 684 799v 23h 11.5a 11.5 11.5, 0, 0, 0, 0 -23" transform="rotate(-90,695.5,810.5)"/><path d="M 730 799v 23h 11.5a 11.5 11.5, 0, 0, 0, 0 -23" transform="rotate(180,741.5,810.5)"/><rect x="753" y="799" width="23" height="23" transform="rotate(0,764.5,810.5)"/><path d="M 799 799v 23h 11.5a 11.5 11.5, 0, 0, 0, 0 -23" transform="rotate(-90,810.5,810.5)"/><path d="M 477 822v 23h 23v -11.5a 11.5 11.5, 0, 0, 0, -11.5 -11.5" transform="rotate(180,488.5,833.5)"/><rect x="500" y="822" width="23" height="23" transform="rotate(0,511.5,833.5)"/><path d="M 523 822v 23h 11.5a 11.5 11.5, 0, 0, 0, 0 -23" transform="rotate(0,534.5,833.5)"/><path d="M 615 822v 23h 11.5a 11.5 11.5, 0, 0, 0, 0 -23" transform="rotate(180,626.5,833.5)"/><path d="M 638 822v 23h 23v -11.5a 11.5 11.5, 0, 0, 0, -11.5 -11.5" transform="rotate(90,649.5,833.5)"/><path d="M 684 822v 23h 23v -11.5a 11.5 11.5, 0, 0, 0, -11.5 -11.5" transform="rotate(180,695.5,833.5)"/><path d="M 707 822v 23h 11.5a 11.5 11.5, 0, 0, 0, 0 -23" transform="rotate(0,718.5,833.5)"/><path d="M 753 822v 23h 11.5a 11.5 11.5, 0, 0, 0, 0 -23" transform="rotate(90,764.5,833.5)"/><path d="M 799 822v 23h 11.5a 11.5 11.5, 0, 0, 0, 0 -23" transform="rotate(90,810.5,833.5)"/><path d="M 362 63v 23h 11.5a 11.5 11.5, 0, 0, 0, 0 -23" transform="rotate(-90,373.5,74.5)"/><path d="M 408 63v 23h 11.5a 11.5 11.5, 0, 0, 0, 0 -23" transform="rotate(180,419.5,74.5)"/><path d="M 431 63v 23h 11.5a 11.5 11.5, 0, 0, 0, 0 -23" transform="rotate(0,442.5,74.5)"/><circle cx="511.5" cy="74.5" r="11.5" transform="rotate(0,511.5,74.5)"/><path d="M 569 63v 23h 11.5a 11.5 11.5, 0, 0, 0, 0 -23" transform="rotate(-90,580.5,74.5)"/><circle cx="649.5" cy="74.5" r="11.5" transform="rotate(0,649.5,74.5)"/><path d="M 316 86v 23h 11.5a 11.5 11.5, 0, 0, 0, 0 -23" transform="rotate(-90,327.5,97.5)"/><rect x="362" y="86" width="23" height="23" transform="rotate(0,373.5,97.5)"/><circle cx="534.5" cy="97.5" r="11.5" transform="rotate(0,534.5,97.5)"/><rect x="569" y="86" width="23" height="23" transform="rotate(0,580.5,97.5)"/><circle cx="626.5" cy="97.5" r="11.5" transform="rotate(0,626.5,97.5)"/><path d="M 684 86v 23h 11.5a 11.5 11.5, 0, 0, 0, 0 -23" transform="rotate(-90,695.5,97.5)"/><path d="M 270 109v 23h 11.5a 11.5 11.5, 0, 0, 0, 0 -23" transform="rotate(180,281.5,120.5)"/><rect x="293" y="109" width="23" height="23" transform="rotate(0,304.5,120.5)"/><rect x="316" y="109" width="23" height="23" transform="rotate(0,327.5,120.5)"/><path d="M 362 109v 23h 23v -11.5a 11.5 11.5, 0, 0, 0, -11.5 -11.5" transform="rotate(180,373.5,120.5)"/><rect x="385" y="109" width="23" height="23" transform="rotate(0,396.5,120.5)"/><rect x="408" y="109" width="23" height="23" transform="rotate(0,419.5,120.5)"/><rect x="431" y="109" width="23" height="23" transform="rotate(0,442.5,120.5)"/><path d="M 454 109v 23h 23v -11.5a 11.5 11.5, 0, 0, 0, -11.5 -11.5" transform="rotate(0,465.5,120.5)"/><circle cx="511.5" cy="120.5" r="11.5" transform="rotate(0,511.5,120.5)"/><rect x="569" y="109" width="23" height="23" transform="rotate(0,580.5,120.5)"/><path d="M 592 109v 23h 11.5a 11.5 11.5, 0, 0, 0, 0 -23" transform="rotate(0,603.5,120.5)"/><rect x="684" y="109" width="23" height="23" transform="rotate(0,695.5,120.5)"/><rect x="707" y="109" width="23" height="23" transform="rotate(0,718.5,120.5)"/><path d="M 730 109v 23h 11.5a 11.5 11.5, 0, 0, 0, 0 -23" transform="rotate(0,741.5,120.5)"/><circle cx="258.5" cy="143.5" r="11.5" transform="rotate(0,258.5,143.5)"/><path d="M 293 132v 23h 23v -11.5a 11.5 11.5, 0, 0, 0, -11.5 -11.5" transform="rotate(180,304.5,143.5)"/><path d="M 316 132v 23h 23v -11.5a 11.5 11.5, 0, 0, 0, -11.5 -11.5" transform="rotate(90,327.5,143.5)"/><path d="M 385 132v 23h 11.5a 11.5 11.5, 0, 0, 0, 0 -23" transform="rotate(90,396.5,143.5)"/><path d="M 431 132v 23h 23v -11.5a 11.5 11.5, 0, 0, 0, -11.5 -11.5" transform="rotate(180,442.5,143.5)"/><path d="M 454 132v 23h 23v -11.5a 11.5 11.5, 0, 0, 0, -11.5 -11.5" transform="rotate(90,465.5,143.5)"/><circle cx="534.5" cy="143.5" r="11.5" transform="rotate(0,534.5,143.5)"/><path d="M 569 132v 23h 11.5a 11.5 11.5, 0, 0, 0, 0 -23" transform="rotate(90,580.5,143.5)"/><circle cx="649.5" cy="143.5" r="11.5" transform="rotate(0,649.5,143.5)"/><path d="M 684 132v 23h 23v -11.5a 11.5 11.5, 0, 0, 0, -11.5 -11.5" transform="rotate(180,695.5,143.5)"/><path d="M 707 132v 23h 23v -11.5a 11.5 11.5, 0, 0, 0, -11.5 -11.5" transform="rotate(90,718.5,143.5)"/><circle cx="787.5" cy="143.5" r="11.5" transform="rotate(0,787.5,143.5)"/><path d="M 132 247v 23h 11.5a 11.5 11.5, 0, 0, 0, 0 -23" transform="rotate(-90,143.5,258.5)"/><path d="M 868 247v 23h 11.5a 11.5 11.5, 0, 0, 0, 0 -23" transform="rotate(-90,879.5,258.5)"/><path d="M 132 270v 23h 11.5a 11.5 11.5, 0, 0, 0, 0 -23" transform="rotate(90,143.5,281.5)"/><rect x="868" y="270" width="23" height="23" transform="rotate(0,879.5,281.5)"/><path d="M 891 270v 23h 23v -11.5a 11.5 11.5, 0, 0, 0, -11.5 -11.5" transform="rotate(0,902.5,281.5)"/><path d="M 109 293v 23h 11.5a 11.5 11.5, 0, 0, 0, 0 -23" transform="rotate(-90,120.5,304.5)"/><rect x="868" y="293" width="23" height="23" transform="rotate(0,879.5,304.5)"/><rect x="891" y="293" width="23" height="23" transform="rotate(0,902.5,304.5)"/><path d="M 86 316v 23h 11.5a 11.5 11.5, 0, 0, 0, 0 -23" transform="rotate(180,97.5,327.5)"/><rect x="109" y="316" width="23" height="23" transform="rotate(0,120.5,327.5)"/><path d="M 132 316v 23h 11.5a 11.5 11.5, 0, 0, 0, 0 -23" transform="rotate(0,143.5,327.5)"/><path d="M 868 316v 23h 23v -11.5a 11.5 11.5, 0, 0, 0, -11.5 -11.5" transform="rotate(180,879.5,327.5)"/><rect x="891" y="316" width="23" height="23" transform="rotate(0,902.5,327.5)"/><path d="M 914 316v 23h 11.5a 11.5 11.5, 0, 0, 0, 0 -23" transform="rotate(0,925.5,327.5)"/><path d="M 63 362v 23h 23v -11.5a 11.5 11.5, 0, 0, 0, -11.5 -11.5" transform="rotate(-90,74.5,373.5)"/><path d="M 86 362v 23h 23v -11.5a 11.5 11.5, 0, 0, 0, -11.5 -11.5" transform="rotate(0,97.5,373.5)"/><path d="M 891 362v 23h 11.5a 11.5 11.5, 0, 0, 0, 0 -23" transform="rotate(180,902.5,373.5)"/><rect x="914" y="362" width="23" height="23" transform="rotate(0,925.5,373.5)"/><path d="M 937 362v 23h 23v -11.5a 11.5 11.5, 0, 0, 0, -11.5 -11.5" transform="rotate(0,948.5,373.5)"/><rect x="63" y="385" width="23" height="23" transform="rotate(0,74.5,396.5)"/><rect x="86" y="385" width="23" height="23" transform="rotate(0,97.5,396.5)"/><rect x="109" y="385" width="23" height="23" transform="rotate(0,120.5,396.5)"/><path d="M 132 385v 23h 23v -11.5a 11.5 11.5, 0, 0, 0, -11.5 -11.5" transform="rotate(0,143.5,396.5)"/><path d="M 868 385v 23h 11.5a 11.5 11.5, 0, 0, 0, 0 -23" transform="rotate(-90,879.5,396.5)"/><rect x="937" y="385" width="23" height="23" transform="rotate(0,948.5,396.5)"/><rect x="63" y="408" width="23" height="23" transform="rotate(0,74.5,419.5)"/><rect x="86" y="408" width="23" height="23" transform="rotate(0,97.5,419.5)"/><path d="M 132 408v 23h 11.5a 11.5 11.5, 0, 0, 0, 0 -23" transform="rotate(90,143.5,419.5)"/><rect x="868" y="408" width="23" height="23" transform="rotate(0,879.5,419.5)"/><path d="M 891 408v 23h 23v -11.5a 11.5 11.5, 0, 0, 0, -11.5 -11.5" transform="rotate(0,902.5,419.5)"/><rect x="937" y="408" width="23" height="23" transform="rotate(0,948.5,419.5)"/><path d="M 63 431v 23h 23v -11.5a 11.5 11.5, 0, 0, 0, -11.5 -11.5" transform="rotate(180,74.5,442.5)"/><rect x="86" y="431" width="23" height="23" transform="rotate(0,97.5,442.5)"/><path d="M 109 431v 23h 23v -11.5a 11.5 11.5, 0, 0, 0, -11.5 -11.5" transform="rotate(0,120.5,442.5)"/><path d="M 868 431v 23h 23v -11.5a 11.5 11.5, 0, 0, 0, -11.5 -11.5" transform="rotate(180,879.5,442.5)"/><path d="M 891 431v 23h 23v -11.5a 11.5 11.5, 0, 0, 0, -11.5 -11.5" transform="rotate(90,902.5,442.5)"/><rect x="937" y="431" width="23" height="23" transform="rotate(0,948.5,442.5)"/><path d="M 109 454v 23h 23v -11.5a 11.5 11.5, 0, 0, 0, -11.5 -11.5" transform="rotate(180,120.5,465.5)"/><path d="M 132 454v 23h 23v -11.5a 11.5 11.5, 0, 0, 0, -11.5 -11.5" transform="rotate(0,143.5,465.5)"/><rect x="937" y="454" width="23" height="23" transform="rotate(0,948.5,465.5)"/><path d="M 86 477v 23h 11.5a 11.5 11.5, 0, 0, 0, 0 -23" transform="rotate(-90,97.5,488.5)"/><path d="M 132 477v 23h 11.5a 11.5 11.5, 0, 0, 0, 0 -23" transform="rotate(90,143.5,488.5)"/><path d="M 868 477v 23h 11.5a 11.5 11.5, 0, 0, 0, 0 -23" transform="rotate(-90,879.5,488.5)"/><path d="M 937 477v 23h 11.5a 11.5 11.5, 0, 0, 0, 0 -23" transform="rotate(90,948.5,488.5)"/><path d="M 40 500v 23h 11.5a 11.5 11.5, 0, 0, 0, 0 -23" transform="rotate(180,51.5,511.5)"/><rect x="63" y="500" width="23" height="23" transform="rotate(0,74.5,511.5)"/><rect x="86" y="500" width="23" height="23" transform="rotate(0,97.5,511.5)"/><path d="M 868 500v 23h 11.5a 11.5 11.5, 0, 0, 0, 0 -23" transform="rotate(90,879.5,511.5)"/><circle cx="971.5" cy="511.5" r="11.5" transform="rotate(0,971.5,511.5)"/><path d="M 63 523v 23h 23v -11.5a 11.5 11.5, 0, 0, 0, -11.5 -11.5" transform="rotate(180,74.5,534.5)"/><path d="M 86 523v 23h 23v -11.5a 11.5 11.5, 0, 0, 0, -11.5 -11.5" transform="rotate(90,97.5,534.5)"/><circle cx="143.5" cy="534.5" r="11.5" transform="rotate(0,143.5,534.5)"/><path d="M 914 523v 23h 11.5a 11.5 11.5, 0, 0, 0, 0 -23" transform="rotate(-90,925.5,534.5)"/><path d="M 109 546v 23h 11.5a 11.5 11.5, 0, 0, 0, 0 -23" transform="rotate(-90,120.5,557.5)"/><path d="M 891 546v 23h 23v -11.5a 11.5 11.5, 0, 0, 0, -11.5 -11.5" transform="rotate(-90,902.5,557.5)"/><rect x="914" y="546" width="23" height="23" transform="rotate(0,925.5,557.5)"/><path d="M 937 546v 23h 11.5a 11.5 11.5, 0, 0, 0, 0 -23" transform="rotate(0,948.5,557.5)"/><path d="M 63 569v 23h 11.5a 11.5 11.5, 0, 0, 0, 0 -23" transform="rotate(-90,74.5,580.5)"/><path d="M 109 569v 23h 23v -11.5a 11.5 11.5, 0, 0, 0, -11.5 -11.5" transform="rotate(180,120.5,580.5)"/><path d="M 132 569v 23h 11.5a 11.5 11.5, 0, 0, 0, 0 -23" transform="rotate(0,143.5,580.5)"/><path d="M 891 569v 23h 23v -11.5a 11.5 11.5, 0, 0, 0, -11.5 -11.5" transform="rotate(180,902.5,580.5)"/><path d="M 914 569v 23h 23v -11.5a 11.5 11.5, 0, 0, 0, -11.5 -11.5" transform="rotate(90,925.5,580.5)"/><path d="M 63 592v 23h 11.5a 11.5 11.5, 0, 0, 0, 0 -23" transform="rotate(90,74.5,603.5)"/><circle cx="879.5" cy="603.5" r="11.5" transform="rotate(0,879.5,603.5)"/><circle cx="948.5" cy="603.5" r="11.5" transform="rotate(0,948.5,603.5)"/><circle cx="97.5" cy="626.5" r="11.5" transform="rotate(0,97.5,626.5)"/><circle cx="143.5" cy="626.5" r="11.5" transform="rotate(0,143.5,626.5)"/><circle cx="902.5" cy="626.5" r="11.5" transform="rotate(0,902.5,626.5)"/><circle cx="120.5" cy="649.5" r="11.5" transform="rotate(0,120.5,649.5)"/><path d="M 868 638v 23h 11.5a 11.5 11.5, 0, 0, 0, 0 -23" transform="rotate(-90,879.5,649.5)"/><path d="M 914 638v 23h 11.5a 11.5 11.5, 0, 0, 0, 0 -23" transform="rotate(180,925.5,649.5)"/><path d="M 937 638v 23h 11.5a 11.5 11.5, 0, 0, 0, 0 -23" transform="rotate(0,948.5,649.5)"/><rect x="868" y="661" width="23" height="23" transform="rotate(0,879.5,672.5)"/><path d="M 86 684v 23h 11.5a 11.5 11.5, 0, 0, 0, 0 -23" transform="rotate(180,97.5,695.5)"/><rect x="109" y="684" width="23" height="23" transform="rotate(0,120.5,695.5)"/><path d="M 132 684v 23h 23v -11.5a 11.5 11.5, 0, 0, 0, -11.5 -11.5" transform="rotate(0,143.5,695.5)"/><path d="M 868 684v 23h 11.5a 11.5 11.5, 0, 0, 0, 0 -23" transform="rotate(90,879.5,695.5)"/><path d="M 109 707v 23h 23v -11.5a 11.5 11.5, 0, 0, 0, -11.5 -11.5" transform="rotate(180,120.5,718.5)"/><path d="M 132 707v 23h 23v -11.5a 11.5 11.5, 0, 0, 0, -11.5 -11.5" transform="rotate(90,143.5,718.5)"/><circle cx="902.5" cy="718.5" r="11.5" transform="rotate(0,902.5,718.5)"/><circle cx="879.5" cy="741.5" r="11.5" transform="rotate(0,879.5,741.5)"/><circle cx="143.5" cy="764.5" r="11.5" transform="rotate(0,143.5,764.5)"/><circle cx="879.5" cy="787.5" r="11.5" transform="rotate(0,879.5,787.5)"/><path d="M 247 868v 23h 11.5a 11.5 11.5, 0, 0, 0, 0 -23" transform="rotate(180,258.5,879.5)"/><path d="M 270 868v 23h 23v -11.5a 11.5 11.5, 0, 0, 0, -11.5 -11.5" transform="rotate(0,281.5,879.5)"/><path d="M 316 868v 23h 11.5a 11.5 11.5, 0, 0, 0, 0 -23" transform="rotate(-90,327.5,879.5)"/><path d="M 385 868v 23h 23v -11.5a 11.5 11.5, 0, 0, 0, -11.5 -11.5" transform="rotate(-90,396.5,879.5)"/><path d="M 408 868v 23h 23v -11.5a 11.5 11.5, 0, 0, 0, -11.5 -11.5" transform="rotate(0,419.5,879.5)"/><path d="M 500 868v 23h 23v -11.5a 11.5 11.5, 0, 0, 0, -11.5 -11.5" transform="rotate(-90,511.5,879.5)"/><rect x="523" y="868" width="23" height="23" transform="rotate(0,534.5,879.5)"/><path d="M 546 868v 23h 23v -11.5a 11.5 11.5, 0, 0, 0, -11.5 -11.5" transform="rotate(0,557.5,879.5)"/><path d="M 592 868v 23h 11.5a 11.5 11.5, 0, 0, 0, 0 -23" transform="rotate(-90,603.5,879.5)"/><path d="M 638 868v 23h 11.5a 11.5 11.5, 0, 0, 0, 0 -23" transform="rotate(180,649.5,879.5)"/><rect x="661" y="868" width="23" height="23" transform="rotate(0,672.5,879.5)"/><path d="M 684 868v 23h 11.5a 11.5 11.5, 0, 0, 0, 0 -23" transform="rotate(0,695.5,879.5)"/><path d="M 730 868v 23h 11.5a 11.5 11.5, 0, 0, 0, 0 -23" transform="rotate(-90,741.5,879.5)"/><circle cx="787.5" cy="879.5" r="11.5" transform="rotate(0,787.5,879.5)"/><path d="M 270 891v 23h 23v -11.5a 11.5 11.5, 0, 0, 0, -11.5 -11.5" transform="rotate(180,281.5,902.5)"/><rect x="293" y="891" width="23" height="23" transform="rotate(0,304.5,902.5)"/><rect x="316" y="891" width="23" height="23" transform="rotate(0,327.5,902.5)"/><rect x="385" y="891" width="23" height="23" transform="rotate(0,396.5,902.5)"/><rect x="408" y="891" width="23" height="23" transform="rotate(0,419.5,902.5)"/><path d="M 431 891v 23h 11.5a 11.5 11.5, 0, 0, 0, 0 -23" transform="rotate(0,442.5,902.5)"/><path d="M 477 891v 23h 23v -11.5a 11.5 11.5, 0, 0, 0, -11.5 -11.5" transform="rotate(-90,488.5,902.5)"/><rect x="500" y="891" width="23" height="23" transform="rotate(0,511.5,902.5)"/><rect x="523" y="891" width="23" height="23" transform="rotate(0,534.5,902.5)"/><path d="M 546 891v 23h 23v -11.5a 11.5 11.5, 0, 0, 0, -11.5 -11.5" transform="rotate(90,557.5,902.5)"/><rect x="592" y="891" width="23" height="23" transform="rotate(0,603.5,902.5)"/><path d="M 615 891v 23h 23v -11.5a 11.5 11.5, 0, 0, 0, -11.5 -11.5" transform="rotate(0,626.5,902.5)"/><path d="M 661 891v 23h 11.5a 11.5 11.5, 0, 0, 0, 0 -23" transform="rotate(90,672.5,902.5)"/><path d="M 730 891v 23h 11.5a 11.5 11.5, 0, 0, 0, 0 -23" transform="rotate(90,741.5,902.5)"/><path d="M 316 914v 23h 11.5a 11.5 11.5, 0, 0, 0, 0 -23" transform="rotate(90,327.5,925.5)"/><path d="M 362 914v 23h 23v -11.5a 11.5 11.5, 0, 0, 0, -11.5 -11.5" transform="rotate(-90,373.5,925.5)"/><rect x="385" y="914" width="23" height="23" transform="rotate(0,396.5,925.5)"/><rect x="408" y="914" width="23" height="23" transform="rotate(0,419.5,925.5)"/><path d="M 454 914v 23h 23v -11.5a 11.5 11.5, 0, 0, 0, -11.5 -11.5" transform="rotate(-90,465.5,925.5)"/><path d="M 477 914v 23h 23v -11.5a 11.5 11.5, 0, 0, 0, -11.5 -11.5" transform="rotate(90,488.5,925.5)"/><path d="M 569 914v 23h 11.5a 11.5 11.5, 0, 0, 0, 0 -23" transform="rotate(180,580.5,925.5)"/><rect x="592" y="914" width="23" height="23" transform="rotate(0,603.5,925.5)"/><rect x="615" y="914" width="23" height="23" transform="rotate(0,626.5,925.5)"/><path d="M 638 914v 23h 23v -11.5a 11.5 11.5, 0, 0, 0, -11.5 -11.5" transform="rotate(0,649.5,925.5)"/><circle cx="695.5" cy="925.5" r="11.5" transform="rotate(0,695.5,925.5)"/><path d="M 362 937v 23h 11.5a 11.5 11.5, 0, 0, 0, 0 -23" transform="rotate(90,373.5,948.5)"/><path d="M 408 937v 23h 11.5a 11.5 11.5, 0, 0, 0, 0 -23" transform="rotate(90,419.5,948.5)"/><path d="M 454 937v 23h 11.5a 11.5 11.5, 0, 0, 0, 0 -23" transform="rotate(90,465.5,948.5)"/><path d="M 500 937v 23h 11.5a 11.5 11.5, 0, 0, 0, 0 -23" transform="rotate(-90,511.5,948.5)"/><circle cx="557.5" cy="948.5" r="11.5" transform="rotate(0,557.5,948.5)"/><path d="M 638 937v 23h 11.5a 11.5 11.5, 0, 0, 0, 0 -23" transform="rotate(90,649.5,948.5)"/><path d="M 500 960v 23h 11.5a 11.5 11.5, 0, 0, 0, 0 -23" transform="rotate(90,511.5,971.5)"/></clipPath><clipPath id="clip-path-corners-square-color-0-0-0"><path clip-rule="evenodd" d="M 178 235.5v 46a 57.5 57.5, 0, 0, 0, 57.5 57.5h 46a 57.5 57.5, 0, 0, 0, 57.5 -57.5v -46a 57.5 57.5, 0, 0, 0, -57.5 -57.5h -46a 57.5 57.5, 0, 0, 0, -57.5 57.5M 235.5 201h 46a 34.5 34.5, 0, 0, 1, 34.5 34.5v 46a 34.5 34.5, 0, 0, 1, -34.5 34.5h -46a 34.5 34.5, 0, 0, 1, -34.5 -34.5v -46a 34.5 34.5, 0, 0, 1, 34.5 -34.5" transform="rotate(0,258.5,258.5)"/></clipPath><clipPath id="clip-path-corners-dot-color-0-0-0"><circle cx="258.5" cy="258.5" r="34.5" transform="rotate(0,258.5,258.5)"/></clipPath><clipPath id="clip-path-corners-square-color-1-0-0"><path clip-rule="evenodd" d="M 684 235.5v 46a 57.5 57.5, 0, 0, 0, 57.5 57.5h 46a 57.5 57.5, 0, 0, 0, 57.5 -57.5v -46a 57.5 57.5, 0, 0, 0, -57.5 -57.5h -46a 57.5 57.5, 0, 0, 0, -57.5 57.5M 741.5 201h 46a 34.5 34.5, 0, 0, 1, 34.5 34.5v 46a 34.5 34.5, 0, 0, 1, -34.5 34.5h -46a 34.5 34.5, 0, 0, 1, -34.5 -34.5v -46a 34.5 34.5, 0, 0, 1, 34.5 -34.5" transform="rotate(90,764.5,258.5)"/></clipPath><clipPath id="clip-path-corners-dot-color-1-0-0"><circle cx="764.5" cy="258.5" r="34.5" transform="rotate(90,764.5,258.5)"/></clipPath><clipPath id="clip-path-corners-square-color-0-1-0"><path clip-rule="evenodd" d="M 178 741.5v 46a 57.5 57.5, 0, 0, 0, 57.5 57.5h 46a 57.5 57.5, 0, 0, 0, 57.5 -57.5v -46a 57.5 57.5, 0, 0, 0, -57.5 -57.5h -46a 57.5 57.5, 0, 0, 0, -57.5 57.5M 235.5 707h 46a 34.5 34.5, 0, 0, 1, 34.5 34.5v 46a 34.5 34.5, 0, 0, 1, -34.5 34.5h -46a 34.5 34.5, 0, 0, 1, -34.5 -34.5v -46a 34.5 34.5, 0, 0, 1, 34.5 -34.5" transform="rotate(-90,258.5,764.5)"/></clipPath><clipPath id="clip-path-corners-dot-color-0-1-0"><circle cx="258.5" cy="764.5" r="34.5" transform="rotate(-90,258.5,764.5)"/></clipPath></defs><rect x="0" y="0" height="1024" width="1024" clip-path="url('#clip-path-background-color-0')" fill="#FFFFFF"/><rect x="0" y="0" height="1024" width="1024" clip-path="url('#clip-path-dot-color-0')" fill="#000000"/><rect x="178" y="178" height="161" width="161" clip-path="url('#clip-path-corners-square-color-0-0-0')" fill="#000000"/><rect x="224" y="224" height="69" width="69" clip-path="url('#clip-path-corners-dot-color-0-0-0')" fill="#000000"/><rect x="684" y="178" height="161" width="161" clip-path="url('#clip-path-corners-square-color-1-0-0')" fill="#000000"/><rect x="730" y="224" height="69" width="69" clip-path="url('#clip-path-corners-dot-color-1-0-0')" fill="#000000"/><rect x="178" y="684" height="161" width="161" clip-path="url('#clip-path-corners-square-color-0-1-0')" fill="#000000"/><rect x="224" y="730" height="69" width="69" clip-path="url('#clip-path-corners-dot-color-0-1-0')" fill="#000000"/></svg>