<?xml version="1.0" standalone="no"?>
<svg xmlns="http://www.w3.org/2000/svg" width="1024" height="1024" xmlns:xlink="http://www.w3.org/1999/xlink" viewBox="0 0 1024 1024"><defs><clipPath id="clip-path-background-color-0"><rect x="0" y="0" width="1024" height="1024"/></clipPath><clipPath id="clip-path-dot-color-0"><circle cx="371.5" cy="21.5" r="17.5" transform="rotate(0,371.5,21.5)"/><circle cx="406.5" cy="21.5" r="17.5" transform="rotate(0,406.5,21.5)"/><circle cx="441.5" cy="21.5" r="17.5" transform="rotate(0,441.5,21.5)"/><circle cx="511.5" cy="21.5" r="17.5" transform="rotate(0,511.5,21.5)"/><circle cx="546.5" cy="21.5" r="17.5" transform="rotate(0,546.5,21.5)"/><circle cx="686.5" cy="21.5" r="17.5" transform="rotate(0,686.5,21.5)"/><circle cx="721.5" cy="21.5" r="17.5" transform="rotate(0,721.5,21.5)"/><circle cx="301.5" cy="56.5" r="17.5" transform="rotate(0,301.5,56.5)"/><circle cx="336.5" cy="56.5" r="17.5" transform="rotate(0,336.5,56.5)"/><circle cx="371.5" cy="56.5" r="17.5" transform="rotate(0,371.5,56.5)"/><circle cx="406.5" cy="56.5" r="17.5" transform="rotate(0,406.5,56.5)"/><circle cx="511.5" cy="56.5" r="17.5" transform="rotate(0,511.5,56.5)"/><circle cx="546.5" cy="56.5" r="17.5" transform="rotate(0,546.5,56.5)"/><circle cx="616.5" cy="56.5" r="17.5" transform="rotate(0,616.5,56.5)"/><circle cx="651.5" cy="56.5" r="17.5" transform="rotate(0,651.5,56.5)"/><circle cx="301.5" cy="91.5" r="17.5" transform="rotate(0,301.5,91.5)"/><circle cx="336.5" cy="91.5" r="17.5" transform="rotate(0,336.5,91.5)"/><circle cx="371.5" cy="91.5" r="17.5" transform="rotate(0,371.5,91.5)"/><circle cx="406.5" cy="91.5" r="17.5" transform="rotate(0,406.5,91.5)"/><circle cx="476.5" cy="91.5" r="17.5" transform="rotate(0,476.5,91.5)"/><circle cx="511.5" cy="91.5" r="17.5" transform="rotate(0,511.5,91.5)"/><circle cx="546.5" cy="91.5" r="17.5" transform="rotate(0,546.5,91.5)"/><circle cx="686.5" cy="91.5" r="17.5" transform="rotate(0,686.5,91.5)"/><circle cx="336.5" cy="126.5" r="17.5" transform="rotate(0,336.5,126.5)"/><circle cx="406.5" cy="126.5" r="17.5" transform="rotate(0,406.5,126.5)"/><circle cx="441.5" cy="126.5" r="17.5" transform="rotate(0,441.5,126.5)"/><circle cx="581.5" cy="126.5" r="17.5" transform="rotate(0,581.5,126.5)"/><circle cx="616.5" cy="126.5" r="17.5" transform="rotate(0,616.5,126.5)"/><circle cx="721.5" cy="126.5" r="17.5" transform="rotate(0,721.5,126.5)"/><circle cx="336.5" cy="161.5" r="17.5" transform="rotate(0,336.5,161.5)"/><circle cx="371.5" cy="161.5" r="17.5" transform="rotate(0,371.5,161.5)"/><circle cx="441.5" cy="161.5" r="17.5" transform="rotate(0,441.5,161.5)"/><circle cx="476.5" cy="161.5" r="17.5" transform="rotate(0,476.5,161.5)"/><circle cx="546.5" cy="161.5" r="17.5" transform="rotate(0,546.5,161.5)"/><circle cx="616.5" cy="161.5" r="17.5" transform="rotate(0,616.5,161.5)"/><circle cx="686.5" cy="161.5" r="17.5" transform="rotate(0,686.5,161.5)"/><circle cx="406.5" cy="196.5" r="17.5" transform="rotate(0,406.5,196.5)"/><circle cx="476.5" cy="196.5" r="17.5" transform="rotate(0,476.5,196.5)"/><circle cx="511.5" cy="196.5" r="17.5" transform="rotate(0,511.5,196.5)"/><circle cx="616.5" cy="196.5" r="17.5" transform="rotate(0,616.5,196.5)"/><circle cx="686.5" cy="196.5" r="17.5" transform="rotate(0,686.5,196.5)"/><circle cx="721.5" cy="196.5" r="17.5" transform="rotate(0,721.5,196.5)"/><circle cx="301.5" cy="231.5" r="17.5" transform="rotate(0,301.5,231.5)"/><circle cx="371.5" cy="231.5" r="17.5" transform="rotate(0,371.5,231.5)"/><circle cx="441.5" cy="231.5" r="17.5" transform="rotate(0,441.5,231.5)"/><circle cx="511.5" cy="231.5" r="17.5" transform="rotate(0,511.5,231.5)"/><circle cx="581.5" cy="231.5" r="17.5" transform="rotate(0,581.5,231.5)"/><circle cx="651.5" cy="231.5" r="17.5" transform="rotate(0,651.5,231.5)"/><circle cx="721.5" cy="231.5" r="17.5" transform="rotate(0,721.5,231.5)"/><circle cx="336.5" cy="266.5" r="17.5" transform="rotate(0,336.5,266.5)"/><circle cx="546.5" cy="266.5" r="17.5" transform="rotate(0,546.5,266.5)"/><circle cx="616.5" cy="266.5" r="17.5" transform="rotate(0,616.5,266.5)"/><circle cx="721.5" cy="266.5" r="17.5" transform="rotate(0,721.5,266.5)"/><circle cx="56.5" cy="301.5" r="17.5" transform="rotate(0,56.5,301.5)"/><circle cx="91.5" cy="301.5" r="17.5" transform="rotate(0,91.5,301.5)"/><circle cx="126.5" cy="301.5" r="17.5" transform="rotate(0,126.5,301.5)"/><circle cx="196.5" cy="301.5" r="17.5" transform="rotate(0,196.5,301.5)"/><circle cx="231.5" cy="301.5" r="17.5" transform="rotate(0,231.5,301.5)"/><circle cx="371.5" cy="301.5" r="17.5" transform="rotate(0,371.5,301.5)"/><circle cx="406.5" cy="301.5" r="17.5" transform="rotate(0,406.5,301.5)"/><circle cx="511.5" cy="301.5" r="17.5" transform="rotate(0,511.5,301.5)"/><circle cx="581.5" cy="301.5" r="17.5" transform="rotate(0,581.5,301.5)"/><circle cx="616.5" cy="301.5" r="17.5" transform="rotate(0,616.5,301.5)"/><circle cx="651.5" cy="301.5" r="17.5" transform="rotate(0,651.5,301.5)"/><circle cx="721.5" cy="301.5" r="17.5" transform="rotate(0,721.5,301.5)"/><circle cx="931.5" cy="301.5" r="17.5" transform="rotate(0,931.5,301.5)"/><circle cx="966.5" cy="301.5" r="17.5" transform="rotate(0,966.5,301.5)"/><circle cx="126.5" cy="336.5" r="17.5" transform="rotate(0,126.5,336.5)"/><circle cx="161.5" cy="336.5" r="17.5" transform="rotate(0,161.5,336.5)"/><circle cx="196.5" cy="336.5" r="17.5" transform="rotate(0,196.5,336.5)"/><circle cx="266.5" cy="336.5" r="17.5" transform="rotate(0,266.5,336.5)"/><circle cx="336.5" cy="336.5" r="17.5" transform="rotate(0,336.5,336.5)"/><circle cx="441.5" cy="336.5" r="17.5" transform="rotate(0,441.5,336.5)"/><circle cx="476.5" cy="336.5" r="17.5" transform="rotate(0,476.5,336.5)"/><circle cx="581.5" cy="336.5" r="17.5" transform="rotate(0,581.5,336.5)"/><circle cx="616.5" cy="336.5" r="17.5" transform="rotate(0,616.5,336.5)"/><circle cx="686.5" cy="336.5" r="17.5" transform="rotate(0,686.5,336.5)"/><circle cx="721.5" cy="336.5" r="17.5" transform="rotate(0,721.5,336.5)"/><circle cx="756.5" cy="336.5" r="17.5" transform="rotate(0,756.5,336.5)"/><circle cx="791.5" cy="336.5" r="17.5" transform="rotate(0,791.5,336.5)"/><circle cx="826.5" cy="336.5" r="17.5" transform="rotate(0,826.5,336.5)"/><circle cx="861.5" cy="336.5" r="17.5" transform="rotate(0,861.5,336.5)"/><circle cx="896.5" cy="336.5" r="17.5" transform="rotate(0,896.5,336.5)"/><circle cx="931.5" cy="336.5" r="17.5" transform="rotate(0,931.5,336.5)"/><circle cx="1001.5" cy="336.5" r="17.5" transform="rotate(0,1001.5,336.5)"/><circle cx="56.5" cy="371.5" r="17.5" transform="rotate(0,56.5,371.5)"/><circle cx="126.5" cy="371.5" r="17.5" transform="rotate(0,126.5,371.5)"/><circle cx="196.5" cy="371.5" r="17.5" transform="rotate(0,196.5,371.5)"/><circle cx="231.5" cy="371.5" r="17.5" transform="rotate(0,231.5,371.5)"/><circle cx="266.5" cy="371.5" r="17.5" transform="rotate(0,266.5,371.5)"/><circle cx="441.5" cy="371.5" r="17.5" transform="rotate(0,441.5,371.5)"/><circle cx="476.5" cy="371.5" r="17.5" transform="rotate(0,476.5,371.5)"/><circle cx="511.5" cy="371.5" r="17.5" transform="rotate(0,511.5,371.5)"/><circle cx="546.5" cy="371.5" r="17.5" transform="rotate(0,546.5,371.5)"/><circle cx="581.5" cy="371.5" r="17.5" transform="rotate(0,581.5,371.5)"/><circle cx="616.5" cy="371.5" r="17.5" transform="rotate(0,616.5,371.5)"/><circle cx="791.5" cy="371.5" r="17.5" transform="rotate(0,791.5,371.5)"/><circle cx="826.5" cy="371.5" r="17.5" transform="rotate(0,826.5,371.5)"/><circle cx="861.5" cy="371.5" r="17.5" transform="rotate(0,861.5,371.5)"/><circle cx="896.5" cy="371.5" r="17.5" transform="rotate(0,896.5,371.5)"/><circle cx="931.5" cy="371.5" r="17.5" transform="rotate(0,931.5,371.5)"/><circle cx="966.5" cy="371.5" r="17.5" transform="rotate(0,966.5,371.5)"/><circle cx="21.5" cy="406.5" r="17.5" transform="rotate(0,21.5,406.5)"/><circle cx="56.5" cy="406.5" r="17.5" transform="rotate(0,56.5,406.5)"/><circle cx="126.5" cy="406.5" r="17.5" transform="rotate(0,126.5,406.5)"/><circle cx="161.5" cy="406.5" r="17.5" transform="rotate(0,161.5,406.5)"/><circle cx="266.5" cy="406.5" r="17.5" transform="rotate(0,266.5,406.5)"/><circle cx="336.5" cy="406.5" r="17.5" transform="rotate(0,336.5,406.5)"/><circle cx="406.5" cy="406.5" r="17.5" transform="rotate(0,406.5,406.5)"/><circle cx="441.5" cy="406.5" r="17.5" transform="rotate(0,441.5,406.5)"/><circle cx="581.5" cy="406.5" r="17.5" transform="rotate(0,581.5,406.5)"/><circle cx="721.5" cy="406.5" r="17.5" transform="rotate(0,721.5,406.5)"/><circle cx="896.5" cy="406.5" r="17.5" transform="rotate(0,896.5,406.5)"/><circle cx="1001.5" cy="406.5" r="17.5" transform="rotate(0,1001.5,406.5)"/><circle cx="126.5" cy="441.5" r="17.5" transform="rotate(0,126.5,441.5)"/><circle cx="161.5" cy="441.5" r="17.5" transform="rotate(0,161.5,441.5)"/><circle cx="231.5" cy="441.5" r="17.5" transform="rotate(0,231.5,441.5)"/><circle cx="301.5" cy="441.5" r="17.5" transform="rotate(0,301.5,441.5)"/><circle cx="441.5" cy="441.5" r="17.5" transform="rotate(0,441.5,441.5)"/><circle cx="581.5" cy="441.5" r="17.5" transform="rotate(0,581.5,441.5)"/><circle cx="616.5" cy="441.5" r="17.5" transform="rotate(0,616.5,441.5)"/><circle cx="686.5" cy="441.5" r="17.5" transform="rotate(0,686.5,441.5)"/><circle cx="756.5" cy="441.5" r="17.5" transform="rotate(0,756.5,441.5)"/><circle cx="826.5" cy="441.5" r="17.5" transform="rotate(0,826.5,441.5)"/><circle cx="931.5" cy="441.5" r="17.5" transform="rotate(0,931.5,441.5)"/><circle cx="966.5" cy="441.5" r="17.5" transform="rotate(0,966.5,441.5)"/><circle cx="1001.5" cy="441.5" r="17.5" transform="rotate(0,1001.5,441.5)"/><circle cx="266.5" cy="476.5" r="17.5" transform="rotate(0,266.5,476.5)"/><circle cx="301.5" cy="476.5" r="17.5" transform="rotate(0,301.5,476.5)"/><circle cx="371.5" cy="476.5" r="17.5" transform="rotate(0,371.5,476.5)"/><circle cx="406.5" cy="476.5" r="17.5" transform="rotate(0,406.5,476.5)"/><circle cx="441.5" cy="476.5" r="17.5" transform="rotate(0,441.5,476.5)"/><circle cx="476.5" cy="476.5" r="17.5" transform="rotate(0,476.5,476.5)"/><circle cx="511.5" cy="476.5" r="17.5" transform="rotate(0,511.5,476.5)"/><circle cx="581.5" cy="476.5" r="17.5" transform="rotate(0,581.5,476.5)"/><circle cx="616.5" cy="476.5" r="17.5" transform="rotate(0,616.5,476.5)"/><circle cx="651.5" cy="476.5" r="17.5" transform="rotate(0,651.5,476.5)"/><circle cx="686.5" cy="476.5" r="17.5" transform="rotate(0,686.5,476.5)"/><circle cx="791.5" cy="476.5" r="17.5" transform="rotate(0,791.5,476.5)"/><circle cx="826.5" cy="476.5" r="17.5" transform="rotate(0,826.5,476.5)"/><circle cx="896.5" cy="476.5" r="17.5" transform="rotate(0,896.5,476.5)"/><circle cx="931.5" cy="476.5" r="17.5" transform="rotate(0,931.5,476.5)"/><circle cx="1001.5" cy="476.5" r="17.5" transform="rotate(0,1001.5,476.5)"/><circle cx="56.5" cy="511.5" r="17.5" transform="rotate(0,56.5,511.5)"/><circle cx="126.5" cy="511.5" r="17.5" transform="rotate(0,126.5,511.5)"/><circle cx="196.5" cy="511.5" r="17.5" transform="rotate(0,196.5,511.5)"/><circle cx="231.5" cy="511.5" r="17.5" transform="rotate(0,231.5,511.5)"/><circle cx="266.5" cy="511.5" r="17.5" transform="rotate(0,266.5,511.5)"/><circle cx="336.5" cy="511.5" r="17.5" transform="rotate(0,336.5,511.5)"/><circle cx="371.5" cy="511.5" r="17.5" transform="rotate(0,371.5,511.5)"/><circle cx="406.5" cy="511.5" r="17.5" transform="rotate(0,406.5,511.5)"/><circle cx="476.5" cy="511.5" r="17.5" transform="rotate(0,476.5,511.5)"/><circle cx="546.5" cy="511.5" r="17.5" transform="rotate(0,546.5,511.5)"/><circle cx="651.5" cy="511.5" r="17.5" transform="rotate(0,651.5,511.5)"/><circle cx="686.5" cy="511.5" r="17.5" transform="rotate(0,686.5,511.5)"/><circle cx="721.5" cy="511.5" r="17.5" transform="rotate(0,721.5,511.5)"/><circle cx="826.5" cy="511.5" r="17.5" transform="rotate(0,826.5,511.5)"/><circle cx="861.5" cy="511.5" r="17.5" transform="rotate(0,861.5,511.5)"/><circle cx="896.5" cy="511.5" r="17.5" transform="rotate(0,896.5,511.5)"/><circle cx="966.5" cy="511.5" r="17.5" transform="rotate(0,966.5,511.5)"/><circle cx="1001.5" cy="511.5" r="17.5" transform="rotate(0,1001.5,511.5)"/><circle cx="21.5" cy="546.5" r="17.5" transform="rotate(0,21.5,546.5)"/><circle cx="91.5" cy="546.5" r="17.5" transform="rotate(0,91.5,546.5)"/><circle cx="161.5" cy="546.5" r="17.5" transform="rotate(0,161.5,546.5)"/><circle cx="196.5" cy="546.5" r="17.5" transform="rotate(0,196.5,546.5)"/><circle cx="266.5" cy="546.5" r="17.5" transform="rotate(0,266.5,546.5)"/><circle cx="371.5" cy="546.5" r="17.5" transform="rotate(0,371.5,546.5)"/><circle cx="476.5" cy="546.5" r="17.5" transform="rotate(0,476.5,546.5)"/><circle cx="511.5" cy="546.5" r="17.5" transform="rotate(0,511.5,546.5)"/><circle cx="581.5" cy="546.5" r="17.5" transform="rotate(0,581.5,546.5)"/><circle cx="651.5" cy="546.5" r="17.5" transform="rotate(0,651.5,546.5)"/><circle cx="686.5" cy="546.5" r="17.5" transform="rotate(0,686.5,546.5)"/><circle cx="721.5" cy="546.5" r="17.5" transform="rotate(0,721.5,546.5)"/><circle cx="861.5" cy="546.5" r="17.5" transform="rotate(0,861.5,546.5)"/><circle cx="896.5" cy="546.5" r="17.5" transform="rotate(0,896.5,546.5)"/><circle cx="1001.5" cy="546.5" r="17.5" transform="rotate(0,1001.5,546.5)"/><circle cx="21.5" cy="581.5" r="17.5" transform="rotate(0,21.5,581.5)"/><circle cx="196.5" cy="581.5" r="17.5" transform="rotate(0,196.5,581.5)"/><circle cx="231.5" cy="581.5" r="17.5" transform="rotate(0,231.5,581.5)"/><circle cx="301.5" cy="581.5" r="17.5" transform="rotate(0,301.5,581.5)"/><circle cx="336.5" cy="581.5" r="17.5" transform="rotate(0,336.5,581.5)"/><circle cx="371.5" cy="581.5" r="17.5" transform="rotate(0,371.5,581.5)"/><circle cx="476.5" cy="581.5" r="17.5" transform="rotate(0,476.5,581.5)"/><circle cx="511.5" cy="581.5" r="17.5" transform="rotate(0,511.5,581.5)"/><circle cx="546.5" cy="581.5" r="17.5" transform="rotate(0,546.5,581.5)"/><circle cx="581.5" cy="581.5" r="17.5" transform="rotate(0,581.5,581.5)"/><circle cx="651.5" cy="581.5" r="17.5" transform="rotate(0,651.5,581.5)"/><circle cx="721.5" cy="581.5" r="17.5" transform="rotate(0,721.5,581.5)"/><circle cx="756.5" cy="581.5" r="17.5" transform="rotate(0,756.5,581.5)"/><circle cx="861.5" cy="581.5" r="17.5" transform="rotate(0,861.5,581.5)"/><circle cx="896.5" cy="581.5" r="17.5" transform="rotate(0,896.5,581.5)"/><circle cx="966.5" cy="581.5" r="17.5" transform="rotate(0,966.5,581.5)"/><circle cx="1001.5" cy="581.5" r="17.5" transform="rotate(0,1001.5,581.5)"/><circle cx="56.5" cy="616.5" r="17.5" transform="rotate(0,56.5,616.5)"/><circle cx="91.5" cy="616.5" r="17.5" transform="rotate(0,91.5,616.5)"/><circle cx="126.5" cy="616.5" r="17.5" transform="rotate(0,126.5,616.5)"/><circle cx="161.5" cy="616.5" r="17.5" transform="rotate(0,161.5,616.5)"/><circle cx="301.5" cy="616.5" r="17.5" transform="rotate(0,301.5,616.5)"/><circle cx="336.5" cy="616.5" r="17.5" transform="rotate(0,336.5,616.5)"/><circle cx="476.5" cy="616.5" r="17.5" transform="rotate(0,476.5,616.5)"/><circle cx="511.5" cy="616.5" r="17.5" transform="rotate(0,511.5,616.5)"/><circle cx="581.5" cy="616.5" r="17.5" transform="rotate(0,581.5,616.5)"/><circle cx="651.5" cy="616.5" r="17.5" transform="rotate(0,651.5,616.5)"/><circle cx="826.5" cy="616.5" r="17.5" transform="rotate(0,826.5,616.5)"/><circle cx="931.5" cy="616.5" r="17.5" transform="rotate(0,931.5,616.5)"/><circle cx="21.5" cy="651.5" r="17.5" transform="rotate(0,21.5,651.5)"/><circle cx="126.5" cy="651.5" r="17.5" transform="rotate(0,126.5,651.5)"/><circle cx="231.5" cy="651.5" r="17.5" transform="rotate(0,231.5,651.5)"/><circle cx="266.5" cy="651.5" r="17.5" transform="rotate(0,266.5,651.5)"/><circle cx="336.5" cy="651.5" r="17.5" transform="rotate(0,336.5,651.5)"/><circle cx="371.5" cy="651.5" r="17.5" transform="rotate(0,371.5,651.5)"/><circle cx="406.5" cy="651.5" r="17.5" transform="rotate(0,406.5,651.5)"/><circle cx="476.5" cy="651.5" r="17.5" transform="rotate(0,476.5,651.5)"/><circle cx="546.5" cy="651.5" r="17.5" transform="rotate(0,546.5,651.5)"/><circle cx="581.5" cy="651.5" r="17.5" transform="rotate(0,581.5,651.5)"/><circle cx="721.5" cy="651.5" r="17.5" transform="rotate(0,721.5,651.5)"/><circle cx="791.5" cy="651.5" r="17.5" transform="rotate(0,791.5,651.5)"/><circle cx="826.5" cy="651.5" r="17.5" transform="rotate(0,826.5,651.5)"/><circle cx="861.5" cy="651.5" r="17.5" transform="rotate(0,861.5,651.5)"/><circle cx="896.5" cy="651.5" r="17.5" transform="rotate(0,896.5,651.5)"/><circle cx="931.5" cy="651.5" r="17.5" transform="rotate(0,931.5,651.5)"/><circle cx="91.5" cy="686.5" r="17.5" transform="rotate(0,91.5,686.5)"/><circle cx="196.5" cy="686.5" r="17.5" transform="rotate(0,196.5,686.5)"/><circle cx="266.5" cy="686.5" r="17.5" transform="rotate(0,266.5,686.5)"/><circle cx="301.5" cy="686.5" r="17.5" transform="rotate(0,301.5,686.5)"/><circle cx="441.5" cy="686.5" r="17.5" transform="rotate(0,441.5,686.5)"/><circle cx="616.5" cy="686.5" r="17.5" transform="rotate(0,616.5,686.5)"/><circle cx="651.5" cy="686.5" r="17.5" transform="rotate(0,651.5,686.5)"/><circle cx="686.5" cy="686.5" r="17.5" transform="rotate(0,686.5,686.5)"/><circle cx="756.5" cy="686.5" r="17.5" transform="rotate(0,756.5,686.5)"/><circle cx="791.5" cy="686.5" r="17.5" transform="rotate(0,791.5,686.5)"/><circle cx="896.5" cy="686.5" r="17.5" transform="rotate(0,896.5,686.5)"/><circle cx="931.5" cy="686.5" r="17.5" transform="rotate(0,931.5,686.5)"/><circle cx="1001.5" cy="686.5" r="17.5" transform="rotate(0,1001.5,686.5)"/><circle cx="56.5" cy="721.5" r="17.5" transform="rotate(0,56.5,721.5)"/><circle cx="161.5" cy="721.5" r="17.5" transform="rotate(0,161.5,721.5)"/><circle cx="231.5" cy="721.5" r="17.5" transform="rotate(0,231.5,721.5)"/><circle cx="336.5" cy="721.5" r="17.5" transform="rotate(0,336.5,721.5)"/><circle cx="441.5" cy="721.5" r="17.5" transform="rotate(0,441.5,721.5)"/><circle cx="511.5" cy="721.5" r="17.5" transform="rotate(0,511.5,721.5)"/><circle cx="581.5" cy="721.5" r="17.5" transform="rotate(0,581.5,721.5)"/><circle cx="616.5" cy="721.5" r="17.5" transform="rotate(0,616.5,721.5)"/><circle cx="651.5" cy="721.5" r="17.5" transform="rotate(0,651.5,721.5)"/><circle cx="686.5" cy="721.5" r="17.5" transform="rotate(0,686.5,721.5)"/><circle cx="721.5" cy="721.5" r="17.5" transform="rotate(0,721.5,721.5)"/><circle cx="756.5" cy="721.5" r="17.5" transform="rotate(0,756.5,721.5)"/><circle cx="791.5" cy="721.5" r="17.5" transform="rotate(0,791.5,721.5)"/><circle cx="826.5" cy="721.5" r="17.5" transform="rotate(0,826.5,721.5)"/><circle cx="861.5" cy="721.5" r="17.5" transform="rotate(0,861.5,721.5)"/><circle cx="931.5" cy="721.5" r="17.5" transform="rotate(0,931.5,721.5)"/><circle cx="966.5" cy="721.5" r="17.5" transform="rotate(0,966.5,721.5)"/><circle cx="301.5" cy="756.5" r="17.5" transform="rotate(0,301.5,756.5)"/><circle cx="476.5" cy="756.5" r="17.5" transform="rotate(0,476.5,756.5)"/><circle cx="581.5" cy="756.5" r="17.5" transform="rotate(0,581.5,756.5)"/><circle cx="616.5" cy="756.5" r="17.5" transform="rotate(0,616.5,756.5)"/><circle cx="651.5" cy="756.5" r="17.5" transform="rotate(0,651.5,756.5)"/><circle cx="721.5" cy="756.5" r="17.5" transform="rotate(0,721.5,756.5)"/><circle cx="861.5" cy="756.5" r="17.5" transform="rotate(0,861.5,756.5)"/><circle cx="896.5" cy="756.5" r="17.5" transform="rotate(0,896.5,756.5)"/><circle cx="966.5" cy="756.5" r="17.5" transform="rotate(0,966.5,756.5)"/><circle cx="1001.5" cy="756.5" r="17.5" transform="rotate(0,1001.5,756.5)"/><circle cx="371.5" cy="791.5" r="17.5" transform="rotate(0,371.5,791.5)"/><circle cx="406.5" cy="791.5" r="17.5" transform="rotate(0,406.5,791.5)"/><circle cx="441.5" cy="791.5" r="17.5" transform="rotate(0,441.5,791.5)"/><circle cx="476.5" cy="791.5" r="17.5" transform="rotate(0,476.5,791.5)"/><circle cx="511.5" cy="791.5" r="17.5" transform="rotate(0,511.5,791.5)"/><circle cx="616.5" cy="791.5" r="17.5" transform="rotate(0,616.5,791.5)"/><circle cx="686.5" cy="791.5" r="17.5" transform="rotate(0,686.5,791.5)"/><circle cx="721.5" cy="791.5" r="17.5" transform="rotate(0,721.5,791.5)"/><circle cx="791.5" cy="791.5" r="17.5" transform="rotate(0,791.5,791.5)"/><circle cx="861.5" cy="791.5" r="17.5" transform="rotate(0,861.5,791.5)"/><circle cx="931.5" cy="791.5" r="17.5" transform="rotate(0,931.5,791.5)"/><circle cx="966.5" cy="791.5" r="17.5" transform="rotate(0,966.5,791.5)"/><circle cx="301.5" cy="826.5" r="17.5" transform="rotate(0,301.5,826.5)"/><circle cx="371.5" cy="826.5" r="17.5" transform="rotate(0,371.5,826.5)"/><circle cx="406.5" cy="826.5" r="17.5" transform="rotate(0,406.5,826.5)"/><circle cx="441.5" cy="826.5" r="17.5" transform="rotate(0,441.5,826.5)"/><circle cx="476.5" cy="826.5" r="17.5" transform="rotate(0,476.5,826.5)"/><circle cx="546.5" cy="826.5" r="17.5" transform="rotate(0,546.5,826.5)"/><circle cx="651.5" cy="826.5" r="17.5" transform="rotate(0,651.5,826.5)"/><circle cx="721.5" cy="826.5" r="17.5" transform="rotate(0,721.5,826.5)"/><circle cx="861.5" cy="826.5" r="17.5" transform="rotate(0,861.5,826.5)"/><circle cx="966.5" cy="826.5" r="17.5" transform="rotate(0,966.5,826.5)"/><circle cx="336.5" cy="861.5" r="17.5" transform="rotate(0,336.5,861.5)"/><circle cx="371.5" cy="861.5" r="17.5" transform="rotate(0,371.5,861.5)"/><circle cx="406.5" cy="861.5" r="17.5" transform="rotate(0,406.5,861.5)"/><circle cx="476.5" cy="861.5" r="17.5" transform="rotate(0,476.5,861.5)"/><circle cx="511.5" cy="861.5" r="17.5" transform="rotate(0,511.5,861.5)"/><circle cx="651.5" cy="861.5" r="17.5" transform="rotate(0,651.5,861.5)"/><circle cx="721.5" cy="861.5" r="17.5" transform="rotate(0,721.5,861.5)"/><circle cx="756.5" cy="861.5" r="17.5" transform="rotate(0,756.5,861.5)"/><circle cx="791.5" cy="861.5" r="17.5" transform="rotate(0,791.5,861.5)"/><circle cx="826.5" cy="861.5" r="17.5" transform="rotate(0,826.5,861.5)"/><circle cx="861.5" cy="861.5" r="17.5" transform="rotate(0,861.5,861.5)"/><circle cx="896.5" cy="861.5" r="17.5" transform="rotate(0,896.5,861.5)"/><circle cx="931.5" cy="861.5" r="17.5" transform="rotate(0,931.5,861.5)"/><circle cx="966.5" cy="861.5" r="17.5" transform="rotate(0,966.5,861.5)"/><circle cx="301.5" cy="896.5" r="17.5" transform="rotate(0,301.5,896.5)"/><circle cx="371.5" cy="896.5" r="17.5" transform="rotate(0,371.5,896.5)"/><circle cx="406.5" cy="896.5" r="17.5" transform="rotate(0,406.5,896.5)"/><circle cx="581.5" cy="896.5" r="17.5" transform="rotate(0,581.5,896.5)"/><circle cx="616.5" cy="896.5" r="17.5" transform="rotate(0,616.5,896.5)"/><circle cx="686.5" cy="896.5" r="17.5" transform="rotate(0,686.5,896.5)"/><circle cx="861.5" cy="896.5" r="17.5" transform="rotate(0,861.5,896.5)"/><circle cx="896.5" cy="896.5" r="17.5" transform="rotate(0,896.5,896.5)"/><circle cx="931.5" cy="896.5" r="17.5" transform="rotate(0,931.5,896.5)"/><circle cx="966.5" cy="896.5" r="17.5" transform="rotate(0,966.5,896.5)"/><circle cx="301.5" cy="931.5" r="17.5" transform="rotate(0,301.5,931.5)"/><circle cx="546.5" cy="931.5" r="17.5" transform="rotate(0,546.5,931.5)"/><circle cx="581.5" cy="931.5" r="17.5" transform="rotate(0,581.5,931.5)"/><circle cx="616.5" cy="931.5" r="17.5" transform="rotate(0,616.5,931.5)"/><circle cx="721.5" cy="931.5" r="17.5" transform="rotate(0,721.5,931.5)"/><circle cx="826.5" cy="931.5" r="17.5" transform="rotate(0,826.5,931.5)"/><circle cx="896.5" cy="931.5" r="17.5" transform="rotate(0,896.5,931.5)"/><circle cx="1001.5" cy="931.5" r="17.5" transform="rotate(0,1001.5,931.5)"/><circle cx="301.5" cy="966.5" r="17.5" transform="rotate(0,301.5,966.5)"/><circle cx="336.5" cy="966.5" r="17.5" transform="rotate(0,336.5,966.5)"/><circle cx="371.5" cy="966.5" r="17.5" transform="rotate(0,371.5,966.5)"/><circle cx="406.5" cy="966.5" r="17.5" transform="rotate(0,406.5,966.5)"/><circle cx="441.5" cy="966.5" r="17.5" transform="rotate(0,441.5,966.5)"/><circle cx="476.5" cy="966.5" r="17.5" transform="rotate(0,476.5,966.5)"/><circle cx="581.5" cy="966.5" r="17.5" transform="rotate(0,581.5,966.5)"/><circle cx="651.5" cy="966.5" r="17.5" transform="rotate(0,651.5,966.5)"/><circle cx="721.5" cy="966.5" r="17.5" transform="rotate(0,721.5,966.5)"/><circle cx="791.5" cy="966.5" r="17.5" transform="rotate(0,791.5,966.5)"/><circle cx="861.5" cy="966.5" r="17.5" transform="rotate(0,861.5,966.5)"/><circle cx="896.5" cy="966.5" r="17.5" transform="rotate(0,896.5,966.5)"/><circle cx="966.5" cy="966.5" r="17.5" transform="rotate(0,966.5,966.5)"/><circle cx="476.5" cy="1001.5" r="17.5" transform="rotate(0,476.5,1001.5)"/><circle cx="511.5" cy="1001.5" r="17.5" transform="rotate(0,511.5,1001.5)"/><circle cx="546.5" cy="1001.5" r="17.5" transform="rotate(0,546.5,1001.5)"/><circle cx="686.5" cy="1001.5" r="17.5" transform="rotate(0,686.5,1001.5)"/><circle cx="721.5" cy="1001.5" r="17.5" transform="rotate(0,721.5,1001.5)"/><circle cx="791.5" cy="1001.5" r="17.5" transform="rotate(0,791.5,1001.5)"/><circle cx="826.5" cy="1001.5" r="17.5" transform="rotate(0,826.5,1001.5)"/><circle cx="896.5" cy="1001.5" r="17.5" transform="rotate(0,896.5,1001.5)"/><circle cx="966.5" cy="1001.5" r="17.5" transform="rotate(0,966.5,1001.5)"/></clipPath><clipPath id="clip-path-corners-square-color-0-0-0"><path clip-rule="evenodd" d="M 126.5 4a 122.5 122.5 0 1 0 0.1 0zm 0 35a 87.5 87.5 0 1 1 -0.1 0Z" transform="rotate(0,126.5,126.5)"/></clipPath><clipPath id="clip-path-corners-dot-color-0-0-0"><circle cx="126.5" cy="126.5" r="52.5" transform="rotate(0,126.5,126.5)"/></clipPath><clipPath id="clip-path-corners-square-color-1-0-0"><path clip-rule="evenodd" d="M 896.5 4a 122.5 122.5 0 1 0 0.1 0zm 0 35a 87.5 87.5 0 1 1 -0.1 0Z" transform="rotate(90,896.5,126.5)"/></clipPath><clipPath id="clip-path-corners-dot-color-1-0-0"><circle cx="896.5" cy="126.5" r="52.5" transform="rotate(90,896.5,126.5)"/></clipPath><clipPath id="clip-path-corners-square-color-0-1-0"><path clip-rule="evenodd" d="M 126.5 774a 122.5 122.5 0 1 0 0.1 0zm 0 35a 87.5 87.5 0 1 1 -0.1 0Z" transform="rotate(-90,126.5,896.5)"/></clipPath><clipPath id="clip-path-corners-dot-color-0-1-0"><circle cx="126.5" cy="896.5" r="52.5" transform="rotate(-90,126.5,896.5)"/></clipPath></defs><rect x="0" y="0" height="1024" width="1024" clip-path="url('#clip-path-background-color-0')" fill="#FFFFFF"/><rect x="0" y="0" height="1024" width="1024" clip-path="url('#clip-path-dot-color-0')" fill="#000000"/><rect x="4" y="4" height="245" width="245" clip-path="url('#clip-path-corners-square-color-0-0-0')" fill="#000000"/><rect x="74" y="74" height="105" width="105" clip-path="url('#clip-path-corners-dot-color-0-0-0')" fill="#000000"/><rect x="774" y="4" height="245" width="245" clip-path="url('#clip-path-corners-square-color-1-0-0')" fill="#000000"/><rect x="844" y="74" height="105" width="105" clip-path="url('#clip-path-corners-dot-color-1-0-0')" fill="#000000"/><rect x="4" y="774" height="245" width="245" clip-path="url('#clip-path-corners-square-color-0-1-0')" fill="#000000"/><rect x="74" y="844" height="105" width="105" clip-path="url('#clip-path-corners-dot-color-0-1-0')" fill="#000000"/></svg>