<?xml version="1.0" standalone="no"?>
<svg xmlns="http://www.w3.org/2000/svg" width="1024" height="1024" xmlns:xlink="http://www.w3.org/1999/xlink" viewBox="0 0 1024 1024"><defs><clipPath id="clip-path-background-color-0"><rect x="0" y="0" width="1024" height="1024"/></clipPath><clipPath id="clip-path-dot-color-0"><path d="M 354 4v 35h 35a 35 35, 0, 0, 0, -35 -35" transform="rotate(-90,371.5,21.5)"/><rect x="389" y="4" width="35" height="35" transform="rotate(0,406.5,21.5)"/><path d="M 424 4v 35h 35a 35 35, 0, 0, 0, -35 -35" transform="rotate(90,441.5,21.5)"/><path d="M 494 4v 35h 35a 35 35, 0, 0, 0, -35 -35" transform="rotate(-90,511.5,21.5)"/><rect x="529" y="4" width="35" height="35" transform="rotate(0,546.5,21.5)"/><path d="M 669 4v 35h 35a 35 35, 0, 0, 0, -35 -35" transform="rotate(-90,686.5,21.5)"/><path d="M 704 4v 35h 35a 35 35, 0, 0, 0, -35 -35" transform="rotate(90,721.5,21.5)"/><path d="M 284 39v 35h 35a 35 35, 0, 0, 0, -35 -35" transform="rotate(-90,301.5,56.5)"/><rect x="319" y="39" width="35" height="35" transform="rotate(0,336.5,56.5)"/><rect x="354" y="39" width="35" height="35" transform="rotate(0,371.5,56.5)"/><rect x="389" y="39" width="35" height="35" transform="rotate(0,406.5,56.5)"/><rect x="494" y="39" width="35" height="35" transform="rotate(0,511.5,56.5)"/><rect x="529" y="39" width="35" height="35" transform="rotate(0,546.5,56.5)"/><path d="M 599 39v 35h 35a 35 35, 0, 0, 0, -35 -35" transform="rotate(-90,616.5,56.5)"/><path d="M 634 39v 35h 35a 35 35, 0, 0, 0, -35 -35" transform="rotate(90,651.5,56.5)"/><rect x="284" y="74" width="35" height="35" transform="rotate(0,301.5,91.5)"/><rect x="319" y="74" width="35" height="35" transform="rotate(0,336.5,91.5)"/><rect x="354" y="74" width="35" height="35" transform="rotate(0,371.5,91.5)"/><rect x="389" y="74" width="35" height="35" transform="rotate(0,406.5,91.5)"/><path d="M 459 74v 35h 35a 35 35, 0, 0, 0, -35 -35" transform="rotate(-90,476.5,91.5)"/><rect x="494" y="74" width="35" height="35" transform="rotate(0,511.5,91.5)"/><path d="M 529 74v 35h 35a 35 35, 0, 0, 0, -35 -35" transform="rotate(90,546.5,91.5)"/><path d="M 669 74v 17.5a 17.5 17.5, 0, 0, 0, 17.5 17.5h 17.5v -17.5a 17.5 17.5, 0, 0, 0, -17.5 -17.5" transform="rotate(90,686.5,91.5)"/><rect x="319" y="109" width="35" height="35" transform="rotate(0,336.5,126.5)"/><rect x="389" y="109" width="35" height="35" transform="rotate(0,406.5,126.5)"/><rect x="424" y="109" width="35" height="35" transform="rotate(0,441.5,126.5)"/><path d="M 564 109v 35h 35a 35 35, 0, 0, 0, -35 -35" transform="rotate(-90,581.5,126.5)"/><rect x="599" y="109" width="35" height="35" transform="rotate(0,616.5,126.5)"/><path d="M 704 109v 17.5a 17.5 17.5, 0, 0, 0, 17.5 17.5h 17.5v -17.5a 17.5 17.5, 0, 0, 0, -17.5 -17.5" transform="rotate(90,721.5,126.5)"/><rect x="319" y="144" width="35" height="35" transform="rotate(0,336.5,161.5)"/><path d="M 354 144v 35h 35a 35 35, 0, 0, 0, -35 -35" transform="rotate(90,371.5,161.5)"/><rect x="424" y="144" width="35" height="35" transform="rotate(0,441.5,161.5)"/><rect x="459" y="144" width="35" height="35" transform="rotate(0,476.5,161.5)"/><path d="M 529 144v 17.5a 17.5 17.5, 0, 0, 0, 17.5 17.5h 17.5v -17.5a 17.5 17.5, 0, 0, 0, -17.5 -17.5" transform="rotate(90,546.5,161.5)"/><rect x="599" y="144" width="35" height="35" transform="rotate(0,616.5,161.5)"/><path d="M 669 144v 35h 35a 35 35, 0, 0, 0, -35 -35" transform="rotate(-90,686.5,161.5)"/><path d="M 389 179v 17.5a 17.5 17.5, 0, 0, 0, 17.5 17.5h 17.5v -17.5a 17.5 17.5, 0, 0, 0, -17.5 -17.5" transform="rotate(90,406.5,196.5)"/><rect x="459" y="179" width="35" height="35" transform="rotate(0,476.5,196.5)"/><rect x="494" y="179" width="35" height="35" transform="rotate(0,511.5,196.5)"/><path d="M 599 179v 35h 35a 35 35, 0, 0, 0, -35 -35" transform="rotate(90,616.5,196.5)"/><rect x="669" y="179" width="35" height="35" transform="rotate(0,686.5,196.5)"/><rect x="704" y="179" width="35" height="35" transform="rotate(0,721.5,196.5)"/><path d="M 284 214v 17.5a 17.5 17.5, 0, 0, 0, 17.5 17.5h 17.5v -17.5a 17.5 17.5, 0, 0, 0, -17.5 -17.5" transform="rotate(90,301.5,231.5)"/><path d="M 354 214v 17.5a 17.5 17.5, 0, 0, 0, 17.5 17.5h 17.5v -17.5a 17.5 17.5, 0, 0, 0, -17.5 -17.5" transform="rotate(90,371.5,231.5)"/><path d="M 424 214v 17.5a 17.5 17.5, 0, 0, 0, 17.5 17.5h 17.5v -17.5a 17.5 17.5, 0, 0, 0, -17.5 -17.5" transform="rotate(90,441.5,231.5)"/><path d="M 494 214v 35h 35a 35 35, 0, 0, 0, -35 -35" transform="rotate(90,511.5,231.5)"/><path d="M 564 214v 17.5a 17.5 17.5, 0, 0, 0, 17.5 17.5h 17.5v -17.5a 17.5 17.5, 0, 0, 0, -17.5 -17.5" transform="rotate(90,581.5,231.5)"/><path d="M 634 214v 17.5a 17.5 17.5, 0, 0, 0, 17.5 17.5h 17.5v -17.5a 17.5 17.5, 0, 0, 0, -17.5 -17.5" transform="rotate(90,651.5,231.5)"/><rect x="704" y="214" width="35" height="35" transform="rotate(0,721.5,231.5)"/><path d="M 319 249v 17.5a 17.5 17.5, 0, 0, 0, 17.5 17.5h 17.5v -17.5a 17.5 17.5, 0, 0, 0, -17.5 -17.5" transform="rotate(90,336.5,266.5)"/><path d="M 529 249v 17.5a 17.5 17.5, 0, 0, 0, 17.5 17.5h 17.5v -17.5a 17.5 17.5, 0, 0, 0, -17.5 -17.5" transform="rotate(90,546.5,266.5)"/><path d="M 599 249v 35h 35a 35 35, 0, 0, 0, -35 -35" transform="rotate(-90,616.5,266.5)"/><rect x="704" y="249" width="35" height="35" transform="rotate(0,721.5,266.5)"/><path d="M 39 284v 35h 35a 35 35, 0, 0, 0, -35 -35" transform="rotate(-90,56.5,301.5)"/><rect x="74" y="284" width="35" height="35" transform="rotate(0,91.5,301.5)"/><rect x="109" y="284" width="35" height="35" transform="rotate(0,126.5,301.5)"/><path d="M 179 284v 35h 35a 35 35, 0, 0, 0, -35 -35" transform="rotate(-90,196.5,301.5)"/><path d="M 214 284v 35h 35a 35 35, 0, 0, 0, -35 -35" transform="rotate(90,231.5,301.5)"/><path d="M 354 284v 35h 35a 35 35, 0, 0, 0, -35 -35" transform="rotate(-90,371.5,301.5)"/><path d="M 389 284v 35h 35a 35 35, 0, 0, 0, -35 -35" transform="rotate(90,406.5,301.5)"/><path d="M 494 284v 17.5a 17.5 17.5, 0, 0, 0, 17.5 17.5h 17.5v -17.5a 17.5 17.5, 0, 0, 0, -17.5 -17.5" transform="rotate(90,511.5,301.5)"/><path d="M 564 284v 35h 35a 35 35, 0, 0, 0, -35 -35" transform="rotate(-90,581.5,301.5)"/><rect x="599" y="284" width="35" height="35" transform="rotate(0,616.5,301.5)"/><path d="M 634 284v 35h 35a 35 35, 0, 0, 0, -35 -35" transform="rotate(90,651.5,301.5)"/><rect x="704" y="284" width="35" height="35" transform="rotate(0,721.5,301.5)"/><path d="M 914 284v 35h 35a 35 35, 0, 0, 0, -35 -35" transform="rotate(-90,931.5,301.5)"/><path d="M 949 284v 35h 35a 35 35, 0, 0, 0, -35 -35" transform="rotate(90,966.5,301.5)"/><rect x="109" y="319" width="35" height="35" transform="rotate(0,126.5,336.5)"/><rect x="144" y="319" width="35" height="35" transform="rotate(0,161.5,336.5)"/><rect x="179" y="319" width="35" height="35" transform="rotate(0,196.5,336.5)"/><path d="M 249 319v 35h 35a 35 35, 0, 0, 0, -35 -35" transform="rotate(-90,266.5,336.5)"/><path d="M 319 319v 17.5a 17.5 17.5, 0, 0, 0, 17.5 17.5h 17.5v -17.5a 17.5 17.5, 0, 0, 0, -17.5 -17.5" transform="rotate(90,336.5,336.5)"/><path d="M 424 319v 35h 35a 35 35, 0, 0, 0, -35 -35" transform="rotate(-90,441.5,336.5)"/><rect x="459" y="319" width="35" height="35" transform="rotate(0,476.5,336.5)"/><rect x="564" y="319" width="35" height="35" transform="rotate(0,581.5,336.5)"/><rect x="599" y="319" width="35" height="35" transform="rotate(0,616.5,336.5)"/><path d="M 669 319v 35h 35a 35 35, 0, 0, 0, -35 -35" transform="rotate(-90,686.5,336.5)"/><rect x="704" y="319" width="35" height="35" transform="rotate(0,721.5,336.5)"/><rect x="739" y="319" width="35" height="35" transform="rotate(0,756.5,336.5)"/><rect x="774" y="319" width="35" height="35" transform="rotate(0,791.5,336.5)"/><rect x="809" y="319" width="35" height="35" transform="rotate(0,826.5,336.5)"/><rect x="844" y="319" width="35" height="35" transform="rotate(0,861.5,336.5)"/><rect x="879" y="319" width="35" height="35" transform="rotate(0,896.5,336.5)"/><rect x="914" y="319" width="35" height="35" transform="rotate(0,931.5,336.5)"/><path d="M 984 319v 17.5a 17.5 17.5, 0, 0, 0, 17.5 17.5h 17.5v -17.5a 17.5 17.5, 0, 0, 0, -17.5 -17.5" transform="rotate(90,1001.5,336.5)"/><path d="M 39 354v 35h 35a 35 35, 0, 0, 0, -35 -35" transform="rotate(-90,56.5,371.5)"/><rect x="109" y="354" width="35" height="35" transform="rotate(0,126.5,371.5)"/><rect x="179" y="354" width="35" height="35" transform="rotate(0,196.5,371.5)"/><rect x="214" y="354" width="35" height="35" transform="rotate(0,231.5,371.5)"/><rect x="249" y="354" width="35" height="35" transform="rotate(0,266.5,371.5)"/><rect x="424" y="354" width="35" height="35" transform="rotate(0,441.5,371.5)"/><rect x="459" y="354" width="35" height="35" transform="rotate(0,476.5,371.5)"/><rect x="494" y="354" width="35" height="35" transform="rotate(0,511.5,371.5)"/><rect x="529" y="354" width="35" height="35" transform="rotate(0,546.5,371.5)"/><rect x="564" y="354" width="35" height="35" transform="rotate(0,581.5,371.5)"/><path d="M 599 354v 35h 35a 35 35, 0, 0, 0, -35 -35" transform="rotate(90,616.5,371.5)"/><rect x="774" y="354" width="35" height="35" transform="rotate(0,791.5,371.5)"/><rect x="809" y="354" width="35" height="35" transform="rotate(0,826.5,371.5)"/><rect x="844" y="354" width="35" height="35" transform="rotate(0,861.5,371.5)"/><rect x="879" y="354" width="35" height="35" transform="rotate(0,896.5,371.5)"/><rect x="914" y="354" width="35" height="35" transform="rotate(0,931.5,371.5)"/><path d="M 949 354v 35h 35a 35 35, 0, 0, 0, -35 -35" transform="rotate(90,966.5,371.5)"/><path d="M 4 389v 35h 35a 35 35, 0, 0, 0, -35 -35" transform="rotate(-90,21.5,406.5)"/><path d="M 39 389v 35h 35a 35 35, 0, 0, 0, -35 -35" transform="rotate(90,56.5,406.5)"/><rect x="109" y="389" width="35" height="35" transform="rotate(0,126.5,406.5)"/><rect x="144" y="389" width="35" height="35" transform="rotate(0,161.5,406.5)"/><path d="M 249 389v 35h 35a 35 35, 0, 0, 0, -35 -35" transform="rotate(90,266.5,406.5)"/><path d="M 319 389v 17.5a 17.5 17.5, 0, 0, 0, 17.5 17.5h 17.5v -17.5a 17.5 17.5, 0, 0, 0, -17.5 -17.5" transform="rotate(90,336.5,406.5)"/><path d="M 389 389v 35h 35a 35 35, 0, 0, 0, -35 -35" transform="rotate(-90,406.5,406.5)"/><rect x="424" y="389" width="35" height="35" transform="rotate(0,441.5,406.5)"/><rect x="564" y="389" width="35" height="35" transform="rotate(0,581.5,406.5)"/><path d="M 704 389v 17.5a 17.5 17.5, 0, 0, 0, 17.5 17.5h 17.5v -17.5a 17.5 17.5, 0, 0, 0, -17.5 -17.5" transform="rotate(90,721.5,406.5)"/><path d="M 879 389v 35h 35a 35 35, 0, 0, 0, -35 -35" transform="rotate(90,896.5,406.5)"/><path d="M 984 389v 35h 35a 35 35, 0, 0, 0, -35 -35" transform="rotate(-90,1001.5,406.5)"/><rect x="109" y="424" width="35" height="35" transform="rotate(0,126.5,441.5)"/><path d="M 144 424v 35h 35a 35 35, 0, 0, 0, -35 -35" transform="rotate(90,161.5,441.5)"/><path d="M 214 424v 17.5a 17.5 17.5, 0, 0, 0, 17.5 17.5h 17.5v -17.5a 17.5 17.5, 0, 0, 0, -17.5 -17.5" transform="rotate(90,231.5,441.5)"/><path d="M 284 424v 35h 35a 35 35, 0, 0, 0, -35 -35" transform="rotate(-90,301.5,441.5)"/><rect x="424" y="424" width="35" height="35" transform="rotate(0,441.5,441.5)"/><rect x="564" y="424" width="35" height="35" transform="rotate(0,581.5,441.5)"/><rect x="599" y="424" width="35" height="35" transform="rotate(0,616.5,441.5)"/><path d="M 669 424v 35h 35a 35 35, 0, 0, 0, -35 -35" transform="rotate(-90,686.5,441.5)"/><path d="M 739 424v 17.5a 17.5 17.5, 0, 0, 0, 17.5 17.5h 17.5v -17.5a 17.5 17.5, 0, 0, 0, -17.5 -17.5" transform="rotate(90,756.5,441.5)"/><path d="M 809 424v 35h 35a 35 35, 0, 0, 0, -35 -35" transform="rotate(-90,826.5,441.5)"/><path d="M 914 424v 35h 35a 35 35, 0, 0, 0, -35 -35" transform="rotate(-90,931.5,441.5)"/><rect x="949" y="424" width="35" height="35" transform="rotate(0,966.5,441.5)"/><rect x="984" y="424" width="35" height="35" transform="rotate(0,1001.5,441.5)"/><path d="M 249 459v 35h 35a 35 35, 0, 0, 0, -35 -35" transform="rotate(-90,266.5,476.5)"/><path d="M 284 459v 35h 35a 35 35, 0, 0, 0, -35 -35" transform="rotate(90,301.5,476.5)"/><path d="M 354 459v 35h 35a 35 35, 0, 0, 0, -35 -35" transform="rotate(-90,371.5,476.5)"/><rect x="389" y="459" width="35" height="35" transform="rotate(0,406.5,476.5)"/><rect x="424" y="459" width="35" height="35" transform="rotate(0,441.5,476.5)"/><rect x="459" y="459" width="35" height="35" transform="rotate(0,476.5,476.5)"/><path d="M 494 459v 35h 35a 35 35, 0, 0, 0, -35 -35" transform="rotate(90,511.5,476.5)"/><rect x="564" y="459" width="35" height="35" transform="rotate(0,581.5,476.5)"/><rect x="599" y="459" width="35" height="35" transform="rotate(0,616.5,476.5)"/><rect x="634" y="459" width="35" height="35" transform="rotate(0,651.5,476.5)"/><rect x="669" y="459" width="35" height="35" transform="rotate(0,686.5,476.5)"/><path d="M 774 459v 35h 35a 35 35, 0, 0, 0, -35 -35" transform="rotate(-90,791.5,476.5)"/><rect x="809" y="459" width="35" height="35" transform="rotate(0,826.5,476.5)"/><path d="M 879 459v 35h 35a 35 35, 0, 0, 0, -35 -35" transform="rotate(-90,896.5,476.5)"/><path d="M 914 459v 35h 35a 35 35, 0, 0, 0, -35 -35" transform="rotate(90,931.5,476.5)"/><rect x="984" y="459" width="35" height="35" transform="rotate(0,1001.5,476.5)"/><path d="M 39 494v 17.5a 17.5 17.5, 0, 0, 0, 17.5 17.5h 17.5v -17.5a 17.5 17.5, 0, 0, 0, -17.5 -17.5" transform="rotate(90,56.5,511.5)"/><path d="M 109 494v 17.5a 17.5 17.5, 0, 0, 0, 17.5 17.5h 17.5v -17.5a 17.5 17.5, 0, 0, 0, -17.5 -17.5" transform="rotate(90,126.5,511.5)"/><path d="M 179 494v 35h 35a 35 35, 0, 0, 0, -35 -35" transform="rotate(-90,196.5,511.5)"/><rect x="214" y="494" width="35" height="35" transform="rotate(0,231.5,511.5)"/><rect x="249" y="494" width="35" height="35" transform="rotate(0,266.5,511.5)"/><path d="M 319 494v 35h 35a 35 35, 0, 0, 0, -35 -35" transform="rotate(-90,336.5,511.5)"/><rect x="354" y="494" width="35" height="35" transform="rotate(0,371.5,511.5)"/><path d="M 389 494v 35h 35a 35 35, 0, 0, 0, -35 -35" transform="rotate(90,406.5,511.5)"/><rect x="459" y="494" width="35" height="35" transform="rotate(0,476.5,511.5)"/><path d="M 529 494v 17.5a 17.5 17.5, 0, 0, 0, 17.5 17.5h 17.5v -17.5a 17.5 17.5, 0, 0, 0, -17.5 -17.5" transform="rotate(90,546.5,511.5)"/><rect x="634" y="494" width="35" height="35" transform="rotate(0,651.5,511.5)"/><rect x="669" y="494" width="35" height="35" transform="rotate(0,686.5,511.5)"/><rect x="704" y="494" width="35" height="35" transform="rotate(0,721.5,511.5)"/><rect x="809" y="494" width="35" height="35" transform="rotate(0,826.5,511.5)"/><rect x="844" y="494" width="35" height="35" transform="rotate(0,861.5,511.5)"/><rect x="879" y="494" width="35" height="35" transform="rotate(0,896.5,511.5)"/><path d="M 949 494v 35h 35a 35 35, 0, 0, 0, -35 -35" transform="rotate(-90,966.5,511.5)"/><rect x="984" y="494" width="35" height="35" transform="rotate(0,1001.5,511.5)"/><path d="M 4 529v 35h 35a 35 35, 0, 0, 0, -35 -35" transform="rotate(-90,21.5,546.5)"/><path d="M 74 529v 17.5a 17.5 17.5, 0, 0, 0, 17.5 17.5h 17.5v -17.5a 17.5 17.5, 0, 0, 0, -17.5 -17.5" transform="rotate(90,91.5,546.5)"/><path d="M 144 529v 35h 35a 35 35, 0, 0, 0, -35 -35" transform="rotate(-90,161.5,546.5)"/><rect x="179" y="529" width="35" height="35" transform="rotate(0,196.5,546.5)"/><path d="M 249 529v 35h 35a 35 35, 0, 0, 0, -35 -35" transform="rotate(90,266.5,546.5)"/><rect x="354" y="529" width="35" height="35" transform="rotate(0,371.5,546.5)"/><rect x="459" y="529" width="35" height="35" transform="rotate(0,476.5,546.5)"/><rect x="494" y="529" width="35" height="35" transform="rotate(0,511.5,546.5)"/><path d="M 564 529v 35h 35a 35 35, 0, 0, 0, -35 -35" transform="rotate(-90,581.5,546.5)"/><rect x="634" y="529" width="35" height="35" transform="rotate(0,651.5,546.5)"/><rect x="669" y="529" width="35" height="35" transform="rotate(0,686.5,546.5)"/><rect x="704" y="529" width="35" height="35" transform="rotate(0,721.5,546.5)"/><rect x="844" y="529" width="35" height="35" transform="rotate(0,861.5,546.5)"/><rect x="879" y="529" width="35" height="35" transform="rotate(0,896.5,546.5)"/><rect x="984" y="529" width="35" height="35" transform="rotate(0,1001.5,546.5)"/><path d="M 4 564v 35h 35a 35 35, 0, 0, 0, -35 -35" transform="rotate(90,21.5,581.5)"/><rect x="179" y="564" width="35" height="35" transform="rotate(0,196.5,581.5)"/><path d="M 214 564v 35h 35a 35 35, 0, 0, 0, -35 -35" transform="rotate(90,231.5,581.5)"/><path d="M 284 564v 35h 35a 35 35, 0, 0, 0, -35 -35" transform="rotate(-90,301.5,581.5)"/><rect x="319" y="564" width="35" height="35" transform="rotate(0,336.5,581.5)"/><path d="M 354 564v 35h 35a 35 35, 0, 0, 0, -35 -35" transform="rotate(90,371.5,581.5)"/><rect x="459" y="564" width="35" height="35" transform="rotate(0,476.5,581.5)"/><rect x="494" y="564" width="35" height="35" transform="rotate(0,511.5,581.5)"/><rect x="529" y="564" width="35" height="35" transform="rotate(0,546.5,581.5)"/><rect x="564" y="564" width="35" height="35" transform="rotate(0,581.5,581.5)"/><rect x="634" y="564" width="35" height="35" transform="rotate(0,651.5,581.5)"/><rect x="704" y="564" width="35" height="35" transform="rotate(0,721.5,581.5)"/><path d="M 739 564v 35h 35a 35 35, 0, 0, 0, -35 -35" transform="rotate(90,756.5,581.5)"/><rect x="844" y="564" width="35" height="35" transform="rotate(0,861.5,581.5)"/><path d="M 879 564v 35h 35a 35 35, 0, 0, 0, -35 -35" transform="rotate(90,896.5,581.5)"/><path d="M 949 564v 35h 35a 35 35, 0, 0, 0, -35 -35" transform="rotate(-90,966.5,581.5)"/><path d="M 984 564v 35h 35a 35 35, 0, 0, 0, -35 -35" transform="rotate(90,1001.5,581.5)"/><path d="M 39 599v 35h 35a 35 35, 0, 0, 0, -35 -35" transform="rotate(-90,56.5,616.5)"/><rect x="74" y="599" width="35" height="35" transform="rotate(0,91.5,616.5)"/><rect x="109" y="599" width="35" height="35" transform="rotate(0,126.5,616.5)"/><path d="M 144 599v 35h 35a 35 35, 0, 0, 0, -35 -35" transform="rotate(90,161.5,616.5)"/><rect x="284" y="599" width="35" height="35" transform="rotate(0,301.5,616.5)"/><rect x="319" y="599" width="35" height="35" transform="rotate(0,336.5,616.5)"/><rect x="459" y="599" width="35" height="35" transform="rotate(0,476.5,616.5)"/><path d="M 494 599v 35h 35a 35 35, 0, 0, 0, -35 -35" transform="rotate(90,511.5,616.5)"/><rect x="564" y="599" width="35" height="35" transform="rotate(0,581.5,616.5)"/><path d="M 634 599v 35h 35a 35 35, 0, 0, 0, -35 -35" transform="rotate(90,651.5,616.5)"/><path d="M 809 599v 35h 35a 35 35, 0, 0, 0, -35 -35" transform="rotate(-90,826.5,616.5)"/><path d="M 914 599v 35h 35a 35 35, 0, 0, 0, -35 -35" transform="rotate(-90,931.5,616.5)"/><path d="M 4 634v 17.5a 17.5 17.5, 0, 0, 0, 17.5 17.5h 17.5v -17.5a 17.5 17.5, 0, 0, 0, -17.5 -17.5" transform="rotate(90,21.5,651.5)"/><path d="M 109 634v 35h 35a 35 35, 0, 0, 0, -35 -35" transform="rotate(90,126.5,651.5)"/><path d="M 214 634v 35h 35a 35 35, 0, 0, 0, -35 -35" transform="rotate(-90,231.5,651.5)"/><rect x="249" y="634" width="35" height="35" transform="rotate(0,266.5,651.5)"/><rect x="319" y="634" width="35" height="35" transform="rotate(0,336.5,651.5)"/><rect x="354" y="634" width="35" height="35" transform="rotate(0,371.5,651.5)"/><path d="M 389 634v 35h 35a 35 35, 0, 0, 0, -35 -35" transform="rotate(90,406.5,651.5)"/><path d="M 459 634v 35h 35a 35 35, 0, 0, 0, -35 -35" transform="rotate(90,476.5,651.5)"/><path d="M 529 634v 35h 35a 35 35, 0, 0, 0, -35 -35" transform="rotate(-90,546.5,651.5)"/><path d="M 564 634v 35h 35a 35 35, 0, 0, 0, -35 -35" transform="rotate(90,581.5,651.5)"/><path d="M 704 634v 17.5a 17.5 17.5, 0, 0, 0, 17.5 17.5h 17.5v -17.5a 17.5 17.5, 0, 0, 0, -17.5 -17.5" transform="rotate(90,721.5,651.5)"/><path d="M 774 634v 35h 35a 35 35, 0, 0, 0, -35 -35" transform="rotate(-90,791.5,651.5)"/><rect x="809" y="634" width="35" height="35" transform="rotate(0,826.5,651.5)"/><rect x="844" y="634" width="35" height="35" transform="rotate(0,861.5,651.5)"/><rect x="879" y="634" width="35" height="35" transform="rotate(0,896.5,651.5)"/><rect x="914" y="634" width="35" height="35" transform="rotate(0,931.5,651.5)"/><path d="M 74 669v 17.5a 17.5 17.5, 0, 0, 0, 17.5 17.5h 17.5v -17.5a 17.5 17.5, 0, 0, 0, -17.5 -17.5" transform="rotate(90,91.5,686.5)"/><path d="M 179 669v 17.5a 17.5 17.5, 0, 0, 0, 17.5 17.5h 17.5v -17.5a 17.5 17.5, 0, 0, 0, -17.5 -17.5" transform="rotate(90,196.5,686.5)"/><rect x="249" y="669" width="35" height="35" transform="rotate(0,266.5,686.5)"/><path d="M 284 669v 35h 35a 35 35, 0, 0, 0, -35 -35" transform="rotate(90,301.5,686.5)"/><path d="M 424 669v 35h 35a 35 35, 0, 0, 0, -35 -35" transform="rotate(-90,441.5,686.5)"/><path d="M 599 669v 35h 35a 35 35, 0, 0, 0, -35 -35" transform="rotate(-90,616.5,686.5)"/><rect x="634" y="669" width="35" height="35" transform="rotate(0,651.5,686.5)"/><rect x="669" y="669" width="35" height="35" transform="rotate(0,686.5,686.5)"/><path d="M 739 669v 35h 35a 35 35, 0, 0, 0, -35 -35" transform="rotate(-90,756.5,686.5)"/><rect x="774" y="669" width="35" height="35" transform="rotate(0,791.5,686.5)"/><rect x="879" y="669" width="35" height="35" transform="rotate(0,896.5,686.5)"/><rect x="914" y="669" width="35" height="35" transform="rotate(0,931.5,686.5)"/><path d="M 984 669v 17.5a 17.5 17.5, 0, 0, 0, 17.5 17.5h 17.5v -17.5a 17.5 17.5, 0, 0, 0, -17.5 -17.5" transform="rotate(90,1001.5,686.5)"/><path d="M 39 704v 17.5a 17.5 17.5, 0, 0, 0, 17.5 17.5h 17.5v -17.5a 17.5 17.5, 0, 0, 0, -17.5 -17.5" transform="rotate(90,56.5,721.5)"/><path d="M 144 704v 17.5a 17.5 17.5, 0, 0, 0, 17.5 17.5h 17.5v -17.5a 17.5 17.5, 0, 0, 0, -17.5 -17.5" transform="rotate(90,161.5,721.5)"/><path d="M 214 704v 17.5a 17.5 17.5, 0, 0, 0, 17.5 17.5h 17.5v -17.5a 17.5 17.5, 0, 0, 0, -17.5 -17.5" transform="rotate(90,231.5,721.5)"/><path d="M 319 704v 17.5a 17.5 17.5, 0, 0, 0, 17.5 17.5h 17.5v -17.5a 17.5 17.5, 0, 0, 0, -17.5 -17.5" transform="rotate(90,336.5,721.5)"/><path d="M 424 704v 35h 35a 35 35, 0, 0, 0, -35 -35" transform="rotate(90,441.5,721.5)"/><path d="M 494 704v 17.5a 17.5 17.5, 0, 0, 0, 17.5 17.5h 17.5v -17.5a 17.5 17.5, 0, 0, 0, -17.5 -17.5" transform="rotate(90,511.5,721.5)"/><path d="M 564 704v 35h 35a 35 35, 0, 0, 0, -35 -35" transform="rotate(-90,581.5,721.5)"/><rect x="599" y="704" width="35" height="35" transform="rotate(0,616.5,721.5)"/><rect x="634" y="704" width="35" height="35" transform="rotate(0,651.5,721.5)"/><rect x="669" y="704" width="35" height="35" transform="rotate(0,686.5,721.5)"/><rect x="704" y="704" width="35" height="35" transform="rotate(0,721.5,721.5)"/><rect x="739" y="704" width="35" height="35" transform="rotate(0,756.5,721.5)"/><rect x="774" y="704" width="35" height="35" transform="rotate(0,791.5,721.5)"/><rect x="809" y="704" width="35" height="35" transform="rotate(0,826.5,721.5)"/><rect x="844" y="704" width="35" height="35" transform="rotate(0,861.5,721.5)"/><rect x="914" y="704" width="35" height="35" transform="rotate(0,931.5,721.5)"/><rect x="949" y="704" width="35" height="35" transform="rotate(0,966.5,721.5)"/><path d="M 284 739v 17.5a 17.5 17.5, 0, 0, 0, 17.5 17.5h 17.5v -17.5a 17.5 17.5, 0, 0, 0, -17.5 -17.5" transform="rotate(90,301.5,756.5)"/><path d="M 459 739v 35h 35a 35 35, 0, 0, 0, -35 -35" transform="rotate(-90,476.5,756.5)"/><rect x="564" y="739" width="35" height="35" transform="rotate(0,581.5,756.5)"/><rect x="599" y="739" width="35" height="35" transform="rotate(0,616.5,756.5)"/><path d="M 634 739v 35h 35a 35 35, 0, 0, 0, -35 -35" transform="rotate(90,651.5,756.5)"/><rect x="704" y="739" width="35" height="35" transform="rotate(0,721.5,756.5)"/><rect x="844" y="739" width="35" height="35" transform="rotate(0,861.5,756.5)"/><path d="M 879 739v 35h 35a 35 35, 0, 0, 0, -35 -35" transform="rotate(90,896.5,756.5)"/><rect x="949" y="739" width="35" height="35" transform="rotate(0,966.5,756.5)"/><path d="M 984 739v 35h 35a 35 35, 0, 0, 0, -35 -35" transform="rotate(90,1001.5,756.5)"/><path d="M 354 774v 35h 35a 35 35, 0, 0, 0, -35 -35" transform="rotate(-90,371.5,791.5)"/><rect x="389" y="774" width="35" height="35" transform="rotate(0,406.5,791.5)"/><rect x="424" y="774" width="35" height="35" transform="rotate(0,441.5,791.5)"/><rect x="459" y="774" width="35" height="35" transform="rotate(0,476.5,791.5)"/><path d="M 494 774v 35h 35a 35 35, 0, 0, 0, -35 -35" transform="rotate(90,511.5,791.5)"/><path d="M 599 774v 35h 35a 35 35, 0, 0, 0, -35 -35" transform="rotate(90,616.5,791.5)"/><path d="M 669 774v 35h 35a 35 35, 0, 0, 0, -35 -35" transform="rotate(-90,686.5,791.5)"/><rect x="704" y="774" width="35" height="35" transform="rotate(0,721.5,791.5)"/><path d="M 774 774v 17.5a 17.5 17.5, 0, 0, 0, 17.5 17.5h 17.5v -17.5a 17.5 17.5, 0, 0, 0, -17.5 -17.5" transform="rotate(90,791.5,791.5)"/><rect x="844" y="774" width="35" height="35" transform="rotate(0,861.5,791.5)"/><path d="M 914 774v 35h 35a 35 35, 0, 0, 0, -35 -35" transform="rotate(-90,931.5,791.5)"/><rect x="949" y="774" width="35" height="35" transform="rotate(0,966.5,791.5)"/><path d="M 284 809v 17.5a 17.5 17.5, 0, 0, 0, 17.5 17.5h 17.5v -17.5a 17.5 17.5, 0, 0, 0, -17.5 -17.5" transform="rotate(90,301.5,826.5)"/><rect x="354" y="809" width="35" height="35" transform="rotate(0,371.5,826.5)"/><rect x="389" y="809" width="35" height="35" transform="rotate(0,406.5,826.5)"/><rect x="424" y="809" width="35" height="35" transform="rotate(0,441.5,826.5)"/><rect x="459" y="809" width="35" height="35" transform="rotate(0,476.5,826.5)"/><path d="M 529 809v 17.5a 17.5 17.5, 0, 0, 0, 17.5 17.5h 17.5v -17.5a 17.5 17.5, 0, 0, 0, -17.5 -17.5" transform="rotate(90,546.5,826.5)"/><path d="M 634 809v 35h 35a 35 35, 0, 0, 0, -35 -35" transform="rotate(-90,651.5,826.5)"/><rect x="704" y="809" width="35" height="35" transform="rotate(0,721.5,826.5)"/><rect x="844" y="809" width="35" height="35" transform="rotate(0,861.5,826.5)"/><rect x="949" y="809" width="35" height="35" transform="rotate(0,966.5,826.5)"/><path d="M 319 844v 35h 35a 35 35, 0, 0, 0, -35 -35" transform="rotate(-90,336.5,861.5)"/><rect x="354" y="844" width="35" height="35" transform="rotate(0,371.5,861.5)"/><rect x="389" y="844" width="35" height="35" transform="rotate(0,406.5,861.5)"/><rect x="459" y="844" width="35" height="35" transform="rotate(0,476.5,861.5)"/><path d="M 494 844v 35h 35a 35 35, 0, 0, 0, -35 -35" transform="rotate(90,511.5,861.5)"/><path d="M 634 844v 35h 35a 35 35, 0, 0, 0, -35 -35" transform="rotate(90,651.5,861.5)"/><rect x="704" y="844" width="35" height="35" transform="rotate(0,721.5,861.5)"/><rect x="739" y="844" width="35" height="35" transform="rotate(0,756.5,861.5)"/><rect x="774" y="844" width="35" height="35" transform="rotate(0,791.5,861.5)"/><rect x="809" y="844" width="35" height="35" transform="rotate(0,826.5,861.5)"/><rect x="844" y="844" width="35" height="35" transform="rotate(0,861.5,861.5)"/><rect x="879" y="844" width="35" height="35" transform="rotate(0,896.5,861.5)"/><rect x="914" y="844" width="35" height="35" transform="rotate(0,931.5,861.5)"/><rect x="949" y="844" width="35" height="35" transform="rotate(0,966.5,861.5)"/><path d="M 284 879v 35h 35a 35 35, 0, 0, 0, -35 -35" transform="rotate(-90,301.5,896.5)"/><rect x="354" y="879" width="35" height="35" transform="rotate(0,371.5,896.5)"/><path d="M 389 879v 35h 35a 35 35, 0, 0, 0, -35 -35" transform="rotate(90,406.5,896.5)"/><path d="M 564 879v 35h 35a 35 35, 0, 0, 0, -35 -35" transform="rotate(-90,581.5,896.5)"/><rect x="599" y="879" width="35" height="35" transform="rotate(0,616.5,896.5)"/><path d="M 669 879v 17.5a 17.5 17.5, 0, 0, 0, 17.5 17.5h 17.5v -17.5a 17.5 17.5, 0, 0, 0, -17.5 -17.5" transform="rotate(90,686.5,896.5)"/><rect x="844" y="879" width="35" height="35" transform="rotate(0,861.5,896.5)"/><rect x="879" y="879" width="35" height="35" transform="rotate(0,896.5,896.5)"/><rect x="914" y="879" width="35" height="35" transform="rotate(0,931.5,896.5)"/><path d="M 949 879v 35h 35a 35 35, 0, 0, 0, -35 -35" transform="rotate(90,966.5,896.5)"/><rect x="284" y="914" width="35" height="35" transform="rotate(0,301.5,931.5)"/><path d="M 529 914v 35h 35a 35 35, 0, 0, 0, -35 -35" transform="rotate(-90,546.5,931.5)"/><rect x="564" y="914" width="35" height="35" transform="rotate(0,581.5,931.5)"/><path d="M 599 914v 35h 35a 35 35, 0, 0, 0, -35 -35" transform="rotate(90,616.5,931.5)"/><path d="M 704 914v 35h 35a 35 35, 0, 0, 0, -35 -35" transform="rotate(-90,721.5,931.5)"/><path d="M 809 914v 17.5a 17.5 17.5, 0, 0, 0, 17.5 17.5h 17.5v -17.5a 17.5 17.5, 0, 0, 0, -17.5 -17.5" transform="rotate(90,826.5,931.5)"/><rect x="879" y="914" width="35" height="35" transform="rotate(0,896.5,931.5)"/><path d="M 984 914v 17.5a 17.5 17.5, 0, 0, 0, 17.5 17.5h 17.5v -17.5a 17.5 17.5, 0, 0, 0, -17.5 -17.5" transform="rotate(90,1001.5,931.5)"/><rect x="284" y="949" width="35" height="35" transform="rotate(0,301.5,966.5)"/><rect x="319" y="949" width="35" height="35" transform="rotate(0,336.5,966.5)"/><rect x="354" y="949" width="35" height="35" transform="rotate(0,371.5,966.5)"/><rect x="389" y="949" width="35" height="35" transform="rotate(0,406.5,966.5)"/><rect x="424" y="949" width="35" height="35" transform="rotate(0,441.5,966.5)"/><rect x="459" y="949" width="35" height="35" transform="rotate(0,476.5,966.5)"/><path d="M 564 949v 35h 35a 35 35, 0, 0, 0, -35 -35" transform="rotate(90,581.5,966.5)"/><path d="M 634 949v 17.5a 17.5 17.5, 0, 0, 0, 17.5 17.5h 17.5v -17.5a 17.5 17.5, 0, 0, 0, -17.5 -17.5" transform="rotate(90,651.5,966.5)"/><rect x="704" y="949" width="35" height="35" transform="rotate(0,721.5,966.5)"/><path d="M 774 949v 35h 35a 35 35, 0, 0, 0, -35 -35" transform="rotate(-90,791.5,966.5)"/><path d="M 844 949v 35h 35a 35 35, 0, 0, 0, -35 -35" transform="rotate(-90,861.5,966.5)"/><rect x="879" y="949" width="35" height="35" transform="rotate(0,896.5,966.5)"/><path d="M 949 949v 35h 35a 35 35, 0, 0, 0, -35 -35" transform="rotate(-90,966.5,966.5)"/><rect x="459" y="984" width="35" height="35" transform="rotate(0,476.5,1001.5)"/><rect x="494" y="984" width="35" height="35" transform="rotate(0,511.5,1001.5)"/><path d="M 529 984v 35h 35a 35 35, 0, 0, 0, -35 -35" transform="rotate(90,546.5,1001.5)"/><path d="M 669 984v 35h 35a 35 35, 0, 0, 0, -35 -35" transform="rotate(-90,686.5,1001.5)"/><path d="M 704 984v 35h 35a 35 35, 0, 0, 0, -35 -35" transform="rotate(90,721.5,1001.5)"/><rect x="774" y="984" width="35" height="35" transform="rotate(0,791.5,1001.5)"/><path d="M 809 984v 35h 35a 35 35, 0, 0, 0, -35 -35" transform="rotate(90,826.5,1001.5)"/><path d="M 879 984v 35h 35a 35 35, 0, 0, 0, -35 -35" transform="rotate(90,896.5,1001.5)"/><path d="M 949 984v 35h 35a 35 35, 0, 0, 0, -35 -35" transform="rotate(90,966.5,1001.5)"/></clipPath><linearGradient id="dot-color-0" gradientUnits="userSpaceOnUse" x1="5" y1="0" x2="1019" y2="1024"><stop offset="0%" stop-color="#1E6FD9"/><stop offset="100%" stop-color="#0A2A5E"/></linearGradient><clipPath id="clip-path-corners-square-color-0-0-0"><path clip-rule="evenodd" d="M 4 91.5v 70a 87.5 87.5, 0, 0, 0, 87.5 87.5h 70a 87.5 87.5, 0, 0, 0, 87.5 -87.5v -70a 87.5 87.5, 0, 0, 0, -87.5 -87.5h -70a 87.5 87.5, 0, 0, 0, -87.5 87.5M 91.5 39h 70a 52.5 52.5, 0, 0, 1, 52.5 52.5v 70a 52.5 52.5, 0, 0, 1, -52.5 52.5h -70a 52.5 52.5, 0, 0, 1, -52.5 -52.5v -70a 52.5 52.5, 0, 0, 1, 52.5 -52.5" transform="rotate(0,126.5,126.5)"/></clipPath><clipPath id="clip-path-corners-dot-color-0-0-0"><circle cx="126.5" cy="126.5" r="52.5" transform="rotate(0,126.5,126.5)"/></clipPath><clipPath id="clip-path-corners-square-color-1-0-0"><path clip-rule="evenodd" d="M 774 91.5v 70a 87.5 87.5, 0, 0, 0, 87.5 87.5h 70a 87.5 87.5, 0, 0, 0, 87.5 -87.5v -70a 87.5 87.5, 0, 0, 0, -87.5 -87.5h -70a 87.5 87.5, 0, 0, 0, -87.5 87.5M 861.5 39h 70a 52.5 52.5, 0, 0, 1, 52.5 52.5v 70a 52.5 52.5, 0, 0, 1, -52.5 52.5h -70a 52.5 52.5, 0, 0, 1, -52.5 -52.5v -70a 52.5 52.5, 0, 0, 1, 52.5 -52.5" transform="rotate(90,896.5,126.5)"/></clipPath><clipPath id="clip-path-corners-dot-color-1-0-0"><circle cx="896.5" cy="126.5" r="52.5" transform="rotate(90,896.5,126.5)"/></clipPath><clipPath id="clip-path-corners-square-color-0-1-0"><path clip-rule="evenodd" d="M 4 861.5v 70a 87.5 87.5, 0, 0, 0, 87.5 87.5h 70a 87.5 87.5, 0, 0, 0, 87.5 -87.5v -70a 87.5 87.5, 0, 0, 0, -87.5 -87.5h -70a 87.5 87.5, 0, 0, 0, -87.5 87.5M 91.5 809h 70a 52.5 52.5, 0, 0, 1, 52.5 52.5v 70a 52.5 52.5, 0, 0, 1, -52.5 52.5h -70a 52.5 52.5, 0, 0, 1, -52.5 -52.5v -70a 52.5 52.5, 0, 0, 1, 52.5 -52.5" transform="rotate(-90,126.5,896.5)"/></clipPath><clipPath id="clip-path-corners-dot-color-0-1-0"><circle cx="126.5" cy="896.5" r="52.5" transform="rotate(-90,126.5,896.5)"/></clipPath></defs><rect x="0" y="0" height="1024" width="1024" clip-path="url('#clip-path-background-color-0')" fill="#FFFFFF"/><rect x="0" y="0" height="1024" width="1024" clip-path="url('#clip-path-dot-color-0')" fill="url('#dot-color-0')"/><rect x="4" y="4" height="245" width="245" clip-path="url('#clip-path-corners-square-color-0-0-0')" fill="#0A2A5E"/><rect x="74" y="74" height="105" width="105" clip-path="url('#clip-path-corners-dot-color-0-0-0')" fill="#1E6FD9"/><rect x="774" y="4" height="245" width="245" clip-path="url('#clip-path-corners-square-color-1-0-0')" fill="#0A2A5E"/><rect x="844" y="74" height="105" width="105" clip-path="url('#clip-path-corners-dot-color-1-0-0')" fill="#1E6FD9"/><rect x="4" y="774" height="245" width="245" clip-path="url('#clip-path-corners-square-color-0-1-0')" fill="#0A2A5E"/><rect x="74" y="844" height="105" width="105" clip-path="url('#clip-path-corners-dot-color-0-1-0')" fill="#1E6FD9"/></svg>